G04 #@! TF.GenerationSoftware,KiCad,Pcbnew,(6.0.2)*
G04 #@! TF.CreationDate,2022-06-14T22:08:36-05:00*
G04 #@! TF.ProjectId,Apple2Card,4170706c-6532-4436-9172-642e6b696361,rev?*
G04 #@! TF.SameCoordinates,Original*
G04 #@! TF.FileFunction,Legend,Bot*
G04 #@! TF.FilePolarity,Positive*
%FSLAX46Y46*%
G04 Gerber Fmt 4.6, Leading zero omitted, Abs format (unit mm)*
G04 Created by KiCad (PCBNEW (6.0.2)) date 2022-06-14 22:08:36*
%MOMM*%
%LPD*%
G01*
G04 APERTURE LIST*
%ADD10C,0.150000*%
%ADD11C,0.120000*%
G04 APERTURE END LIST*
D10*
X53400952Y-59587619D02*
X53353333Y-59492380D01*
X53305714Y-59444761D01*
X53210476Y-59397142D01*
X53162857Y-59397142D01*
X53067619Y-59444761D01*
X53020000Y-59492380D01*
X52972380Y-59587619D01*
X52972380Y-59778095D01*
X53020000Y-59873333D01*
X53067619Y-59920952D01*
X53162857Y-59968571D01*
X53210476Y-59968571D01*
X53305714Y-59920952D01*
X53353333Y-59873333D01*
X53400952Y-59778095D01*
X53400952Y-59587619D01*
X53448571Y-59492380D01*
X53496190Y-59444761D01*
X53591428Y-59397142D01*
X53781904Y-59397142D01*
X53877142Y-59444761D01*
X53924761Y-59492380D01*
X53972380Y-59587619D01*
X53972380Y-59778095D01*
X53924761Y-59873333D01*
X53877142Y-59920952D01*
X53781904Y-59968571D01*
X53591428Y-59968571D01*
X53496190Y-59920952D01*
X53448571Y-59873333D01*
X53400952Y-59778095D01*
X53067619Y-60349523D02*
X53020000Y-60397142D01*
X52972380Y-60492380D01*
X52972380Y-60730476D01*
X53020000Y-60825714D01*
X53067619Y-60873333D01*
X53162857Y-60920952D01*
X53258095Y-60920952D01*
X53400952Y-60873333D01*
X53972380Y-60301904D01*
X53972380Y-60920952D01*
X53877142Y-61920952D02*
X53924761Y-61873333D01*
X53972380Y-61730476D01*
X53972380Y-61635238D01*
X53924761Y-61492380D01*
X53829523Y-61397142D01*
X53734285Y-61349523D01*
X53543809Y-61301904D01*
X53400952Y-61301904D01*
X53210476Y-61349523D01*
X53115238Y-61397142D01*
X53020000Y-61492380D01*
X52972380Y-61635238D01*
X52972380Y-61730476D01*
X53020000Y-61873333D01*
X53067619Y-61920952D01*
X52972380Y-62825714D02*
X52972380Y-62349523D01*
X53448571Y-62301904D01*
X53400952Y-62349523D01*
X53353333Y-62444761D01*
X53353333Y-62682857D01*
X53400952Y-62778095D01*
X53448571Y-62825714D01*
X53543809Y-62873333D01*
X53781904Y-62873333D01*
X53877142Y-62825714D01*
X53924761Y-62778095D01*
X53972380Y-62682857D01*
X53972380Y-62444761D01*
X53924761Y-62349523D01*
X53877142Y-62301904D01*
X52972380Y-63778095D02*
X52972380Y-63301904D01*
X53448571Y-63254285D01*
X53400952Y-63301904D01*
X53353333Y-63397142D01*
X53353333Y-63635238D01*
X53400952Y-63730476D01*
X53448571Y-63778095D01*
X53543809Y-63825714D01*
X53781904Y-63825714D01*
X53877142Y-63778095D01*
X53924761Y-63730476D01*
X53972380Y-63635238D01*
X53972380Y-63397142D01*
X53924761Y-63301904D01*
X53877142Y-63254285D01*
X53686666Y-64206666D02*
X53686666Y-64682857D01*
X53972380Y-64111428D02*
X52972380Y-64444761D01*
X53972380Y-64778095D01*
X56302380Y-51305714D02*
X56302380Y-50734285D01*
X56302380Y-51020000D02*
X55302380Y-51020000D01*
X55445238Y-50924761D01*
X55540476Y-50829523D01*
X55588095Y-50734285D01*
X99892380Y-75897142D02*
X99416190Y-75563809D01*
X99892380Y-75325714D02*
X98892380Y-75325714D01*
X98892380Y-75706666D01*
X98940000Y-75801904D01*
X98987619Y-75849523D01*
X99082857Y-75897142D01*
X99225714Y-75897142D01*
X99320952Y-75849523D01*
X99368571Y-75801904D01*
X99416190Y-75706666D01*
X99416190Y-75325714D01*
X98892380Y-76230476D02*
X98892380Y-76849523D01*
X99273333Y-76516190D01*
X99273333Y-76659047D01*
X99320952Y-76754285D01*
X99368571Y-76801904D01*
X99463809Y-76849523D01*
X99701904Y-76849523D01*
X99797142Y-76801904D01*
X99844761Y-76754285D01*
X99892380Y-76659047D01*
X99892380Y-76373333D01*
X99844761Y-76278095D01*
X99797142Y-76230476D01*
X98987619Y-77230476D02*
X98940000Y-77278095D01*
X98892380Y-77373333D01*
X98892380Y-77611428D01*
X98940000Y-77706666D01*
X98987619Y-77754285D01*
X99082857Y-77801904D01*
X99178095Y-77801904D01*
X99320952Y-77754285D01*
X99892380Y-77182857D01*
X99892380Y-77801904D01*
X103132380Y-76047142D02*
X102656190Y-75713809D01*
X103132380Y-75475714D02*
X102132380Y-75475714D01*
X102132380Y-75856666D01*
X102180000Y-75951904D01*
X102227619Y-75999523D01*
X102322857Y-76047142D01*
X102465714Y-76047142D01*
X102560952Y-75999523D01*
X102608571Y-75951904D01*
X102656190Y-75856666D01*
X102656190Y-75475714D01*
X102132380Y-76380476D02*
X102132380Y-76999523D01*
X102513333Y-76666190D01*
X102513333Y-76809047D01*
X102560952Y-76904285D01*
X102608571Y-76951904D01*
X102703809Y-76999523D01*
X102941904Y-76999523D01*
X103037142Y-76951904D01*
X103084761Y-76904285D01*
X103132380Y-76809047D01*
X103132380Y-76523333D01*
X103084761Y-76428095D01*
X103037142Y-76380476D01*
X103132380Y-77951904D02*
X103132380Y-77380476D01*
X103132380Y-77666190D02*
X102132380Y-77666190D01*
X102275238Y-77570952D01*
X102370476Y-77475714D01*
X102418095Y-77380476D01*
X75082857Y-43162380D02*
X75416190Y-42686190D01*
X75654285Y-43162380D02*
X75654285Y-42162380D01*
X75273333Y-42162380D01*
X75178095Y-42210000D01*
X75130476Y-42257619D01*
X75082857Y-42352857D01*
X75082857Y-42495714D01*
X75130476Y-42590952D01*
X75178095Y-42638571D01*
X75273333Y-42686190D01*
X75654285Y-42686190D01*
X74749523Y-42162380D02*
X74130476Y-42162380D01*
X74463809Y-42543333D01*
X74320952Y-42543333D01*
X74225714Y-42590952D01*
X74178095Y-42638571D01*
X74130476Y-42733809D01*
X74130476Y-42971904D01*
X74178095Y-43067142D01*
X74225714Y-43114761D01*
X74320952Y-43162380D01*
X74606666Y-43162380D01*
X74701904Y-43114761D01*
X74749523Y-43067142D01*
X73511428Y-42162380D02*
X73416190Y-42162380D01*
X73320952Y-42210000D01*
X73273333Y-42257619D01*
X73225714Y-42352857D01*
X73178095Y-42543333D01*
X73178095Y-42781428D01*
X73225714Y-42971904D01*
X73273333Y-43067142D01*
X73320952Y-43114761D01*
X73416190Y-43162380D01*
X73511428Y-43162380D01*
X73606666Y-43114761D01*
X73654285Y-43067142D01*
X73701904Y-42971904D01*
X73749523Y-42781428D01*
X73749523Y-42543333D01*
X73701904Y-42352857D01*
X73654285Y-42257619D01*
X73606666Y-42210000D01*
X73511428Y-42162380D01*
X75102857Y-46252380D02*
X75436190Y-45776190D01*
X75674285Y-46252380D02*
X75674285Y-45252380D01*
X75293333Y-45252380D01*
X75198095Y-45300000D01*
X75150476Y-45347619D01*
X75102857Y-45442857D01*
X75102857Y-45585714D01*
X75150476Y-45680952D01*
X75198095Y-45728571D01*
X75293333Y-45776190D01*
X75674285Y-45776190D01*
X74721904Y-45347619D02*
X74674285Y-45300000D01*
X74579047Y-45252380D01*
X74340952Y-45252380D01*
X74245714Y-45300000D01*
X74198095Y-45347619D01*
X74150476Y-45442857D01*
X74150476Y-45538095D01*
X74198095Y-45680952D01*
X74769523Y-46252380D01*
X74150476Y-46252380D01*
X73674285Y-46252380D02*
X73483809Y-46252380D01*
X73388571Y-46204761D01*
X73340952Y-46157142D01*
X73245714Y-46014285D01*
X73198095Y-45823809D01*
X73198095Y-45442857D01*
X73245714Y-45347619D01*
X73293333Y-45300000D01*
X73388571Y-45252380D01*
X73579047Y-45252380D01*
X73674285Y-45300000D01*
X73721904Y-45347619D01*
X73769523Y-45442857D01*
X73769523Y-45680952D01*
X73721904Y-45776190D01*
X73674285Y-45823809D01*
X73579047Y-45871428D01*
X73388571Y-45871428D01*
X73293333Y-45823809D01*
X73245714Y-45776190D01*
X73198095Y-45680952D01*
X58411666Y-76502380D02*
X58745000Y-76026190D01*
X58983095Y-76502380D02*
X58983095Y-75502380D01*
X58602142Y-75502380D01*
X58506904Y-75550000D01*
X58459285Y-75597619D01*
X58411666Y-75692857D01*
X58411666Y-75835714D01*
X58459285Y-75930952D01*
X58506904Y-75978571D01*
X58602142Y-76026190D01*
X58983095Y-76026190D01*
X57554523Y-75502380D02*
X57745000Y-75502380D01*
X57840238Y-75550000D01*
X57887857Y-75597619D01*
X57983095Y-75740476D01*
X58030714Y-75930952D01*
X58030714Y-76311904D01*
X57983095Y-76407142D01*
X57935476Y-76454761D01*
X57840238Y-76502380D01*
X57649761Y-76502380D01*
X57554523Y-76454761D01*
X57506904Y-76407142D01*
X57459285Y-76311904D01*
X57459285Y-76073809D01*
X57506904Y-75978571D01*
X57554523Y-75930952D01*
X57649761Y-75883333D01*
X57840238Y-75883333D01*
X57935476Y-75930952D01*
X57983095Y-75978571D01*
X58030714Y-76073809D01*
X88497380Y-44152142D02*
X88021190Y-43818809D01*
X88497380Y-43580714D02*
X87497380Y-43580714D01*
X87497380Y-43961666D01*
X87545000Y-44056904D01*
X87592619Y-44104523D01*
X87687857Y-44152142D01*
X87830714Y-44152142D01*
X87925952Y-44104523D01*
X87973571Y-44056904D01*
X88021190Y-43961666D01*
X88021190Y-43580714D01*
X87592619Y-44533095D02*
X87545000Y-44580714D01*
X87497380Y-44675952D01*
X87497380Y-44914047D01*
X87545000Y-45009285D01*
X87592619Y-45056904D01*
X87687857Y-45104523D01*
X87783095Y-45104523D01*
X87925952Y-45056904D01*
X88497380Y-44485476D01*
X88497380Y-45104523D01*
X87925952Y-45675952D02*
X87878333Y-45580714D01*
X87830714Y-45533095D01*
X87735476Y-45485476D01*
X87687857Y-45485476D01*
X87592619Y-45533095D01*
X87545000Y-45580714D01*
X87497380Y-45675952D01*
X87497380Y-45866428D01*
X87545000Y-45961666D01*
X87592619Y-46009285D01*
X87687857Y-46056904D01*
X87735476Y-46056904D01*
X87830714Y-46009285D01*
X87878333Y-45961666D01*
X87925952Y-45866428D01*
X87925952Y-45675952D01*
X87973571Y-45580714D01*
X88021190Y-45533095D01*
X88116428Y-45485476D01*
X88306904Y-45485476D01*
X88402142Y-45533095D01*
X88449761Y-45580714D01*
X88497380Y-45675952D01*
X88497380Y-45866428D01*
X88449761Y-45961666D01*
X88402142Y-46009285D01*
X88306904Y-46056904D01*
X88116428Y-46056904D01*
X88021190Y-46009285D01*
X87973571Y-45961666D01*
X87925952Y-45866428D01*
X105067380Y-44197142D02*
X104591190Y-43863809D01*
X105067380Y-43625714D02*
X104067380Y-43625714D01*
X104067380Y-44006666D01*
X104115000Y-44101904D01*
X104162619Y-44149523D01*
X104257857Y-44197142D01*
X104400714Y-44197142D01*
X104495952Y-44149523D01*
X104543571Y-44101904D01*
X104591190Y-44006666D01*
X104591190Y-43625714D01*
X104162619Y-44578095D02*
X104115000Y-44625714D01*
X104067380Y-44720952D01*
X104067380Y-44959047D01*
X104115000Y-45054285D01*
X104162619Y-45101904D01*
X104257857Y-45149523D01*
X104353095Y-45149523D01*
X104495952Y-45101904D01*
X105067380Y-44530476D01*
X105067380Y-45149523D01*
X104067380Y-45482857D02*
X104067380Y-46149523D01*
X105067380Y-45720952D01*
X98532380Y-44197142D02*
X98056190Y-43863809D01*
X98532380Y-43625714D02*
X97532380Y-43625714D01*
X97532380Y-44006666D01*
X97580000Y-44101904D01*
X97627619Y-44149523D01*
X97722857Y-44197142D01*
X97865714Y-44197142D01*
X97960952Y-44149523D01*
X98008571Y-44101904D01*
X98056190Y-44006666D01*
X98056190Y-43625714D01*
X97627619Y-44578095D02*
X97580000Y-44625714D01*
X97532380Y-44720952D01*
X97532380Y-44959047D01*
X97580000Y-45054285D01*
X97627619Y-45101904D01*
X97722857Y-45149523D01*
X97818095Y-45149523D01*
X97960952Y-45101904D01*
X98532380Y-44530476D01*
X98532380Y-45149523D01*
X97532380Y-46006666D02*
X97532380Y-45816190D01*
X97580000Y-45720952D01*
X97627619Y-45673333D01*
X97770476Y-45578095D01*
X97960952Y-45530476D01*
X98341904Y-45530476D01*
X98437142Y-45578095D01*
X98484761Y-45625714D01*
X98532380Y-45720952D01*
X98532380Y-45911428D01*
X98484761Y-46006666D01*
X98437142Y-46054285D01*
X98341904Y-46101904D01*
X98103809Y-46101904D01*
X98008571Y-46054285D01*
X97960952Y-46006666D01*
X97913333Y-45911428D01*
X97913333Y-45720952D01*
X97960952Y-45625714D01*
X98008571Y-45578095D01*
X98103809Y-45530476D01*
X91767380Y-44142142D02*
X91291190Y-43808809D01*
X91767380Y-43570714D02*
X90767380Y-43570714D01*
X90767380Y-43951666D01*
X90815000Y-44046904D01*
X90862619Y-44094523D01*
X90957857Y-44142142D01*
X91100714Y-44142142D01*
X91195952Y-44094523D01*
X91243571Y-44046904D01*
X91291190Y-43951666D01*
X91291190Y-43570714D01*
X90862619Y-44523095D02*
X90815000Y-44570714D01*
X90767380Y-44665952D01*
X90767380Y-44904047D01*
X90815000Y-44999285D01*
X90862619Y-45046904D01*
X90957857Y-45094523D01*
X91053095Y-45094523D01*
X91195952Y-45046904D01*
X91767380Y-44475476D01*
X91767380Y-45094523D01*
X90767380Y-45999285D02*
X90767380Y-45523095D01*
X91243571Y-45475476D01*
X91195952Y-45523095D01*
X91148333Y-45618333D01*
X91148333Y-45856428D01*
X91195952Y-45951666D01*
X91243571Y-45999285D01*
X91338809Y-46046904D01*
X91576904Y-46046904D01*
X91672142Y-45999285D01*
X91719761Y-45951666D01*
X91767380Y-45856428D01*
X91767380Y-45618333D01*
X91719761Y-45523095D01*
X91672142Y-45475476D01*
X101707380Y-44212142D02*
X101231190Y-43878809D01*
X101707380Y-43640714D02*
X100707380Y-43640714D01*
X100707380Y-44021666D01*
X100755000Y-44116904D01*
X100802619Y-44164523D01*
X100897857Y-44212142D01*
X101040714Y-44212142D01*
X101135952Y-44164523D01*
X101183571Y-44116904D01*
X101231190Y-44021666D01*
X101231190Y-43640714D01*
X100802619Y-44593095D02*
X100755000Y-44640714D01*
X100707380Y-44735952D01*
X100707380Y-44974047D01*
X100755000Y-45069285D01*
X100802619Y-45116904D01*
X100897857Y-45164523D01*
X100993095Y-45164523D01*
X101135952Y-45116904D01*
X101707380Y-44545476D01*
X101707380Y-45164523D01*
X101040714Y-46021666D02*
X101707380Y-46021666D01*
X100659761Y-45783571D02*
X101374047Y-45545476D01*
X101374047Y-46164523D01*
X95172380Y-44112142D02*
X94696190Y-43778809D01*
X95172380Y-43540714D02*
X94172380Y-43540714D01*
X94172380Y-43921666D01*
X94220000Y-44016904D01*
X94267619Y-44064523D01*
X94362857Y-44112142D01*
X94505714Y-44112142D01*
X94600952Y-44064523D01*
X94648571Y-44016904D01*
X94696190Y-43921666D01*
X94696190Y-43540714D01*
X94267619Y-44493095D02*
X94220000Y-44540714D01*
X94172380Y-44635952D01*
X94172380Y-44874047D01*
X94220000Y-44969285D01*
X94267619Y-45016904D01*
X94362857Y-45064523D01*
X94458095Y-45064523D01*
X94600952Y-45016904D01*
X95172380Y-44445476D01*
X95172380Y-45064523D01*
X94172380Y-45683571D02*
X94172380Y-45778809D01*
X94220000Y-45874047D01*
X94267619Y-45921666D01*
X94362857Y-45969285D01*
X94553333Y-46016904D01*
X94791428Y-46016904D01*
X94981904Y-45969285D01*
X95077142Y-45921666D01*
X95124761Y-45874047D01*
X95172380Y-45778809D01*
X95172380Y-45683571D01*
X95124761Y-45588333D01*
X95077142Y-45540714D01*
X94981904Y-45493095D01*
X94791428Y-45445476D01*
X94553333Y-45445476D01*
X94362857Y-45493095D01*
X94267619Y-45540714D01*
X94220000Y-45588333D01*
X94172380Y-45683571D01*
X109252380Y-75977142D02*
X108776190Y-75643809D01*
X109252380Y-75405714D02*
X108252380Y-75405714D01*
X108252380Y-75786666D01*
X108300000Y-75881904D01*
X108347619Y-75929523D01*
X108442857Y-75977142D01*
X108585714Y-75977142D01*
X108680952Y-75929523D01*
X108728571Y-75881904D01*
X108776190Y-75786666D01*
X108776190Y-75405714D01*
X109252380Y-76929523D02*
X109252380Y-76358095D01*
X109252380Y-76643809D02*
X108252380Y-76643809D01*
X108395238Y-76548571D01*
X108490476Y-76453333D01*
X108538095Y-76358095D01*
X109252380Y-77405714D02*
X109252380Y-77596190D01*
X109204761Y-77691428D01*
X109157142Y-77739047D01*
X109014285Y-77834285D01*
X108823809Y-77881904D01*
X108442857Y-77881904D01*
X108347619Y-77834285D01*
X108300000Y-77786666D01*
X108252380Y-77691428D01*
X108252380Y-77500952D01*
X108300000Y-77405714D01*
X108347619Y-77358095D01*
X108442857Y-77310476D01*
X108680952Y-77310476D01*
X108776190Y-77358095D01*
X108823809Y-77405714D01*
X108871428Y-77500952D01*
X108871428Y-77691428D01*
X108823809Y-77786666D01*
X108776190Y-77834285D01*
X108680952Y-77881904D01*
X65332380Y-75577142D02*
X64856190Y-75243809D01*
X65332380Y-75005714D02*
X64332380Y-75005714D01*
X64332380Y-75386666D01*
X64380000Y-75481904D01*
X64427619Y-75529523D01*
X64522857Y-75577142D01*
X64665714Y-75577142D01*
X64760952Y-75529523D01*
X64808571Y-75481904D01*
X64856190Y-75386666D01*
X64856190Y-75005714D01*
X65332380Y-76529523D02*
X65332380Y-75958095D01*
X65332380Y-76243809D02*
X64332380Y-76243809D01*
X64475238Y-76148571D01*
X64570476Y-76053333D01*
X64618095Y-75958095D01*
X64332380Y-76862857D02*
X64332380Y-77529523D01*
X65332380Y-77100952D01*
X71697380Y-75657142D02*
X71221190Y-75323809D01*
X71697380Y-75085714D02*
X70697380Y-75085714D01*
X70697380Y-75466666D01*
X70745000Y-75561904D01*
X70792619Y-75609523D01*
X70887857Y-75657142D01*
X71030714Y-75657142D01*
X71125952Y-75609523D01*
X71173571Y-75561904D01*
X71221190Y-75466666D01*
X71221190Y-75085714D01*
X71697380Y-76609523D02*
X71697380Y-76038095D01*
X71697380Y-76323809D02*
X70697380Y-76323809D01*
X70840238Y-76228571D01*
X70935476Y-76133333D01*
X70983095Y-76038095D01*
X70697380Y-77466666D02*
X70697380Y-77276190D01*
X70745000Y-77180952D01*
X70792619Y-77133333D01*
X70935476Y-77038095D01*
X71125952Y-76990476D01*
X71506904Y-76990476D01*
X71602142Y-77038095D01*
X71649761Y-77085714D01*
X71697380Y-77180952D01*
X71697380Y-77371428D01*
X71649761Y-77466666D01*
X71602142Y-77514285D01*
X71506904Y-77561904D01*
X71268809Y-77561904D01*
X71173571Y-77514285D01*
X71125952Y-77466666D01*
X71078333Y-77371428D01*
X71078333Y-77180952D01*
X71125952Y-77085714D01*
X71173571Y-77038095D01*
X71268809Y-76990476D01*
X58932857Y-79622380D02*
X59266190Y-79146190D01*
X59504285Y-79622380D02*
X59504285Y-78622380D01*
X59123333Y-78622380D01*
X59028095Y-78670000D01*
X58980476Y-78717619D01*
X58932857Y-78812857D01*
X58932857Y-78955714D01*
X58980476Y-79050952D01*
X59028095Y-79098571D01*
X59123333Y-79146190D01*
X59504285Y-79146190D01*
X57980476Y-79622380D02*
X58551904Y-79622380D01*
X58266190Y-79622380D02*
X58266190Y-78622380D01*
X58361428Y-78765238D01*
X58456666Y-78860476D01*
X58551904Y-78908095D01*
X57075714Y-78622380D02*
X57551904Y-78622380D01*
X57599523Y-79098571D01*
X57551904Y-79050952D01*
X57456666Y-79003333D01*
X57218571Y-79003333D01*
X57123333Y-79050952D01*
X57075714Y-79098571D01*
X57028095Y-79193809D01*
X57028095Y-79431904D01*
X57075714Y-79527142D01*
X57123333Y-79574761D01*
X57218571Y-79622380D01*
X57456666Y-79622380D01*
X57551904Y-79574761D01*
X57599523Y-79527142D01*
X58822857Y-73272380D02*
X59156190Y-72796190D01*
X59394285Y-73272380D02*
X59394285Y-72272380D01*
X59013333Y-72272380D01*
X58918095Y-72320000D01*
X58870476Y-72367619D01*
X58822857Y-72462857D01*
X58822857Y-72605714D01*
X58870476Y-72700952D01*
X58918095Y-72748571D01*
X59013333Y-72796190D01*
X59394285Y-72796190D01*
X57870476Y-73272380D02*
X58441904Y-73272380D01*
X58156190Y-73272380D02*
X58156190Y-72272380D01*
X58251428Y-72415238D01*
X58346666Y-72510476D01*
X58441904Y-72558095D01*
X57013333Y-72605714D02*
X57013333Y-73272380D01*
X57251428Y-72224761D02*
X57489523Y-72939047D01*
X56870476Y-72939047D01*
X81122857Y-73452380D02*
X81456190Y-72976190D01*
X81694285Y-73452380D02*
X81694285Y-72452380D01*
X81313333Y-72452380D01*
X81218095Y-72500000D01*
X81170476Y-72547619D01*
X81122857Y-72642857D01*
X81122857Y-72785714D01*
X81170476Y-72880952D01*
X81218095Y-72928571D01*
X81313333Y-72976190D01*
X81694285Y-72976190D01*
X80170476Y-73452380D02*
X80741904Y-73452380D01*
X80456190Y-73452380D02*
X80456190Y-72452380D01*
X80551428Y-72595238D01*
X80646666Y-72690476D01*
X80741904Y-72738095D01*
X79837142Y-72452380D02*
X79218095Y-72452380D01*
X79551428Y-72833333D01*
X79408571Y-72833333D01*
X79313333Y-72880952D01*
X79265714Y-72928571D01*
X79218095Y-73023809D01*
X79218095Y-73261904D01*
X79265714Y-73357142D01*
X79313333Y-73404761D01*
X79408571Y-73452380D01*
X79694285Y-73452380D01*
X79789523Y-73404761D01*
X79837142Y-73357142D01*
X92642857Y-75952380D02*
X92976190Y-75476190D01*
X93214285Y-75952380D02*
X93214285Y-74952380D01*
X92833333Y-74952380D01*
X92738095Y-75000000D01*
X92690476Y-75047619D01*
X92642857Y-75142857D01*
X92642857Y-75285714D01*
X92690476Y-75380952D01*
X92738095Y-75428571D01*
X92833333Y-75476190D01*
X93214285Y-75476190D01*
X91690476Y-75952380D02*
X92261904Y-75952380D01*
X91976190Y-75952380D02*
X91976190Y-74952380D01*
X92071428Y-75095238D01*
X92166666Y-75190476D01*
X92261904Y-75238095D01*
X91309523Y-75047619D02*
X91261904Y-75000000D01*
X91166666Y-74952380D01*
X90928571Y-74952380D01*
X90833333Y-75000000D01*
X90785714Y-75047619D01*
X90738095Y-75142857D01*
X90738095Y-75238095D01*
X90785714Y-75380952D01*
X91357142Y-75952380D01*
X90738095Y-75952380D01*
X106242380Y-76027142D02*
X105766190Y-75693809D01*
X106242380Y-75455714D02*
X105242380Y-75455714D01*
X105242380Y-75836666D01*
X105290000Y-75931904D01*
X105337619Y-75979523D01*
X105432857Y-76027142D01*
X105575714Y-76027142D01*
X105670952Y-75979523D01*
X105718571Y-75931904D01*
X105766190Y-75836666D01*
X105766190Y-75455714D01*
X106242380Y-76979523D02*
X106242380Y-76408095D01*
X106242380Y-76693809D02*
X105242380Y-76693809D01*
X105385238Y-76598571D01*
X105480476Y-76503333D01*
X105528095Y-76408095D01*
X106242380Y-77931904D02*
X106242380Y-77360476D01*
X106242380Y-77646190D02*
X105242380Y-77646190D01*
X105385238Y-77550952D01*
X105480476Y-77455714D01*
X105528095Y-77360476D01*
X112512380Y-75967142D02*
X112036190Y-75633809D01*
X112512380Y-75395714D02*
X111512380Y-75395714D01*
X111512380Y-75776666D01*
X111560000Y-75871904D01*
X111607619Y-75919523D01*
X111702857Y-75967142D01*
X111845714Y-75967142D01*
X111940952Y-75919523D01*
X111988571Y-75871904D01*
X112036190Y-75776666D01*
X112036190Y-75395714D01*
X112512380Y-76919523D02*
X112512380Y-76348095D01*
X112512380Y-76633809D02*
X111512380Y-76633809D01*
X111655238Y-76538571D01*
X111750476Y-76443333D01*
X111798095Y-76348095D01*
X111512380Y-77538571D02*
X111512380Y-77633809D01*
X111560000Y-77729047D01*
X111607619Y-77776666D01*
X111702857Y-77824285D01*
X111893333Y-77871904D01*
X112131428Y-77871904D01*
X112321904Y-77824285D01*
X112417142Y-77776666D01*
X112464761Y-77729047D01*
X112512380Y-77633809D01*
X112512380Y-77538571D01*
X112464761Y-77443333D01*
X112417142Y-77395714D01*
X112321904Y-77348095D01*
X112131428Y-77300476D01*
X111893333Y-77300476D01*
X111702857Y-77348095D01*
X111607619Y-77395714D01*
X111560000Y-77443333D01*
X111512380Y-77538571D01*
X68392380Y-76113333D02*
X67916190Y-75780000D01*
X68392380Y-75541904D02*
X67392380Y-75541904D01*
X67392380Y-75922857D01*
X67440000Y-76018095D01*
X67487619Y-76065714D01*
X67582857Y-76113333D01*
X67725714Y-76113333D01*
X67820952Y-76065714D01*
X67868571Y-76018095D01*
X67916190Y-75922857D01*
X67916190Y-75541904D01*
X68392380Y-76589523D02*
X68392380Y-76780000D01*
X68344761Y-76875238D01*
X68297142Y-76922857D01*
X68154285Y-77018095D01*
X67963809Y-77065714D01*
X67582857Y-77065714D01*
X67487619Y-77018095D01*
X67440000Y-76970476D01*
X67392380Y-76875238D01*
X67392380Y-76684761D01*
X67440000Y-76589523D01*
X67487619Y-76541904D01*
X67582857Y-76494285D01*
X67820952Y-76494285D01*
X67916190Y-76541904D01*
X67963809Y-76589523D01*
X68011428Y-76684761D01*
X68011428Y-76875238D01*
X67963809Y-76970476D01*
X67916190Y-77018095D01*
X67820952Y-77065714D01*
X78036666Y-80092380D02*
X78370000Y-79616190D01*
X78608095Y-80092380D02*
X78608095Y-79092380D01*
X78227142Y-79092380D01*
X78131904Y-79140000D01*
X78084285Y-79187619D01*
X78036666Y-79282857D01*
X78036666Y-79425714D01*
X78084285Y-79520952D01*
X78131904Y-79568571D01*
X78227142Y-79616190D01*
X78608095Y-79616190D01*
X77465238Y-79520952D02*
X77560476Y-79473333D01*
X77608095Y-79425714D01*
X77655714Y-79330476D01*
X77655714Y-79282857D01*
X77608095Y-79187619D01*
X77560476Y-79140000D01*
X77465238Y-79092380D01*
X77274761Y-79092380D01*
X77179523Y-79140000D01*
X77131904Y-79187619D01*
X77084285Y-79282857D01*
X77084285Y-79330476D01*
X77131904Y-79425714D01*
X77179523Y-79473333D01*
X77274761Y-79520952D01*
X77465238Y-79520952D01*
X77560476Y-79568571D01*
X77608095Y-79616190D01*
X77655714Y-79711428D01*
X77655714Y-79901904D01*
X77608095Y-79997142D01*
X77560476Y-80044761D01*
X77465238Y-80092380D01*
X77274761Y-80092380D01*
X77179523Y-80044761D01*
X77131904Y-79997142D01*
X77084285Y-79901904D01*
X77084285Y-79711428D01*
X77131904Y-79616190D01*
X77179523Y-79568571D01*
X77274761Y-79520952D01*
X81506666Y-76582380D02*
X81840000Y-76106190D01*
X82078095Y-76582380D02*
X82078095Y-75582380D01*
X81697142Y-75582380D01*
X81601904Y-75630000D01*
X81554285Y-75677619D01*
X81506666Y-75772857D01*
X81506666Y-75915714D01*
X81554285Y-76010952D01*
X81601904Y-76058571D01*
X81697142Y-76106190D01*
X82078095Y-76106190D01*
X80601904Y-75582380D02*
X81078095Y-75582380D01*
X81125714Y-76058571D01*
X81078095Y-76010952D01*
X80982857Y-75963333D01*
X80744761Y-75963333D01*
X80649523Y-76010952D01*
X80601904Y-76058571D01*
X80554285Y-76153809D01*
X80554285Y-76391904D01*
X80601904Y-76487142D01*
X80649523Y-76534761D01*
X80744761Y-76582380D01*
X80982857Y-76582380D01*
X81078095Y-76534761D01*
X81125714Y-76487142D01*
X92336666Y-79272380D02*
X92670000Y-78796190D01*
X92908095Y-79272380D02*
X92908095Y-78272380D01*
X92527142Y-78272380D01*
X92431904Y-78320000D01*
X92384285Y-78367619D01*
X92336666Y-78462857D01*
X92336666Y-78605714D01*
X92384285Y-78700952D01*
X92431904Y-78748571D01*
X92527142Y-78796190D01*
X92908095Y-78796190D01*
X91479523Y-78605714D02*
X91479523Y-79272380D01*
X91717619Y-78224761D02*
X91955714Y-78939047D01*
X91336666Y-78939047D01*
X57082666Y-82927142D02*
X57130285Y-82974761D01*
X57273142Y-83022380D01*
X57368380Y-83022380D01*
X57511238Y-82974761D01*
X57606476Y-82879523D01*
X57654095Y-82784285D01*
X57701714Y-82593809D01*
X57701714Y-82450952D01*
X57654095Y-82260476D01*
X57606476Y-82165238D01*
X57511238Y-82070000D01*
X57368380Y-82022380D01*
X57273142Y-82022380D01*
X57130285Y-82070000D01*
X57082666Y-82117619D01*
X56130285Y-83022380D02*
X56701714Y-83022380D01*
X56416000Y-83022380D02*
X56416000Y-82022380D01*
X56511238Y-82165238D01*
X56606476Y-82260476D01*
X56701714Y-82308095D01*
X68052380Y-28046666D02*
X68766666Y-28046666D01*
X68909523Y-27999047D01*
X69004761Y-27903809D01*
X69052380Y-27760952D01*
X69052380Y-27665714D01*
X69052380Y-28522857D02*
X68052380Y-28522857D01*
X68052380Y-28903809D01*
X68100000Y-28999047D01*
X68147619Y-29046666D01*
X68242857Y-29094285D01*
X68385714Y-29094285D01*
X68480952Y-29046666D01*
X68528571Y-28999047D01*
X68576190Y-28903809D01*
X68576190Y-28522857D01*
X68052380Y-29999047D02*
X68052380Y-29522857D01*
X68528571Y-29475238D01*
X68480952Y-29522857D01*
X68433333Y-29618095D01*
X68433333Y-29856190D01*
X68480952Y-29951428D01*
X68528571Y-29999047D01*
X68623809Y-30046666D01*
X68861904Y-30046666D01*
X68957142Y-29999047D01*
X69004761Y-29951428D01*
X69052380Y-29856190D01*
X69052380Y-29618095D01*
X69004761Y-29522857D01*
X68957142Y-29475238D01*
X84312380Y-28046666D02*
X85026666Y-28046666D01*
X85169523Y-27999047D01*
X85264761Y-27903809D01*
X85312380Y-27760952D01*
X85312380Y-27665714D01*
X85312380Y-28522857D02*
X84312380Y-28522857D01*
X84312380Y-28903809D01*
X84360000Y-28999047D01*
X84407619Y-29046666D01*
X84502857Y-29094285D01*
X84645714Y-29094285D01*
X84740952Y-29046666D01*
X84788571Y-28999047D01*
X84836190Y-28903809D01*
X84836190Y-28522857D01*
X85312380Y-30046666D02*
X85312380Y-29475238D01*
X85312380Y-29760952D02*
X84312380Y-29760952D01*
X84455238Y-29665714D01*
X84550476Y-29570476D01*
X84598095Y-29475238D01*
X52963380Y-56757095D02*
X53772904Y-56757095D01*
X53868142Y-56804714D01*
X53915761Y-56852333D01*
X53963380Y-56947571D01*
X53963380Y-57138047D01*
X53915761Y-57233285D01*
X53868142Y-57280904D01*
X53772904Y-57328523D01*
X52963380Y-57328523D01*
X53296714Y-58233285D02*
X53963380Y-58233285D01*
X52915761Y-57995190D02*
X53630047Y-57757095D01*
X53630047Y-58376142D01*
X92636666Y-72627142D02*
X92684285Y-72674761D01*
X92827142Y-72722380D01*
X92922380Y-72722380D01*
X93065238Y-72674761D01*
X93160476Y-72579523D01*
X93208095Y-72484285D01*
X93255714Y-72293809D01*
X93255714Y-72150952D01*
X93208095Y-71960476D01*
X93160476Y-71865238D01*
X93065238Y-71770000D01*
X92922380Y-71722380D01*
X92827142Y-71722380D01*
X92684285Y-71770000D01*
X92636666Y-71817619D01*
X92303333Y-71722380D02*
X91636666Y-71722380D01*
X92065238Y-72722380D01*
D11*
X100870000Y-79750000D02*
X100540000Y-79750000D01*
X98130000Y-73210000D02*
X98130000Y-79750000D01*
X100870000Y-73210000D02*
X100870000Y-79750000D01*
X100540000Y-73210000D02*
X100870000Y-73210000D01*
X98460000Y-73210000D02*
X98130000Y-73210000D01*
X98130000Y-79750000D02*
X98460000Y-79750000D01*
X104050000Y-79890000D02*
X103720000Y-79890000D01*
X101310000Y-73350000D02*
X101310000Y-79890000D01*
X104050000Y-73350000D02*
X104050000Y-79890000D01*
X103720000Y-73350000D02*
X104050000Y-73350000D01*
X101640000Y-73350000D02*
X101310000Y-73350000D01*
X101310000Y-79890000D02*
X101640000Y-79890000D01*
X77650000Y-41440000D02*
X77650000Y-41770000D01*
X71110000Y-44180000D02*
X77650000Y-44180000D01*
X71110000Y-41440000D02*
X77650000Y-41440000D01*
X71110000Y-41770000D02*
X71110000Y-41440000D01*
X71110000Y-43850000D02*
X71110000Y-44180000D01*
X77650000Y-44180000D02*
X77650000Y-43850000D01*
X77690000Y-44440000D02*
X77690000Y-44770000D01*
X71150000Y-47180000D02*
X77690000Y-47180000D01*
X71150000Y-44440000D02*
X77690000Y-44440000D01*
X71150000Y-44770000D02*
X71150000Y-44440000D01*
X71150000Y-46850000D02*
X71150000Y-47180000D01*
X77690000Y-47180000D02*
X77690000Y-46850000D01*
X54995000Y-77420000D02*
X54995000Y-77090000D01*
X61535000Y-74680000D02*
X54995000Y-74680000D01*
X61535000Y-77420000D02*
X54995000Y-77420000D01*
X61535000Y-77090000D02*
X61535000Y-77420000D01*
X61535000Y-75010000D02*
X61535000Y-74680000D01*
X54995000Y-74680000D02*
X54995000Y-75010000D01*
X89445000Y-41555000D02*
X89115000Y-41555000D01*
X89115000Y-48095000D02*
X89445000Y-48095000D01*
X87035000Y-48095000D02*
X86705000Y-48095000D01*
X86705000Y-48095000D02*
X86705000Y-41555000D01*
X89445000Y-48095000D02*
X89445000Y-41555000D01*
X86705000Y-41555000D02*
X87035000Y-41555000D01*
X103255000Y-41620000D02*
X103585000Y-41620000D01*
X105995000Y-48160000D02*
X105995000Y-41620000D01*
X103255000Y-48160000D02*
X103255000Y-41620000D01*
X103585000Y-48160000D02*
X103255000Y-48160000D01*
X105665000Y-48160000D02*
X105995000Y-48160000D01*
X105995000Y-41620000D02*
X105665000Y-41620000D01*
X99370000Y-41570000D02*
X99040000Y-41570000D01*
X99040000Y-48110000D02*
X99370000Y-48110000D01*
X96960000Y-48110000D02*
X96630000Y-48110000D01*
X96630000Y-48110000D02*
X96630000Y-41570000D01*
X99370000Y-48110000D02*
X99370000Y-41570000D01*
X96630000Y-41570000D02*
X96960000Y-41570000D01*
X90005000Y-41555000D02*
X90335000Y-41555000D01*
X92745000Y-48095000D02*
X92745000Y-41555000D01*
X90005000Y-48095000D02*
X90005000Y-41555000D01*
X90335000Y-48095000D02*
X90005000Y-48095000D01*
X92415000Y-48095000D02*
X92745000Y-48095000D01*
X92745000Y-41555000D02*
X92415000Y-41555000D01*
X102595000Y-41645000D02*
X102265000Y-41645000D01*
X102265000Y-48185000D02*
X102595000Y-48185000D01*
X100185000Y-48185000D02*
X99855000Y-48185000D01*
X99855000Y-48185000D02*
X99855000Y-41645000D01*
X102595000Y-48185000D02*
X102595000Y-41645000D01*
X99855000Y-41645000D02*
X100185000Y-41645000D01*
X93280000Y-41545000D02*
X93610000Y-41545000D01*
X96020000Y-48085000D02*
X96020000Y-41545000D01*
X93280000Y-48085000D02*
X93280000Y-41545000D01*
X93610000Y-48085000D02*
X93280000Y-48085000D01*
X95690000Y-48085000D02*
X96020000Y-48085000D01*
X96020000Y-41545000D02*
X95690000Y-41545000D01*
X107490000Y-73350000D02*
X107820000Y-73350000D01*
X110230000Y-79890000D02*
X110230000Y-73350000D01*
X107490000Y-79890000D02*
X107490000Y-73350000D01*
X107820000Y-79890000D02*
X107490000Y-79890000D01*
X109900000Y-79890000D02*
X110230000Y-79890000D01*
X110230000Y-73350000D02*
X109900000Y-73350000D01*
X66200000Y-72970000D02*
X65870000Y-72970000D01*
X65870000Y-79510000D02*
X66200000Y-79510000D01*
X63790000Y-79510000D02*
X63460000Y-79510000D01*
X63460000Y-79510000D02*
X63460000Y-72970000D01*
X66200000Y-79510000D02*
X66200000Y-72970000D01*
X63460000Y-72970000D02*
X63790000Y-72970000D01*
X69855000Y-73040000D02*
X70185000Y-73040000D01*
X72595000Y-79580000D02*
X72595000Y-73040000D01*
X69855000Y-79580000D02*
X69855000Y-73040000D01*
X70185000Y-79580000D02*
X69855000Y-79580000D01*
X72265000Y-79580000D02*
X72595000Y-79580000D01*
X72595000Y-73040000D02*
X72265000Y-73040000D01*
X55010000Y-80550000D02*
X55010000Y-80220000D01*
X61550000Y-77810000D02*
X55010000Y-77810000D01*
X61550000Y-80550000D02*
X55010000Y-80550000D01*
X61550000Y-80220000D02*
X61550000Y-80550000D01*
X61550000Y-78140000D02*
X61550000Y-77810000D01*
X55010000Y-77810000D02*
X55010000Y-78140000D01*
X54920000Y-71430000D02*
X54920000Y-71760000D01*
X61460000Y-71760000D02*
X61460000Y-71430000D01*
X61460000Y-73840000D02*
X61460000Y-74170000D01*
X61460000Y-74170000D02*
X54920000Y-74170000D01*
X61460000Y-71430000D02*
X54920000Y-71430000D01*
X54920000Y-74170000D02*
X54920000Y-73840000D01*
X77180000Y-74370000D02*
X77180000Y-74040000D01*
X83720000Y-71630000D02*
X77180000Y-71630000D01*
X83720000Y-74370000D02*
X77180000Y-74370000D01*
X83720000Y-74040000D02*
X83720000Y-74370000D01*
X83720000Y-71960000D02*
X83720000Y-71630000D01*
X77180000Y-71630000D02*
X77180000Y-71960000D01*
X88820000Y-76880000D02*
X88820000Y-76550000D01*
X95360000Y-74140000D02*
X88820000Y-74140000D01*
X95360000Y-76880000D02*
X88820000Y-76880000D01*
X95360000Y-76550000D02*
X95360000Y-76880000D01*
X95360000Y-74470000D02*
X95360000Y-74140000D01*
X88820000Y-74140000D02*
X88820000Y-74470000D01*
X104400000Y-73350000D02*
X104730000Y-73350000D01*
X107140000Y-79890000D02*
X107140000Y-73350000D01*
X104400000Y-79890000D02*
X104400000Y-73350000D01*
X104730000Y-79890000D02*
X104400000Y-79890000D01*
X106810000Y-79890000D02*
X107140000Y-79890000D01*
X107140000Y-73350000D02*
X106810000Y-73350000D01*
X113440000Y-73330000D02*
X113110000Y-73330000D01*
X113110000Y-79870000D02*
X113440000Y-79870000D01*
X111030000Y-79870000D02*
X110700000Y-79870000D01*
X110700000Y-79870000D02*
X110700000Y-73330000D01*
X113440000Y-79870000D02*
X113440000Y-73330000D01*
X110700000Y-73330000D02*
X111030000Y-73330000D01*
X66630000Y-73040000D02*
X66960000Y-73040000D01*
X69370000Y-79580000D02*
X69370000Y-73040000D01*
X66630000Y-79580000D02*
X66630000Y-73040000D01*
X66960000Y-79580000D02*
X66630000Y-79580000D01*
X69040000Y-79580000D02*
X69370000Y-79580000D01*
X69370000Y-73040000D02*
X69040000Y-73040000D01*
X74590000Y-80970000D02*
X74590000Y-80640000D01*
X81130000Y-78230000D02*
X74590000Y-78230000D01*
X81130000Y-80970000D02*
X74590000Y-80970000D01*
X81130000Y-80640000D02*
X81130000Y-80970000D01*
X81130000Y-78560000D02*
X81130000Y-78230000D01*
X74590000Y-78230000D02*
X74590000Y-78560000D01*
X78100000Y-77500000D02*
X78100000Y-77170000D01*
X84640000Y-74760000D02*
X78100000Y-74760000D01*
X84640000Y-77500000D02*
X78100000Y-77500000D01*
X84640000Y-77170000D02*
X84640000Y-77500000D01*
X84640000Y-75090000D02*
X84640000Y-74760000D01*
X78100000Y-74760000D02*
X78100000Y-75090000D01*
X88860000Y-80230000D02*
X88860000Y-79900000D01*
X95400000Y-77490000D02*
X88860000Y-77490000D01*
X95400000Y-80230000D02*
X88860000Y-80230000D01*
X95400000Y-79900000D02*
X95400000Y-80230000D01*
X95400000Y-77820000D02*
X95400000Y-77490000D01*
X88860000Y-77490000D02*
X88860000Y-77820000D01*
X54316000Y-83605000D02*
X54316000Y-83920000D01*
X59556000Y-81180000D02*
X54316000Y-81180000D01*
X59556000Y-83920000D02*
X54316000Y-83920000D01*
X54316000Y-81180000D02*
X54316000Y-81495000D01*
X59556000Y-83605000D02*
X59556000Y-83920000D01*
X59556000Y-81180000D02*
X59556000Y-81495000D01*
X70930000Y-27550000D02*
X69600000Y-27550000D01*
X74800000Y-27550000D02*
X74800000Y-30210000D01*
X72200000Y-27550000D02*
X74800000Y-27550000D01*
X72200000Y-27550000D02*
X72200000Y-30210000D01*
X69600000Y-27550000D02*
X69600000Y-28880000D01*
X72200000Y-30210000D02*
X74800000Y-30210000D01*
X82530000Y-30210000D02*
X83860000Y-30210000D01*
X78660000Y-30210000D02*
X78660000Y-27550000D01*
X81260000Y-30210000D02*
X78660000Y-30210000D01*
X81260000Y-30210000D02*
X81260000Y-27550000D01*
X83860000Y-30210000D02*
X83860000Y-28880000D01*
X81260000Y-27550000D02*
X78660000Y-27550000D01*
X54695000Y-69895000D02*
X54695000Y-51995000D01*
X54755000Y-67405000D02*
X54755000Y-61945000D01*
X105675000Y-67405000D02*
X54755000Y-67405000D01*
X105735000Y-69895000D02*
X54695000Y-69895000D01*
X54755000Y-54485000D02*
X105675000Y-54485000D01*
X54755000Y-59945000D02*
X54755000Y-54485000D01*
X54695000Y-51995000D02*
X105735000Y-51995000D01*
X105675000Y-54485000D02*
X105675000Y-67405000D01*
X105735000Y-51995000D02*
X105735000Y-69895000D01*
X54755000Y-61945000D02*
G75*
G03*
X54755000Y-59945000I0J1000000D01*
G01*
X89890000Y-70940000D02*
X95130000Y-70940000D01*
X89890000Y-73680000D02*
X89890000Y-73365000D01*
X89890000Y-71255000D02*
X89890000Y-70940000D01*
X95130000Y-71255000D02*
X95130000Y-70940000D01*
X89890000Y-73680000D02*
X95130000Y-73680000D01*
X95130000Y-73680000D02*
X95130000Y-73365000D01*
M02*
