G04 #@! TF.GenerationSoftware,KiCad,Pcbnew,(6.0.2)*
G04 #@! TF.CreationDate,2022-07-02T16:06:33-05:00*
G04 #@! TF.ProjectId,Apple2Card,4170706c-6532-4436-9172-642e6b696361,rev?*
G04 #@! TF.SameCoordinates,Original*
G04 #@! TF.FileFunction,Copper,L2,Bot*
G04 #@! TF.FilePolarity,Positive*
%FSLAX46Y46*%
G04 Gerber Fmt 4.6, Leading zero omitted, Abs format (unit mm)*
G04 Created by KiCad (PCBNEW (6.0.2)) date 2022-07-02 16:06:33*
%MOMM*%
%LPD*%
G01*
G04 APERTURE LIST*
G04 #@! TA.AperFunction,ComponentPad*
%ADD10R,1.600000X1.600000*%
G04 #@! TD*
G04 #@! TA.AperFunction,ComponentPad*
%ADD11O,1.600000X1.600000*%
G04 #@! TD*
G04 #@! TA.AperFunction,ComponentPad*
%ADD12C,1.600000*%
G04 #@! TD*
G04 #@! TA.AperFunction,ComponentPad*
%ADD13R,1.700000X1.700000*%
G04 #@! TD*
G04 #@! TA.AperFunction,ComponentPad*
%ADD14O,1.700000X1.700000*%
G04 #@! TD*
G04 #@! TA.AperFunction,SMDPad,CuDef*
%ADD15R,1.910000X8.530000*%
G04 #@! TD*
G04 #@! TA.AperFunction,SMDPad,CuDef*
%ADD16R,1.270000X8.530000*%
G04 #@! TD*
G04 #@! TA.AperFunction,ViaPad*
%ADD17C,0.800000*%
G04 #@! TD*
G04 #@! TA.AperFunction,Conductor*
%ADD18C,0.350000*%
G04 #@! TD*
G04 APERTURE END LIST*
D10*
X185880000Y-57490000D03*
D11*
X185880000Y-49870000D03*
D12*
X131500000Y-33630000D03*
D11*
X139120000Y-33630000D03*
D13*
X178010000Y-54640000D03*
D14*
X178010000Y-52100000D03*
D12*
X142100000Y-35130000D03*
X147100000Y-35130000D03*
X142810000Y-58930000D03*
X142810000Y-63930000D03*
D13*
X114555000Y-34890000D03*
D14*
X117095000Y-34890000D03*
D12*
X140100000Y-43220000D03*
D11*
X147720000Y-43220000D03*
D13*
X155920000Y-45720000D03*
D14*
X153380000Y-45720000D03*
D10*
X71525000Y-36790000D03*
D11*
X74065000Y-36790000D03*
X76605000Y-36790000D03*
X79145000Y-36790000D03*
X81685000Y-36790000D03*
X84225000Y-36790000D03*
X86765000Y-36790000D03*
X89305000Y-36790000D03*
X94385000Y-36790000D03*
X96925000Y-36790000D03*
X99465000Y-36790000D03*
X102005000Y-36790000D03*
X104545000Y-36790000D03*
X107085000Y-36790000D03*
X107085000Y-85050000D03*
X104545000Y-85050000D03*
X102005000Y-85050000D03*
X99465000Y-85050000D03*
X96925000Y-85050000D03*
X94385000Y-85050000D03*
X91845000Y-85050000D03*
X89305000Y-85050000D03*
X85245000Y-85050000D03*
X82705000Y-85050000D03*
X80165000Y-85050000D03*
X77625000Y-85050000D03*
X75085000Y-85050000D03*
X72545000Y-85050000D03*
X70005000Y-85050000D03*
X67465000Y-85050000D03*
X64925000Y-85050000D03*
X62385000Y-85050000D03*
D12*
X140050000Y-56310000D03*
D11*
X147670000Y-56310000D03*
D15*
X181864000Y-99060000D03*
D16*
X179070000Y-99060000D03*
X176530000Y-99060000D03*
X173990000Y-99060000D03*
X171450000Y-99060000D03*
X168910000Y-99060000D03*
X166370000Y-99060000D03*
X163830000Y-99060000D03*
X161290000Y-99060000D03*
X158750000Y-99060000D03*
X156210000Y-99060000D03*
X153670000Y-99060000D03*
X151130000Y-99060000D03*
X148590000Y-99060000D03*
X146050000Y-99060000D03*
X143510000Y-99060000D03*
X140970000Y-99060000D03*
X138430000Y-99060000D03*
X135890000Y-99060000D03*
X133350000Y-99060000D03*
X130810000Y-99060000D03*
X128270000Y-99060000D03*
X125730000Y-99060000D03*
X123190000Y-99060000D03*
D15*
X120396000Y-99060000D03*
D13*
X155885000Y-41970000D03*
D14*
X153345000Y-41970000D03*
D13*
X120396000Y-86614000D03*
D14*
X122936000Y-86614000D03*
X125476000Y-86614000D03*
X128016000Y-86614000D03*
X130556000Y-86614000D03*
X133096000Y-86614000D03*
X135636000Y-86614000D03*
X138176000Y-86614000D03*
X140716000Y-86614000D03*
X143256000Y-86614000D03*
X145796000Y-86614000D03*
X148336000Y-86614000D03*
X150876000Y-86614000D03*
X153416000Y-86614000D03*
X155956000Y-86614000D03*
X158496000Y-86614000D03*
X161036000Y-86614000D03*
X163576000Y-86614000D03*
X166116000Y-86614000D03*
X168656000Y-86614000D03*
X171196000Y-86614000D03*
X173736000Y-86614000D03*
X176276000Y-86614000D03*
X178816000Y-86614000D03*
X181356000Y-86614000D03*
D13*
X119130000Y-78510000D03*
D14*
X121670000Y-78510000D03*
X124210000Y-78510000D03*
X126750000Y-78510000D03*
X129290000Y-78510000D03*
X131830000Y-78510000D03*
X134370000Y-78510000D03*
X136910000Y-78510000D03*
X139450000Y-78510000D03*
X141990000Y-78510000D03*
X144530000Y-78510000D03*
X147070000Y-78510000D03*
X149610000Y-78510000D03*
X152150000Y-78510000D03*
X154690000Y-78510000D03*
X157230000Y-78510000D03*
X159770000Y-78510000D03*
X162310000Y-78510000D03*
X164850000Y-78510000D03*
X167390000Y-78510000D03*
X169930000Y-78510000D03*
X172470000Y-78510000D03*
X175010000Y-78510000D03*
X177550000Y-78510000D03*
X180090000Y-78510000D03*
D13*
X155900000Y-53240000D03*
D14*
X153360000Y-53240000D03*
D12*
X140060000Y-50050000D03*
D11*
X147680000Y-50050000D03*
D12*
X121300000Y-33660000D03*
D11*
X128920000Y-33660000D03*
D10*
X147066000Y-69342000D03*
D11*
X149606000Y-69342000D03*
X152146000Y-69342000D03*
X154686000Y-69342000D03*
X157226000Y-69342000D03*
X159766000Y-69342000D03*
X162306000Y-69342000D03*
X162306000Y-61722000D03*
X159766000Y-61722000D03*
X157226000Y-61722000D03*
X154686000Y-61722000D03*
X152146000Y-61722000D03*
X149606000Y-61722000D03*
X147066000Y-61722000D03*
D10*
X170429000Y-69586000D03*
D11*
X172969000Y-69586000D03*
X175509000Y-69586000D03*
X178049000Y-69586000D03*
X180589000Y-69586000D03*
X183129000Y-69586000D03*
X185669000Y-69586000D03*
X185669000Y-61966000D03*
X183129000Y-61966000D03*
X180589000Y-61966000D03*
X178049000Y-61966000D03*
X175509000Y-61966000D03*
X172969000Y-61966000D03*
X170429000Y-61966000D03*
D12*
X140060000Y-46890000D03*
D11*
X147680000Y-46890000D03*
D12*
X140060000Y-53210000D03*
D11*
X147680000Y-53210000D03*
D13*
X155910000Y-49490000D03*
D14*
X153370000Y-49490000D03*
D12*
X147630000Y-38740000D03*
D11*
X140010000Y-38740000D03*
D14*
X57510000Y-85050000D03*
D13*
X54765000Y-85050000D03*
D10*
X121235000Y-38515000D03*
D11*
X121235000Y-41055000D03*
X121235000Y-43595000D03*
X121235000Y-46135000D03*
X121235000Y-48675000D03*
X121235000Y-51215000D03*
X121235000Y-53755000D03*
X121235000Y-56295000D03*
X121235000Y-58835000D03*
X121235000Y-61375000D03*
X121235000Y-63915000D03*
X121235000Y-66455000D03*
X121235000Y-68995000D03*
X121235000Y-71535000D03*
X136475000Y-71535000D03*
X136475000Y-68995000D03*
X136475000Y-66455000D03*
X136475000Y-63915000D03*
X136475000Y-61375000D03*
X136475000Y-58835000D03*
X136475000Y-56295000D03*
X136475000Y-53755000D03*
X136475000Y-51215000D03*
X136475000Y-48675000D03*
X136475000Y-46135000D03*
X136475000Y-43595000D03*
X136475000Y-41055000D03*
X136475000Y-38515000D03*
D13*
X114515000Y-38660000D03*
D14*
X117055000Y-38660000D03*
D13*
X155865000Y-57070000D03*
D14*
X153325000Y-57070000D03*
D12*
X166920000Y-62150000D03*
X166920000Y-57150000D03*
D10*
X172620000Y-54190000D03*
D12*
X172620000Y-51690000D03*
D13*
X70930000Y-28880000D03*
D14*
X73470000Y-28880000D03*
D12*
X98000000Y-48650000D03*
D11*
X98000000Y-41030000D03*
D12*
X94650000Y-48625000D03*
D11*
X94650000Y-41005000D03*
D12*
X68000000Y-80120000D03*
D11*
X68000000Y-72500000D03*
D12*
X95940000Y-78860000D03*
D11*
X88320000Y-78860000D03*
D13*
X82530000Y-28880000D03*
D14*
X79990000Y-28880000D03*
D12*
X112070000Y-80410000D03*
D11*
X112070000Y-72790000D03*
D12*
X108860000Y-80430000D03*
D11*
X108860000Y-72810000D03*
D12*
X88075000Y-48635000D03*
D11*
X88075000Y-41015000D03*
D12*
X71225000Y-80120000D03*
D11*
X71225000Y-72500000D03*
D12*
X104625000Y-48700000D03*
D11*
X104625000Y-41080000D03*
D12*
X99500000Y-72670000D03*
D11*
X99500000Y-80290000D03*
D12*
X58410000Y-45730000D03*
D11*
X66030000Y-45730000D03*
D12*
X60770000Y-81330000D03*
X55770000Y-81330000D03*
X105770000Y-80430000D03*
D11*
X105770000Y-72810000D03*
D12*
X62080000Y-49150000D03*
D11*
X69700000Y-49150000D03*
D12*
X81670000Y-79600000D03*
D11*
X74050000Y-79600000D03*
D12*
X62170000Y-75110000D03*
D11*
X54550000Y-75110000D03*
D10*
X56085000Y-53325000D03*
D11*
X58625000Y-53325000D03*
X61165000Y-53325000D03*
X63705000Y-53325000D03*
X66245000Y-53325000D03*
X68785000Y-53325000D03*
X71325000Y-53325000D03*
X73865000Y-53325000D03*
X76405000Y-53325000D03*
X78945000Y-53325000D03*
X81485000Y-53325000D03*
X84025000Y-53325000D03*
X86565000Y-53325000D03*
X89105000Y-53325000D03*
X91645000Y-53325000D03*
X94185000Y-53325000D03*
X96725000Y-53325000D03*
X99265000Y-53325000D03*
X101805000Y-53325000D03*
X104345000Y-53325000D03*
X104345000Y-68565000D03*
X101805000Y-68565000D03*
X99265000Y-68565000D03*
X96725000Y-68565000D03*
X94185000Y-68565000D03*
X91645000Y-68565000D03*
X89105000Y-68565000D03*
X86565000Y-68565000D03*
X84025000Y-68565000D03*
X81485000Y-68565000D03*
X78945000Y-68565000D03*
X76405000Y-68565000D03*
X73865000Y-68565000D03*
X71325000Y-68565000D03*
X68785000Y-68565000D03*
X66245000Y-68565000D03*
X63705000Y-68565000D03*
X61165000Y-68565000D03*
X58625000Y-68565000D03*
X56085000Y-68565000D03*
D12*
X62110000Y-78270000D03*
D11*
X54490000Y-78270000D03*
D12*
X85180000Y-76130000D03*
D11*
X77560000Y-76130000D03*
D12*
X64830000Y-80050000D03*
D11*
X64830000Y-72430000D03*
D12*
X84260000Y-73000000D03*
D11*
X76640000Y-73000000D03*
D12*
X62160000Y-71990000D03*
D11*
X54540000Y-71990000D03*
D12*
X70610000Y-45810000D03*
D11*
X78230000Y-45810000D03*
D12*
X95900000Y-75510000D03*
D11*
X88280000Y-75510000D03*
D12*
X91375000Y-48635000D03*
D11*
X91375000Y-41015000D03*
D12*
X101225000Y-48725000D03*
D11*
X101225000Y-41105000D03*
D12*
X70570000Y-42810000D03*
D11*
X78190000Y-42810000D03*
D12*
X90010000Y-72310000D03*
X95010000Y-72310000D03*
X102680000Y-72810000D03*
D11*
X102680000Y-80430000D03*
D17*
X143256000Y-72898000D03*
X143000000Y-84680000D03*
X180950000Y-82020000D03*
X115950000Y-81880000D03*
X111770000Y-66290000D03*
X113500000Y-66260000D03*
X114920000Y-66290000D03*
X116210000Y-66300000D03*
X117590000Y-66210000D03*
X121570000Y-73350000D03*
X118750000Y-65460000D03*
X118920000Y-63650000D03*
X122820000Y-74280000D03*
X108320000Y-43310000D03*
X162070000Y-34930000D03*
X161560000Y-42450000D03*
X109640000Y-43360000D03*
X74080000Y-58330000D03*
X159630000Y-45420000D03*
X109920000Y-48710000D03*
X72730000Y-58350000D03*
X110010000Y-50270000D03*
X71500000Y-58310000D03*
X157360000Y-36740000D03*
X118210000Y-54900000D03*
X110140000Y-44970000D03*
X161490000Y-46850000D03*
X151010000Y-84460000D03*
X92930000Y-66720000D03*
X117420000Y-84590000D03*
X75470000Y-63110000D03*
X158650000Y-81180000D03*
X116340000Y-80530000D03*
X168610000Y-79910000D03*
X116880000Y-79280000D03*
X87870000Y-64950000D03*
X90120000Y-63850000D03*
X72890000Y-65140000D03*
X70050000Y-66990000D03*
X74430000Y-64070000D03*
X71620000Y-66140000D03*
D18*
X51350000Y-72140000D02*
X50330000Y-72140000D01*
X53890000Y-51700000D02*
X53890000Y-69600000D01*
X55060000Y-50530000D02*
X53890000Y-51700000D01*
X62080000Y-49150000D02*
X60700000Y-50530000D01*
X60700000Y-50530000D02*
X55060000Y-50530000D01*
X53890000Y-69600000D02*
X51350000Y-72140000D01*
X50330000Y-72140000D02*
X49810000Y-72660000D01*
X49810000Y-72660000D02*
X49810000Y-83380000D01*
X49810000Y-83380000D02*
X51480000Y-85050000D01*
X51480000Y-85050000D02*
X54765000Y-85050000D01*
X57510000Y-85050000D02*
X57510000Y-85830000D01*
X57510000Y-85830000D02*
X56350000Y-86990000D01*
X56350000Y-86990000D02*
X52050000Y-86990000D01*
X52050000Y-86990000D02*
X49080000Y-84020000D01*
X49080000Y-84020000D02*
X49080000Y-71140000D01*
X49080000Y-71140000D02*
X50450000Y-69770000D01*
X50450000Y-69770000D02*
X51390000Y-69770000D01*
X51390000Y-69770000D02*
X52690000Y-68470000D01*
X52690000Y-68470000D02*
X52690000Y-50710000D01*
X52690000Y-50710000D02*
X54010000Y-49390000D01*
X54010000Y-49390000D02*
X57440000Y-49390000D01*
X57440000Y-49390000D02*
X58410000Y-48420000D01*
X58410000Y-48420000D02*
X58410000Y-45730000D01*
X63745000Y-81330000D02*
X67465000Y-85050000D01*
X60770000Y-81330000D02*
X63745000Y-81330000D01*
X60100000Y-71750000D02*
X63285000Y-68565000D01*
X60100000Y-78390000D02*
X60100000Y-71750000D01*
X63285000Y-68565000D02*
X63705000Y-68565000D01*
X62685000Y-79910000D02*
X61620000Y-79910000D01*
X64170000Y-78425000D02*
X62685000Y-79910000D01*
X61620000Y-79910000D02*
X60100000Y-78390000D01*
X72875000Y-78425000D02*
X64170000Y-78425000D01*
X74050000Y-79600000D02*
X72875000Y-78425000D01*
X55485000Y-78270000D02*
X54490000Y-78270000D01*
X59200000Y-74555000D02*
X55485000Y-78270000D01*
X59200000Y-70530000D02*
X59200000Y-74555000D01*
X61165000Y-68565000D02*
X59200000Y-70530000D01*
X63425000Y-76955000D02*
X62110000Y-78270000D01*
X63425000Y-76400000D02*
X63425000Y-76955000D01*
X64050000Y-75775000D02*
X63425000Y-76400000D01*
X72995000Y-75775000D02*
X64050000Y-75775000D01*
X82298000Y-77980000D02*
X75200000Y-77980000D01*
X87288000Y-82970000D02*
X82298000Y-77980000D01*
X91845000Y-84155000D02*
X90660000Y-82970000D01*
X91845000Y-85050000D02*
X91845000Y-84155000D01*
X75200000Y-77980000D02*
X72995000Y-75775000D01*
X90660000Y-82970000D02*
X87288000Y-82970000D01*
X55395000Y-75110000D02*
X54550000Y-75110000D01*
X58625000Y-68565000D02*
X58400000Y-68790000D01*
X58400000Y-72105000D02*
X55395000Y-75110000D01*
X63837862Y-74840000D02*
X63857382Y-74859520D01*
X62440000Y-74840000D02*
X63837862Y-74840000D01*
X62170000Y-75110000D02*
X62440000Y-74840000D01*
X58400000Y-68790000D02*
X58400000Y-72105000D01*
X56085000Y-70445000D02*
X54540000Y-71990000D01*
X56085000Y-68565000D02*
X56085000Y-70445000D01*
X64200000Y-74030000D02*
X62160000Y-71990000D01*
X72120000Y-74030000D02*
X64200000Y-74030000D01*
X78559520Y-71509520D02*
X74640480Y-71509520D01*
X87640000Y-80590000D02*
X78559520Y-71509520D01*
X91160000Y-80590000D02*
X87640000Y-80590000D01*
X93840000Y-83270000D02*
X91160000Y-80590000D01*
X95145000Y-83270000D02*
X93840000Y-83270000D01*
X74640480Y-71509520D02*
X72120000Y-74030000D01*
X96925000Y-85050000D02*
X95145000Y-83270000D01*
X81485000Y-88810000D02*
X85245000Y-85050000D01*
X50130000Y-88810000D02*
X81485000Y-88810000D01*
X51300000Y-40840000D02*
X47540000Y-44600000D01*
X68600000Y-40840000D02*
X51300000Y-40840000D01*
X70570000Y-42810000D02*
X68600000Y-40840000D01*
X47540000Y-44600000D02*
X47540000Y-86220000D01*
X47540000Y-86220000D02*
X50130000Y-88810000D01*
X75085000Y-85605000D02*
X75085000Y-85050000D01*
X72820000Y-87870000D02*
X75085000Y-85605000D01*
X48340000Y-85420000D02*
X50790000Y-87870000D01*
X48340000Y-45290000D02*
X48340000Y-85420000D01*
X51850000Y-41780000D02*
X48340000Y-45290000D01*
X50790000Y-87870000D02*
X72820000Y-87870000D01*
X66580000Y-41780000D02*
X51850000Y-41780000D01*
X70610000Y-45810000D02*
X66580000Y-41780000D01*
X67950000Y-45730000D02*
X66030000Y-45730000D01*
X73600000Y-47400000D02*
X69620000Y-47400000D01*
X78190000Y-42810000D02*
X73600000Y-47400000D01*
X69620000Y-47400000D02*
X67950000Y-45730000D01*
X70690000Y-48080000D02*
X75960000Y-48080000D01*
X70690000Y-48080000D02*
X69700000Y-49070000D01*
X69700000Y-49070000D02*
X69700000Y-49150000D01*
X143256000Y-72898000D02*
X143270000Y-72912000D01*
X143270000Y-84410000D02*
X143000000Y-84680000D01*
X143270000Y-72912000D02*
X143270000Y-84410000D01*
X123325000Y-61375000D02*
X121235000Y-61375000D01*
X124030000Y-75420000D02*
X124030000Y-62080000D01*
X119865000Y-61375000D02*
X114370000Y-55880000D01*
X122936000Y-86614000D02*
X122936000Y-76514000D01*
X122936000Y-76514000D02*
X124030000Y-75420000D01*
X124030000Y-62080000D02*
X123325000Y-61375000D01*
X121235000Y-61375000D02*
X119865000Y-61375000D01*
X114370000Y-55880000D02*
X77880000Y-55880000D01*
X77880000Y-55880000D02*
X76405000Y-54405000D01*
X76405000Y-54405000D02*
X76405000Y-53325000D01*
X124780000Y-72510000D02*
X124780000Y-60680000D01*
X122935000Y-58835000D02*
X121235000Y-58835000D01*
X73865000Y-51895000D02*
X73865000Y-53325000D01*
X77700000Y-52480000D02*
X76650000Y-51430000D01*
X78270000Y-55060000D02*
X77700000Y-54490000D01*
X76650000Y-51430000D02*
X74330000Y-51430000D01*
X124780000Y-60680000D02*
X122935000Y-58835000D01*
X119905000Y-58835000D02*
X116130000Y-55060000D01*
X116130000Y-55060000D02*
X78270000Y-55060000D01*
X77700000Y-54490000D02*
X77700000Y-52480000D01*
X74330000Y-51430000D02*
X73865000Y-51895000D01*
X125476000Y-86614000D02*
X125476000Y-73206000D01*
X125476000Y-73206000D02*
X124780000Y-72510000D01*
X121235000Y-58835000D02*
X119905000Y-58835000D01*
X125630000Y-71750000D02*
X125630000Y-58420000D01*
X125630000Y-58420000D02*
X123505000Y-56295000D01*
X128016000Y-74136000D02*
X125630000Y-71750000D01*
X128016000Y-86614000D02*
X128016000Y-74136000D01*
X123505000Y-56295000D02*
X121235000Y-56295000D01*
X130556000Y-86614000D02*
X130556000Y-74896000D01*
X126480000Y-70820000D02*
X126480000Y-55210000D01*
X130556000Y-74896000D02*
X126480000Y-70820000D01*
X125025000Y-53755000D02*
X121235000Y-53755000D01*
X126480000Y-55210000D02*
X125025000Y-53755000D01*
X133096000Y-86614000D02*
X133096000Y-75806000D01*
X128370000Y-53340000D02*
X126245000Y-51215000D01*
X128370000Y-71080000D02*
X128370000Y-53340000D01*
X126245000Y-51215000D02*
X121235000Y-51215000D01*
X133096000Y-75806000D02*
X128370000Y-71080000D01*
X135636000Y-86614000D02*
X135636000Y-75536000D01*
X130500000Y-51730000D02*
X127445000Y-48675000D01*
X127445000Y-48675000D02*
X121235000Y-48675000D01*
X133860000Y-75250000D02*
X130500000Y-71890000D01*
X135636000Y-75536000D02*
X135350000Y-75250000D01*
X135350000Y-75250000D02*
X133860000Y-75250000D01*
X130500000Y-71890000D02*
X130500000Y-51730000D01*
X132190000Y-49870000D02*
X128020000Y-45700000D01*
X121660000Y-45710000D02*
X121235000Y-46135000D01*
X134490000Y-74430000D02*
X132680000Y-72620000D01*
X138176000Y-86614000D02*
X138176000Y-75096000D01*
X128020000Y-45700000D02*
X122040000Y-45700000D01*
X122030000Y-45710000D02*
X121660000Y-45710000D01*
X132190000Y-61925325D02*
X132190000Y-49870000D01*
X138176000Y-75096000D02*
X137510000Y-74430000D01*
X137510000Y-74430000D02*
X134490000Y-74430000D01*
X132680000Y-72620000D02*
X132680000Y-62415325D01*
X132680000Y-62415325D02*
X132190000Y-61925325D01*
X122040000Y-45700000D02*
X122030000Y-45710000D01*
X134710000Y-69959040D02*
X134710000Y-60250000D01*
X129825000Y-43595000D02*
X121235000Y-43595000D01*
X134120000Y-59660000D02*
X134120000Y-47890000D01*
X140716000Y-74986000D02*
X139310000Y-73580000D01*
X134710000Y-60250000D02*
X134120000Y-59660000D01*
X139310000Y-73580000D02*
X135370000Y-73580000D01*
X133229520Y-71439520D02*
X134710000Y-69959040D01*
X140716000Y-86614000D02*
X140716000Y-74986000D01*
X134120000Y-47890000D02*
X129825000Y-43595000D01*
X135370000Y-73580000D02*
X133229520Y-71439520D01*
X163576000Y-76439000D02*
X170429000Y-69586000D01*
X157226000Y-69342000D02*
X159248000Y-67320000D01*
X163576000Y-86614000D02*
X163576000Y-76439000D01*
X170429000Y-69586000D02*
X170429000Y-68529000D01*
X172969000Y-69586000D02*
X170429000Y-69586000D01*
X159248000Y-67320000D02*
X169220000Y-67320000D01*
X170429000Y-68529000D02*
X169220000Y-67320000D01*
X175006000Y-86494000D02*
X175006000Y-89408000D01*
X175006000Y-86494000D02*
X175006000Y-81394000D01*
X175006000Y-81394000D02*
X175010000Y-81390000D01*
X176530000Y-90932000D02*
X176530000Y-99060000D01*
X176276000Y-86614000D02*
X175126000Y-86614000D01*
X175006000Y-89408000D02*
X176530000Y-90932000D01*
X175126000Y-86614000D02*
X175006000Y-86494000D01*
X175010000Y-81390000D02*
X175010000Y-78510000D01*
X177594000Y-86614000D02*
X178816000Y-86614000D01*
X177540000Y-86560000D02*
X177540000Y-78520000D01*
X177540000Y-89656000D02*
X179070000Y-91186000D01*
X179070000Y-91186000D02*
X179070000Y-99060000D01*
X177540000Y-86560000D02*
X177594000Y-86614000D01*
X177540000Y-78520000D02*
X177550000Y-78510000D01*
X177540000Y-86560000D02*
X177540000Y-89656000D01*
X114880000Y-80810000D02*
X114880000Y-71130000D01*
X184000000Y-32730000D02*
X184000000Y-53380000D01*
X158770000Y-46060000D02*
X158770000Y-40500000D01*
X148430000Y-63660000D02*
X163180000Y-63660000D01*
X142810000Y-58930000D02*
X144274000Y-58930000D01*
X169780000Y-26840000D02*
X170300000Y-27360000D01*
X167104000Y-61966000D02*
X166920000Y-62150000D01*
X114880000Y-71130000D02*
X112960000Y-69210000D01*
X181316000Y-53380000D02*
X181316000Y-52846000D01*
X115950000Y-81880000D02*
X114880000Y-80810000D01*
X170429000Y-56061000D02*
X172300000Y-54190000D01*
X166300000Y-61530000D02*
X166920000Y-62150000D01*
X172300000Y-54190000D02*
X172620000Y-54190000D01*
X178630000Y-27360000D02*
X184000000Y-32730000D01*
X170429000Y-61966000D02*
X170429000Y-56061000D01*
X148020000Y-39130000D02*
X147630000Y-38740000D01*
X163180000Y-63660000D02*
X165310000Y-61530000D01*
X181306000Y-53390000D02*
X173420000Y-53390000D01*
X144020000Y-35130000D02*
X147630000Y-38740000D01*
X91645000Y-66235000D02*
X91645000Y-68565000D01*
X185920000Y-53380000D02*
X184000000Y-53380000D01*
X144274000Y-58930000D02*
X147066000Y-61722000D01*
X181316000Y-52846000D02*
X177360000Y-48890000D01*
X181356000Y-86614000D02*
X189290000Y-78680000D01*
X181356000Y-82426000D02*
X181356000Y-86614000D01*
X136475000Y-38515000D02*
X139860000Y-35130000D01*
X110340000Y-69210000D02*
X106820000Y-65690000D01*
X147066000Y-61722000D02*
X147066000Y-62296000D01*
X180950000Y-82020000D02*
X181356000Y-82426000D01*
X157400000Y-39130000D02*
X148020000Y-39130000D01*
X92190000Y-65690000D02*
X91645000Y-66235000D01*
X91645000Y-70675000D02*
X90010000Y-72310000D01*
X142100000Y-35130000D02*
X144020000Y-35130000D01*
X82530000Y-28880000D02*
X84570000Y-26840000D01*
X91645000Y-68565000D02*
X91645000Y-70675000D01*
X165310000Y-61530000D02*
X166300000Y-61530000D01*
X139860000Y-35130000D02*
X142100000Y-35130000D01*
X158770000Y-40500000D02*
X157400000Y-39130000D01*
X177360000Y-48890000D02*
X161600000Y-48890000D01*
X112960000Y-69210000D02*
X110340000Y-69210000D01*
X147066000Y-62296000D02*
X148430000Y-63660000D01*
X173420000Y-53390000D02*
X172620000Y-54190000D01*
X170300000Y-27360000D02*
X178630000Y-27360000D01*
X170429000Y-61966000D02*
X167104000Y-61966000D01*
X184000000Y-53380000D02*
X181316000Y-53380000D01*
X189290000Y-78680000D02*
X189290000Y-56750000D01*
X189290000Y-56750000D02*
X185920000Y-53380000D01*
X161600000Y-48890000D02*
X158770000Y-46060000D01*
X106820000Y-65690000D02*
X92190000Y-65690000D01*
X181316000Y-53380000D02*
X181306000Y-53390000D01*
X84570000Y-26840000D02*
X169780000Y-26840000D01*
X180090000Y-89412000D02*
X180090000Y-78510000D01*
X181864000Y-99060000D02*
X181864000Y-91186000D01*
X181864000Y-91186000D02*
X180090000Y-89412000D01*
X172470000Y-81095000D02*
X172470000Y-78510000D01*
X173990000Y-99060000D02*
X173990000Y-91694000D01*
X172480000Y-90184000D02*
X172480000Y-81105000D01*
X172480000Y-81105000D02*
X172470000Y-81095000D01*
X173990000Y-91694000D02*
X172480000Y-90184000D01*
X171450000Y-90932000D02*
X169940000Y-89422000D01*
X169940000Y-89422000D02*
X169940000Y-78520000D01*
X171450000Y-99060000D02*
X171450000Y-90932000D01*
X169940000Y-78520000D02*
X169930000Y-78510000D01*
X175815000Y-71820000D02*
X178049000Y-69586000D01*
X167390000Y-89360000D02*
X168910000Y-90880000D01*
X178049000Y-69586000D02*
X180589000Y-69586000D01*
X167390000Y-75650000D02*
X171220000Y-71820000D01*
X167390000Y-78510000D02*
X167390000Y-75650000D01*
X171220000Y-71820000D02*
X175815000Y-71820000D01*
X168910000Y-90880000D02*
X168910000Y-99060000D01*
X167390000Y-78510000D02*
X167390000Y-89360000D01*
X164850000Y-89666000D02*
X164850000Y-78510000D01*
X166370000Y-99060000D02*
X166370000Y-91186000D01*
X166370000Y-91186000D02*
X164850000Y-89666000D01*
X163830000Y-91440000D02*
X162310000Y-89920000D01*
X163830000Y-99060000D02*
X163830000Y-91440000D01*
X162310000Y-89920000D02*
X162310000Y-78510000D01*
X159760000Y-80710000D02*
X159770000Y-80700000D01*
X161290000Y-91186000D02*
X159760000Y-89656000D01*
X161290000Y-99060000D02*
X161290000Y-91186000D01*
X159770000Y-80700000D02*
X159770000Y-78510000D01*
X159760000Y-89656000D02*
X159760000Y-80710000D01*
X157230000Y-80990000D02*
X157230000Y-78510000D01*
X157210000Y-81010000D02*
X157230000Y-80990000D01*
X158750000Y-90678000D02*
X157210000Y-89138000D01*
X157210000Y-89138000D02*
X157210000Y-81010000D01*
X158750000Y-99060000D02*
X158750000Y-90678000D01*
X156210000Y-99060000D02*
X156210000Y-91186000D01*
X154700000Y-89676000D02*
X154700000Y-78520000D01*
X156210000Y-91186000D02*
X154700000Y-89676000D01*
X154700000Y-78520000D02*
X154690000Y-78510000D01*
X153670000Y-91186000D02*
X152160000Y-89676000D01*
X153670000Y-99060000D02*
X153670000Y-91186000D01*
X152160000Y-89676000D02*
X152160000Y-78520000D01*
X152160000Y-78520000D02*
X152150000Y-78510000D01*
X151130000Y-90170000D02*
X149610000Y-88650000D01*
X151130000Y-99060000D02*
X151130000Y-90170000D01*
X149610000Y-88650000D02*
X149610000Y-78510000D01*
X147070000Y-80910000D02*
X147070000Y-78510000D01*
X148590000Y-90424000D02*
X147080000Y-88914000D01*
X147080000Y-88914000D02*
X147080000Y-80920000D01*
X147080000Y-80920000D02*
X147070000Y-80910000D01*
X148590000Y-99060000D02*
X148590000Y-90424000D01*
X144520000Y-78520000D02*
X144530000Y-78510000D01*
X144520000Y-89402000D02*
X144520000Y-78520000D01*
X146050000Y-99060000D02*
X146050000Y-90932000D01*
X146050000Y-90932000D02*
X144520000Y-89402000D01*
X141980000Y-89402000D02*
X141980000Y-81030000D01*
X141990000Y-70608000D02*
X143256000Y-69342000D01*
X141980000Y-81030000D02*
X141990000Y-81020000D01*
X141990000Y-78510000D02*
X141990000Y-70608000D01*
X143510000Y-99060000D02*
X143510000Y-90932000D01*
X143510000Y-90932000D02*
X141980000Y-89402000D01*
X143256000Y-69342000D02*
X147066000Y-69342000D01*
X141990000Y-81020000D02*
X141990000Y-78510000D01*
X108310000Y-62830000D02*
X89560000Y-62830000D01*
X111770000Y-66290000D02*
X108310000Y-62830000D01*
X89105000Y-63285000D02*
X89105000Y-68565000D01*
X140970000Y-91186000D02*
X139420000Y-89636000D01*
X139420000Y-89636000D02*
X139420000Y-78540000D01*
X89560000Y-62830000D02*
X89105000Y-63285000D01*
X139420000Y-78540000D02*
X139450000Y-78510000D01*
X140970000Y-99060000D02*
X140970000Y-91186000D01*
X88760000Y-61920000D02*
X86565000Y-64115000D01*
X113500000Y-66260000D02*
X109160000Y-61920000D01*
X86565000Y-64115000D02*
X86565000Y-68565000D01*
X138430000Y-90932000D02*
X136920000Y-89422000D01*
X109160000Y-61920000D02*
X88760000Y-61920000D01*
X136910000Y-81260000D02*
X136910000Y-78510000D01*
X138430000Y-99060000D02*
X138430000Y-90932000D01*
X136920000Y-89422000D02*
X136920000Y-81270000D01*
X136920000Y-81270000D02*
X136910000Y-81260000D01*
X114920000Y-66290000D02*
X109550000Y-60920000D01*
X109550000Y-60920000D02*
X88320000Y-60920000D01*
X88320000Y-60920000D02*
X84025000Y-65215000D01*
X84025000Y-65215000D02*
X84025000Y-68565000D01*
X134380000Y-89422000D02*
X134380000Y-81060000D01*
X134370000Y-81050000D02*
X134370000Y-78510000D01*
X135890000Y-99060000D02*
X135890000Y-90932000D01*
X134380000Y-81060000D02*
X134370000Y-81050000D01*
X135890000Y-90932000D02*
X134380000Y-89422000D01*
X116210000Y-66200000D02*
X110010000Y-60000000D01*
X110010000Y-60000000D02*
X87340000Y-60000000D01*
X133350000Y-99060000D02*
X133350000Y-90932000D01*
X131830000Y-80510000D02*
X131830000Y-78510000D01*
X131820000Y-89402000D02*
X131820000Y-80520000D01*
X131820000Y-80520000D02*
X131830000Y-80510000D01*
X133350000Y-90932000D02*
X131820000Y-89402000D01*
X81485000Y-65855000D02*
X81485000Y-68565000D01*
X116210000Y-66300000D02*
X116210000Y-66200000D01*
X87340000Y-60000000D02*
X81485000Y-65855000D01*
X130810000Y-99060000D02*
X130810000Y-91186000D01*
X129280000Y-81620000D02*
X129290000Y-81610000D01*
X117590000Y-66210000D02*
X117590000Y-65920000D01*
X110810000Y-59140000D02*
X86460000Y-59140000D01*
X86460000Y-59140000D02*
X78945000Y-66655000D01*
X117590000Y-65920000D02*
X110810000Y-59140000D01*
X78945000Y-66655000D02*
X78945000Y-68565000D01*
X129280000Y-89656000D02*
X129280000Y-81620000D01*
X130810000Y-91186000D02*
X129280000Y-89656000D01*
X129290000Y-81610000D02*
X129290000Y-78510000D01*
X119400000Y-69900000D02*
X120305000Y-68995000D01*
X121570000Y-73350000D02*
X121540000Y-73320000D01*
X85760000Y-58290000D02*
X76405000Y-67645000D01*
X121540000Y-73320000D02*
X120000000Y-73320000D01*
X128270000Y-99060000D02*
X128270000Y-91186000D01*
X76405000Y-67645000D02*
X76405000Y-68565000D01*
X111580000Y-58290000D02*
X85760000Y-58290000D01*
X118750000Y-65460000D02*
X111580000Y-58290000D01*
X119400000Y-72720000D02*
X119400000Y-69900000D01*
X126760000Y-89676000D02*
X126760000Y-78520000D01*
X120000000Y-73320000D02*
X119400000Y-72720000D01*
X126760000Y-78520000D02*
X126750000Y-78510000D01*
X120305000Y-68995000D02*
X121235000Y-68995000D01*
X128270000Y-91186000D02*
X126760000Y-89676000D01*
X125730000Y-91440000D02*
X124190000Y-89900000D01*
X122780000Y-74240000D02*
X119315000Y-74240000D01*
X119315000Y-74240000D02*
X118575000Y-73500000D01*
X118575000Y-73500000D02*
X118575000Y-68785000D01*
X73865000Y-68565000D02*
X84960000Y-57470000D01*
X84960000Y-57470000D02*
X112740000Y-57470000D01*
X124190000Y-89900000D02*
X124190000Y-81610000D01*
X120905000Y-66455000D02*
X121235000Y-66455000D01*
X124190000Y-81610000D02*
X124210000Y-81590000D01*
X122820000Y-74280000D02*
X122780000Y-74240000D01*
X125730000Y-99060000D02*
X125730000Y-91440000D01*
X124210000Y-81590000D02*
X124210000Y-78510000D01*
X112740000Y-57470000D02*
X118920000Y-63650000D01*
X118575000Y-68785000D02*
X120905000Y-66455000D01*
X117825000Y-74025000D02*
X117825000Y-67750000D01*
X123190000Y-99060000D02*
X123190000Y-91440000D01*
X117825000Y-67750000D02*
X121235000Y-64340000D01*
X118720000Y-74920000D02*
X117825000Y-74025000D01*
X113990000Y-56670000D02*
X121235000Y-63915000D01*
X83220000Y-56670000D02*
X113990000Y-56670000D01*
X121670000Y-80510000D02*
X121680000Y-80500000D01*
X121670000Y-89920000D02*
X121670000Y-80510000D01*
X120730000Y-74920000D02*
X118720000Y-74920000D01*
X121680000Y-75870000D02*
X120730000Y-74920000D01*
X121235000Y-64340000D02*
X121235000Y-63915000D01*
X71325000Y-68565000D02*
X83220000Y-56670000D01*
X121670000Y-77660000D02*
X121670000Y-78510000D01*
X121680000Y-80500000D02*
X121680000Y-75870000D01*
X123190000Y-91440000D02*
X121670000Y-89920000D01*
X120396000Y-99060000D02*
X120396000Y-91440000D01*
X118872000Y-89916000D02*
X118872000Y-78768000D01*
X118872000Y-78768000D02*
X119130000Y-78510000D01*
X120396000Y-91440000D02*
X118872000Y-89916000D01*
X140060000Y-53210000D02*
X138470000Y-53210000D01*
X143300000Y-54720000D02*
X151880000Y-54720000D01*
X140060000Y-53210000D02*
X141790000Y-53210000D01*
X138470000Y-53210000D02*
X136475000Y-51215000D01*
X141790000Y-53210000D02*
X143300000Y-54720000D01*
X151880000Y-54720000D02*
X153360000Y-53240000D01*
X124075000Y-41055000D02*
X121235000Y-41055000D01*
X119450000Y-41055000D02*
X121235000Y-41055000D01*
X117055000Y-38660000D02*
X119450000Y-41055000D01*
X131500000Y-33630000D02*
X124075000Y-41055000D01*
X140100000Y-43220000D02*
X139725000Y-43595000D01*
X140100000Y-43490000D02*
X140100000Y-43220000D01*
X150175000Y-45140000D02*
X141750000Y-45140000D01*
X141750000Y-45140000D02*
X140100000Y-43490000D01*
X139725000Y-43595000D02*
X136475000Y-43595000D01*
X153345000Y-41970000D02*
X150175000Y-45140000D01*
X117095000Y-34890000D02*
X120070000Y-34890000D01*
X121235000Y-38515000D02*
X121235000Y-33725000D01*
X120070000Y-34890000D02*
X121300000Y-33660000D01*
X108690000Y-72810000D02*
X108860000Y-72810000D01*
X106690000Y-70810000D02*
X108690000Y-72810000D01*
X101805000Y-68565000D02*
X104050000Y-70810000D01*
X104050000Y-70810000D02*
X106690000Y-70810000D01*
X99265000Y-68565000D02*
X101770000Y-71070000D01*
X104880000Y-72810000D02*
X105770000Y-72810000D01*
X101770000Y-71070000D02*
X103140000Y-71070000D01*
X103140000Y-71070000D02*
X104880000Y-72810000D01*
X102060000Y-72810000D02*
X102680000Y-72810000D01*
X100020000Y-70770000D02*
X98020000Y-70770000D01*
X96725000Y-69475000D02*
X96725000Y-68565000D01*
X102060000Y-72810000D02*
X100020000Y-70770000D01*
X98020000Y-70770000D02*
X96725000Y-69475000D01*
X97650000Y-72670000D02*
X99500000Y-72670000D01*
X94185000Y-69205000D02*
X97650000Y-72670000D01*
X94185000Y-68565000D02*
X94185000Y-69205000D01*
X185880000Y-61755000D02*
X185669000Y-61966000D01*
X185880000Y-57490000D02*
X185880000Y-61755000D01*
X108320000Y-43310000D02*
X108320000Y-43220000D01*
X78230000Y-45810000D02*
X75960000Y-48080000D01*
X162060000Y-34930000D02*
X162070000Y-34930000D01*
X108730000Y-29610000D02*
X110620000Y-27720000D01*
X110620000Y-27720000D02*
X154850000Y-27720000D01*
X108320000Y-43220000D02*
X108730000Y-42810000D01*
X154850000Y-27720000D02*
X162060000Y-34930000D01*
X108730000Y-42810000D02*
X108730000Y-29610000D01*
X109500000Y-43220000D02*
X109500000Y-30880000D01*
X161580000Y-36000000D02*
X161580000Y-42430000D01*
X154180000Y-28600000D02*
X161580000Y-36000000D01*
X161580000Y-42430000D02*
X161560000Y-42450000D01*
X109500000Y-30880000D02*
X111780000Y-28600000D01*
X109640000Y-43360000D02*
X109500000Y-43220000D01*
X111780000Y-28600000D02*
X154180000Y-28600000D01*
X78230000Y-50630000D02*
X85040000Y-43820000D01*
X107260000Y-48970000D02*
X105140000Y-51090000D01*
X159450000Y-40220000D02*
X159450000Y-45240000D01*
X85040000Y-43820000D02*
X103530000Y-43820000D01*
X159450000Y-45240000D02*
X159630000Y-45420000D01*
X101500000Y-51090000D02*
X99265000Y-53325000D01*
X74080000Y-58330000D02*
X74080000Y-56670000D01*
X73850000Y-50630000D02*
X78230000Y-50630000D01*
X112530000Y-46150000D02*
X112530000Y-33570000D01*
X112530000Y-33570000D02*
X114950000Y-31150000D01*
X109920000Y-48710000D02*
X109970000Y-48710000D01*
X105140000Y-51090000D02*
X101500000Y-51090000D01*
X74080000Y-56670000D02*
X72620000Y-55210000D01*
X109970000Y-48710000D02*
X112530000Y-46150000D01*
X107260000Y-47550000D02*
X107260000Y-48970000D01*
X103530000Y-43820000D02*
X107260000Y-47550000D01*
X72620000Y-55210000D02*
X72620000Y-51860000D01*
X150380000Y-31150000D02*
X159450000Y-40220000D01*
X114950000Y-31150000D02*
X150380000Y-31150000D01*
X72620000Y-51860000D02*
X73850000Y-50630000D01*
X108130000Y-46690000D02*
X108130000Y-50470000D01*
X106730000Y-51870000D02*
X103110000Y-51870000D01*
X77930000Y-49790000D02*
X84590000Y-43130000D01*
X70030000Y-52520000D02*
X72760000Y-49790000D01*
X72730000Y-57610000D02*
X70030000Y-54910000D01*
X70030000Y-54910000D02*
X70030000Y-52520000D01*
X72730000Y-58350000D02*
X72730000Y-57610000D01*
X84590000Y-43130000D02*
X104570000Y-43130000D01*
X103110000Y-51870000D02*
X101805000Y-53175000D01*
X110010000Y-50270000D02*
X110010000Y-50170000D01*
X101805000Y-53175000D02*
X101805000Y-53325000D01*
X114515000Y-45665000D02*
X114515000Y-38660000D01*
X104570000Y-43130000D02*
X108130000Y-46690000D01*
X108130000Y-50470000D02*
X106730000Y-51870000D01*
X72760000Y-49790000D02*
X77930000Y-49790000D01*
X110010000Y-50170000D02*
X114515000Y-45665000D01*
X157360000Y-36740000D02*
X157360000Y-34620000D01*
X111370000Y-33050000D02*
X111370000Y-45800000D01*
X77680000Y-48900000D02*
X84140000Y-42440000D01*
X108830000Y-51720000D02*
X107225000Y-53325000D01*
X71500000Y-58310000D02*
X71500000Y-58130000D01*
X157360000Y-34620000D02*
X152950000Y-30210000D01*
X114210000Y-30210000D02*
X111370000Y-33050000D01*
X69740000Y-51460000D02*
X72300000Y-48900000D01*
X84140000Y-42440000D02*
X105870000Y-42440000D01*
X67500000Y-51980000D02*
X68020000Y-51460000D01*
X152950000Y-30210000D02*
X114210000Y-30210000D01*
X107225000Y-53325000D02*
X104345000Y-53325000D01*
X111370000Y-45800000D02*
X108830000Y-48340000D01*
X71500000Y-58130000D02*
X67500000Y-54130000D01*
X108830000Y-45400000D02*
X108830000Y-51720000D01*
X105870000Y-42440000D02*
X108830000Y-45400000D01*
X67500000Y-54130000D02*
X67500000Y-51980000D01*
X68020000Y-51460000D02*
X69740000Y-51460000D01*
X72300000Y-48900000D02*
X77680000Y-48900000D01*
X118930000Y-53970000D02*
X118930000Y-43010000D01*
X118930000Y-43010000D02*
X115800000Y-39880000D01*
X115800000Y-39880000D02*
X115800000Y-36135000D01*
X118210000Y-54690000D02*
X118930000Y-53970000D01*
X115800000Y-36135000D02*
X114555000Y-34890000D01*
X104345000Y-68565000D02*
X105715000Y-68565000D01*
X105715000Y-68565000D02*
X108000000Y-70850000D01*
X109490000Y-70850000D02*
X111430000Y-72790000D01*
X118210000Y-54900000D02*
X118210000Y-54690000D01*
X111430000Y-72790000D02*
X112070000Y-72790000D01*
X108000000Y-70850000D02*
X109490000Y-70850000D01*
X178010000Y-54640000D02*
X178010000Y-61927000D01*
X178010000Y-61927000D02*
X178049000Y-61966000D01*
X91375000Y-49905000D02*
X93790000Y-52320000D01*
X91375000Y-48635000D02*
X91375000Y-49905000D01*
X93790000Y-52320000D02*
X93790000Y-52930000D01*
X110140000Y-44970000D02*
X110630000Y-44480000D01*
X93790000Y-52930000D02*
X94185000Y-53325000D01*
X160570000Y-36470000D02*
X160570000Y-45930000D01*
X110630000Y-31730000D02*
X113060000Y-29300000D01*
X153400000Y-29300000D02*
X160570000Y-36470000D01*
X110630000Y-44480000D02*
X110630000Y-31730000D01*
X113060000Y-29300000D02*
X153400000Y-29300000D01*
X160570000Y-45930000D02*
X161490000Y-46850000D01*
X140010000Y-38740000D02*
X139540000Y-38740000D01*
X142310000Y-38740000D02*
X140010000Y-38740000D01*
X178010000Y-52100000D02*
X175600000Y-49690000D01*
X137225000Y-41055000D02*
X136475000Y-41055000D01*
X139540000Y-38740000D02*
X137225000Y-41055000D01*
X143900000Y-40330000D02*
X142310000Y-38740000D01*
X158060000Y-46540000D02*
X158060000Y-40910000D01*
X175600000Y-49690000D02*
X161210000Y-49690000D01*
X157480000Y-40330000D02*
X143900000Y-40330000D01*
X161210000Y-49690000D02*
X158060000Y-46540000D01*
X158060000Y-40910000D02*
X157480000Y-40330000D01*
X141610000Y-46890000D02*
X143080000Y-48360000D01*
X140060000Y-46890000D02*
X141610000Y-46890000D01*
X139305000Y-46135000D02*
X140060000Y-46890000D01*
X150740000Y-48360000D02*
X153380000Y-45720000D01*
X136475000Y-46135000D02*
X139305000Y-46135000D01*
X143080000Y-48360000D02*
X150740000Y-48360000D01*
X142760000Y-51510000D02*
X151350000Y-51510000D01*
X138685000Y-48675000D02*
X140060000Y-50050000D01*
X140060000Y-50050000D02*
X141300000Y-50050000D01*
X151350000Y-51510000D02*
X153370000Y-49490000D01*
X141300000Y-50050000D02*
X142760000Y-51510000D01*
X136475000Y-48675000D02*
X138685000Y-48675000D01*
X137750000Y-56310000D02*
X140050000Y-56310000D01*
X146000000Y-58910000D02*
X151510000Y-58910000D01*
X151510000Y-58910000D02*
X153350000Y-57070000D01*
X143400000Y-56310000D02*
X146000000Y-58910000D01*
X140050000Y-56310000D02*
X143400000Y-56310000D01*
X136475000Y-56295000D02*
X137735000Y-56295000D01*
X137735000Y-56295000D02*
X137750000Y-56310000D01*
X74810000Y-63110000D02*
X66245000Y-54545000D01*
X111820000Y-70100000D02*
X113820000Y-72100000D01*
X92930000Y-66720000D02*
X106390000Y-66720000D01*
X109770000Y-70100000D02*
X111820000Y-70100000D01*
X75470000Y-63110000D02*
X74810000Y-63110000D01*
X106390000Y-66720000D02*
X109770000Y-70100000D01*
X113820000Y-72100000D02*
X113820000Y-82170000D01*
X150880000Y-73140000D02*
X152146000Y-71874000D01*
X113820000Y-82170000D02*
X116240000Y-84590000D01*
X151010000Y-84460000D02*
X150880000Y-84330000D01*
X150880000Y-84330000D02*
X150880000Y-73140000D01*
X152146000Y-71874000D02*
X152146000Y-69342000D01*
X116240000Y-84590000D02*
X117420000Y-84590000D01*
X66245000Y-54545000D02*
X66245000Y-53325000D01*
X110880000Y-68390000D02*
X107200000Y-64710000D01*
X115810000Y-80000000D02*
X115810000Y-69540000D01*
X116340000Y-80530000D02*
X115810000Y-80000000D01*
X68500000Y-70820000D02*
X66245000Y-68565000D01*
X158510000Y-81040000D02*
X158510000Y-72100000D01*
X115810000Y-69540000D02*
X114660000Y-68390000D01*
X89410000Y-70820000D02*
X68500000Y-70820000D01*
X92170000Y-64710000D02*
X90340000Y-66540000D01*
X158650000Y-81180000D02*
X158510000Y-81040000D01*
X158510000Y-72100000D02*
X159800000Y-70810000D01*
X159800000Y-70810000D02*
X159766000Y-70776000D01*
X90340000Y-66540000D02*
X90340000Y-69890000D01*
X90340000Y-69890000D02*
X89410000Y-70820000D01*
X107200000Y-64710000D02*
X92170000Y-64710000D01*
X114660000Y-68390000D02*
X110880000Y-68390000D01*
X159766000Y-70776000D02*
X159766000Y-69342000D01*
X81685000Y-36790000D02*
X80010000Y-35115000D01*
X80010000Y-28900000D02*
X79990000Y-28880000D01*
X80010000Y-35115000D02*
X80010000Y-28900000D01*
X70930000Y-28880000D02*
X70930000Y-30590000D01*
X76605000Y-36265000D02*
X76605000Y-36790000D01*
X70930000Y-30590000D02*
X76605000Y-36265000D01*
X138670000Y-64340000D02*
X138670000Y-58590000D01*
X137770000Y-57560000D02*
X135370000Y-57560000D01*
X138670000Y-58590000D02*
X138735000Y-58525000D01*
X140750000Y-66420000D02*
X173230000Y-66420000D01*
X135915000Y-53755000D02*
X136475000Y-53755000D01*
X134890000Y-57080000D02*
X134890000Y-54780000D01*
X134890000Y-54780000D02*
X135915000Y-53755000D01*
X157170000Y-66420000D02*
X155940000Y-67650000D01*
X155940000Y-67650000D02*
X151298000Y-67650000D01*
X140750000Y-66420000D02*
X138670000Y-64340000D01*
X172969000Y-66159000D02*
X175509000Y-68699000D01*
X175509000Y-61966000D02*
X172969000Y-61966000D01*
X138735000Y-58525000D02*
X137770000Y-57560000D01*
X151298000Y-67650000D02*
X149606000Y-69342000D01*
X135370000Y-57560000D02*
X134890000Y-57080000D01*
X175509000Y-68699000D02*
X175509000Y-69586000D01*
X172969000Y-61966000D02*
X172969000Y-66159000D01*
X87870000Y-69450000D02*
X87110000Y-70210000D01*
X116980000Y-79180000D02*
X116880000Y-79280000D01*
X87870000Y-64950000D02*
X87870000Y-69450000D01*
X172980000Y-72900000D02*
X179815000Y-72900000D01*
X183129000Y-69586000D02*
X183129000Y-61966000D01*
X168650000Y-77230000D02*
X172980000Y-72900000D01*
X70430000Y-70210000D02*
X68785000Y-68565000D01*
X115350000Y-67690000D02*
X116980000Y-69320000D01*
X90210000Y-63760000D02*
X107720000Y-63760000D01*
X90120000Y-63850000D02*
X90210000Y-63760000D01*
X168610000Y-79910000D02*
X168650000Y-79870000D01*
X168650000Y-79870000D02*
X168650000Y-77230000D01*
X107720000Y-63760000D02*
X111650000Y-67690000D01*
X180589000Y-61966000D02*
X183129000Y-61966000D01*
X87110000Y-70210000D02*
X70430000Y-70210000D01*
X116980000Y-69320000D02*
X116980000Y-79180000D01*
X179815000Y-72900000D02*
X183129000Y-69586000D01*
X111650000Y-67690000D02*
X115350000Y-67690000D01*
X185880000Y-49870000D02*
X185880000Y-31940000D01*
X77665000Y-26040000D02*
X74825000Y-28880000D01*
X185880000Y-31940000D02*
X179980000Y-26040000D01*
X179980000Y-26040000D02*
X77665000Y-26040000D01*
X74825000Y-28880000D02*
X73470000Y-28880000D01*
X80165000Y-84015000D02*
X80165000Y-85050000D01*
X79370000Y-83220000D02*
X80165000Y-84015000D01*
X68000000Y-83220000D02*
X79370000Y-83220000D01*
X64830000Y-80050000D02*
X68000000Y-83220000D01*
X68000000Y-80120000D02*
X70230000Y-82350000D01*
X82705000Y-83965000D02*
X82705000Y-85050000D01*
X70230000Y-82350000D02*
X81090000Y-82350000D01*
X81090000Y-82350000D02*
X82705000Y-83965000D01*
X85245000Y-83975000D02*
X85245000Y-85050000D01*
X72639000Y-81534000D02*
X82804000Y-81534000D01*
X82804000Y-81534000D02*
X85245000Y-83975000D01*
X71225000Y-80120000D02*
X72639000Y-81534000D01*
X82648000Y-79600000D02*
X88098000Y-85050000D01*
X81670000Y-79600000D02*
X82648000Y-79600000D01*
X88098000Y-85050000D02*
X89305000Y-85050000D01*
X87328000Y-81788000D02*
X90778000Y-81788000D01*
X94040000Y-85050000D02*
X94385000Y-85050000D01*
X63857382Y-74859519D02*
X80399520Y-74859520D01*
X80399520Y-74859520D02*
X87328000Y-81788000D01*
X90778000Y-81788000D02*
X94040000Y-85050000D01*
X91580000Y-77260000D02*
X86310000Y-77260000D01*
X96695000Y-82280000D02*
X94840000Y-82280000D01*
X92830000Y-80270000D02*
X92830000Y-78510000D01*
X99465000Y-85050000D02*
X96695000Y-82280000D01*
X92830000Y-78510000D02*
X91580000Y-77260000D01*
X94840000Y-82280000D02*
X92830000Y-80270000D01*
X86310000Y-77260000D02*
X85180000Y-76130000D01*
X94050000Y-74780000D02*
X93180000Y-73910000D01*
X98820000Y-82730000D02*
X96770000Y-80680000D01*
X96770000Y-80680000D02*
X94920000Y-80680000D01*
X94920000Y-80680000D02*
X94050000Y-79810000D01*
X93180000Y-73910000D02*
X87940000Y-73910000D01*
X94050000Y-79810000D02*
X94050000Y-74780000D01*
X102005000Y-84065000D02*
X100670000Y-82730000D01*
X100670000Y-82730000D02*
X98820000Y-82730000D01*
X102005000Y-85050000D02*
X102005000Y-84065000D01*
X87940000Y-73910000D02*
X87030000Y-73000000D01*
X87030000Y-73000000D02*
X84260000Y-73000000D01*
X104200000Y-78380000D02*
X103180000Y-77360000D01*
X103180000Y-77360000D02*
X97440000Y-77360000D01*
X97440000Y-77360000D02*
X95940000Y-78860000D01*
X104545000Y-85050000D02*
X104545000Y-82555000D01*
X104200000Y-82210000D02*
X104200000Y-78380000D01*
X104545000Y-82555000D02*
X104200000Y-82210000D01*
X107310000Y-78660000D02*
X104160000Y-75510000D01*
X107310000Y-84825000D02*
X107310000Y-78660000D01*
X104160000Y-75510000D02*
X95900000Y-75510000D01*
X107085000Y-85050000D02*
X107310000Y-84825000D01*
X90275000Y-39600000D02*
X91350000Y-38525000D01*
X92625000Y-34325000D02*
X105350000Y-34325000D01*
X91350000Y-38525000D02*
X91350000Y-35600000D01*
X88075000Y-41015000D02*
X89490000Y-39600000D01*
X89490000Y-39600000D02*
X90275000Y-39600000D01*
X107085000Y-36060000D02*
X107085000Y-36790000D01*
X91350000Y-35600000D02*
X92625000Y-34325000D01*
X105350000Y-34325000D02*
X107085000Y-36060000D01*
X103925000Y-35100000D02*
X104545000Y-35720000D01*
X91375000Y-41015000D02*
X92275000Y-40115000D01*
X93200000Y-35100000D02*
X103925000Y-35100000D01*
X92275000Y-40115000D02*
X92275000Y-36025000D01*
X104545000Y-35720000D02*
X104545000Y-36790000D01*
X92275000Y-36025000D02*
X93200000Y-35100000D01*
X102005000Y-38460000D02*
X104625000Y-41080000D01*
X102005000Y-36790000D02*
X102005000Y-38460000D01*
X99465000Y-39345000D02*
X101225000Y-41105000D01*
X99465000Y-36790000D02*
X99465000Y-39345000D01*
X96925000Y-39955000D02*
X98000000Y-41030000D01*
X96925000Y-36790000D02*
X96925000Y-39955000D01*
X94650000Y-41005000D02*
X94385000Y-40740000D01*
X94385000Y-40740000D02*
X94385000Y-36790000D01*
X86370000Y-47680000D02*
X86370000Y-53130000D01*
X93570000Y-46520000D02*
X87530000Y-46520000D01*
X94650000Y-47600000D02*
X93570000Y-46520000D01*
X87530000Y-46520000D02*
X86370000Y-47680000D01*
X86370000Y-53130000D02*
X86565000Y-53325000D01*
X94650000Y-48625000D02*
X94650000Y-47600000D01*
X93130000Y-49350000D02*
X93120000Y-49360000D01*
X95640000Y-50810000D02*
X96725000Y-51895000D01*
X93130000Y-48020000D02*
X93130000Y-49350000D01*
X94570000Y-50810000D02*
X95640000Y-50810000D01*
X93120000Y-49360000D02*
X94570000Y-50810000D01*
X89590000Y-47120000D02*
X92230000Y-47120000D01*
X88075000Y-48635000D02*
X89590000Y-47120000D01*
X92230000Y-47120000D02*
X93130000Y-48020000D01*
X96725000Y-51895000D02*
X96725000Y-53325000D01*
X98000000Y-48650000D02*
X98000000Y-47280000D01*
X98000000Y-47280000D02*
X96580000Y-45860000D01*
X86990000Y-45860000D02*
X84025000Y-48825000D01*
X96580000Y-45860000D02*
X86990000Y-45860000D01*
X84025000Y-48825000D02*
X84025000Y-53325000D01*
X85630000Y-44490000D02*
X78945000Y-51175000D01*
X78945000Y-51175000D02*
X78945000Y-53325000D01*
X104625000Y-48700000D02*
X104625000Y-46875000D01*
X102240000Y-44490000D02*
X85630000Y-44490000D01*
X104625000Y-46875000D02*
X102240000Y-44490000D01*
X86400000Y-45120000D02*
X81485000Y-50035000D01*
X101225000Y-48725000D02*
X101225000Y-47475000D01*
X98870000Y-45120000D02*
X86400000Y-45120000D01*
X101225000Y-47475000D02*
X98870000Y-45120000D01*
X81485000Y-50035000D02*
X81485000Y-53325000D01*
X72890000Y-65050000D02*
X72890000Y-65140000D01*
X61165000Y-53325000D02*
X72890000Y-65050000D01*
X69850000Y-66990000D02*
X56185000Y-53325000D01*
X56185000Y-53325000D02*
X56085000Y-53325000D01*
X70050000Y-66990000D02*
X69850000Y-66990000D01*
X63705000Y-53325000D02*
X74430000Y-64050000D01*
X74430000Y-64050000D02*
X74430000Y-64070000D01*
X71440000Y-66140000D02*
X71620000Y-66140000D01*
X58625000Y-53325000D02*
X71440000Y-66140000D01*
M02*
