G04 #@! TF.GenerationSoftware,KiCad,Pcbnew,(6.0.2)*
G04 #@! TF.CreationDate,2022-07-02T16:06:33-05:00*
G04 #@! TF.ProjectId,Apple2Card,4170706c-6532-4436-9172-642e6b696361,rev?*
G04 #@! TF.SameCoordinates,Original*
G04 #@! TF.FileFunction,Soldermask,Top*
G04 #@! TF.FilePolarity,Negative*
%FSLAX46Y46*%
G04 Gerber Fmt 4.6, Leading zero omitted, Abs format (unit mm)*
G04 Created by KiCad (PCBNEW (6.0.2)) date 2022-07-02 16:06:33*
%MOMM*%
%LPD*%
G01*
G04 APERTURE LIST*
%ADD10R,1.600000X1.600000*%
%ADD11O,1.600000X1.600000*%
%ADD12C,1.600000*%
%ADD13R,1.700000X1.700000*%
%ADD14O,1.700000X1.700000*%
%ADD15R,1.900000X8.530000*%
%ADD16R,1.270000X8.530000*%
%ADD17R,1.910000X8.530000*%
G04 APERTURE END LIST*
D10*
X185880000Y-57490000D03*
D11*
X185880000Y-49870000D03*
D12*
X131500000Y-33630000D03*
D11*
X139120000Y-33630000D03*
D13*
X178010000Y-54640000D03*
D14*
X178010000Y-52100000D03*
D12*
X142100000Y-35130000D03*
X147100000Y-35130000D03*
X142810000Y-58930000D03*
X142810000Y-63930000D03*
D13*
X114555000Y-34890000D03*
D14*
X117095000Y-34890000D03*
D12*
X140100000Y-43220000D03*
D11*
X147720000Y-43220000D03*
D13*
X155920000Y-45720000D03*
D14*
X153380000Y-45720000D03*
D10*
X71525000Y-36790000D03*
D11*
X74065000Y-36790000D03*
X76605000Y-36790000D03*
X79145000Y-36790000D03*
X81685000Y-36790000D03*
X84225000Y-36790000D03*
X86765000Y-36790000D03*
X89305000Y-36790000D03*
X94385000Y-36790000D03*
X96925000Y-36790000D03*
X99465000Y-36790000D03*
X102005000Y-36790000D03*
X104545000Y-36790000D03*
X107085000Y-36790000D03*
X107085000Y-85050000D03*
X104545000Y-85050000D03*
X102005000Y-85050000D03*
X99465000Y-85050000D03*
X96925000Y-85050000D03*
X94385000Y-85050000D03*
X91845000Y-85050000D03*
X89305000Y-85050000D03*
X85245000Y-85050000D03*
X82705000Y-85050000D03*
X80165000Y-85050000D03*
X77625000Y-85050000D03*
X75085000Y-85050000D03*
X72545000Y-85050000D03*
X70005000Y-85050000D03*
X67465000Y-85050000D03*
X64925000Y-85050000D03*
X62385000Y-85050000D03*
D12*
X140050000Y-56310000D03*
D11*
X147670000Y-56310000D03*
D15*
X120396000Y-99060000D03*
D16*
X123190000Y-99060000D03*
X125730000Y-99060000D03*
X128270000Y-99060000D03*
X130810000Y-99060000D03*
X133350000Y-99060000D03*
X135890000Y-99060000D03*
X138430000Y-99060000D03*
X140970000Y-99060000D03*
X143510000Y-99060000D03*
X146050000Y-99060000D03*
X148590000Y-99060000D03*
X151130000Y-99060000D03*
X153670000Y-99060000D03*
X156210000Y-99060000D03*
X158750000Y-99060000D03*
X161290000Y-99060000D03*
X163830000Y-99060000D03*
X166370000Y-99060000D03*
X168910000Y-99060000D03*
X171450000Y-99060000D03*
X173990000Y-99060000D03*
X176530000Y-99060000D03*
X179070000Y-99060000D03*
D17*
X181864000Y-99060000D03*
D13*
X155885000Y-41970000D03*
D14*
X153345000Y-41970000D03*
D13*
X120396000Y-86614000D03*
D14*
X122936000Y-86614000D03*
X125476000Y-86614000D03*
X128016000Y-86614000D03*
X130556000Y-86614000D03*
X133096000Y-86614000D03*
X135636000Y-86614000D03*
X138176000Y-86614000D03*
X140716000Y-86614000D03*
X143256000Y-86614000D03*
X145796000Y-86614000D03*
X148336000Y-86614000D03*
X150876000Y-86614000D03*
X153416000Y-86614000D03*
X155956000Y-86614000D03*
X158496000Y-86614000D03*
X161036000Y-86614000D03*
X163576000Y-86614000D03*
X166116000Y-86614000D03*
X168656000Y-86614000D03*
X171196000Y-86614000D03*
X173736000Y-86614000D03*
X176276000Y-86614000D03*
X178816000Y-86614000D03*
X181356000Y-86614000D03*
D13*
X119130000Y-78510000D03*
D14*
X121670000Y-78510000D03*
X124210000Y-78510000D03*
X126750000Y-78510000D03*
X129290000Y-78510000D03*
X131830000Y-78510000D03*
X134370000Y-78510000D03*
X136910000Y-78510000D03*
X139450000Y-78510000D03*
X141990000Y-78510000D03*
X144530000Y-78510000D03*
X147070000Y-78510000D03*
X149610000Y-78510000D03*
X152150000Y-78510000D03*
X154690000Y-78510000D03*
X157230000Y-78510000D03*
X159770000Y-78510000D03*
X162310000Y-78510000D03*
X164850000Y-78510000D03*
X167390000Y-78510000D03*
X169930000Y-78510000D03*
X172470000Y-78510000D03*
X175010000Y-78510000D03*
X177550000Y-78510000D03*
X180090000Y-78510000D03*
D13*
X155900000Y-53240000D03*
D14*
X153360000Y-53240000D03*
D12*
X140060000Y-50050000D03*
D11*
X147680000Y-50050000D03*
D12*
X121300000Y-33660000D03*
D11*
X128920000Y-33660000D03*
D10*
X147066000Y-69342000D03*
D11*
X149606000Y-69342000D03*
X152146000Y-69342000D03*
X154686000Y-69342000D03*
X157226000Y-69342000D03*
X159766000Y-69342000D03*
X162306000Y-69342000D03*
X162306000Y-61722000D03*
X159766000Y-61722000D03*
X157226000Y-61722000D03*
X154686000Y-61722000D03*
X152146000Y-61722000D03*
X149606000Y-61722000D03*
X147066000Y-61722000D03*
D10*
X170429000Y-69586000D03*
D11*
X172969000Y-69586000D03*
X175509000Y-69586000D03*
X178049000Y-69586000D03*
X180589000Y-69586000D03*
X183129000Y-69586000D03*
X185669000Y-69586000D03*
X185669000Y-61966000D03*
X183129000Y-61966000D03*
X180589000Y-61966000D03*
X178049000Y-61966000D03*
X175509000Y-61966000D03*
X172969000Y-61966000D03*
X170429000Y-61966000D03*
D12*
X140060000Y-46890000D03*
D11*
X147680000Y-46890000D03*
D12*
X140060000Y-53210000D03*
D11*
X147680000Y-53210000D03*
D13*
X155910000Y-49490000D03*
D14*
X153370000Y-49490000D03*
D12*
X147630000Y-38740000D03*
D11*
X140010000Y-38740000D03*
D14*
X57510000Y-85050000D03*
D13*
X54765000Y-85050000D03*
D10*
X121235000Y-38515000D03*
D11*
X121235000Y-41055000D03*
X121235000Y-43595000D03*
X121235000Y-46135000D03*
X121235000Y-48675000D03*
X121235000Y-51215000D03*
X121235000Y-53755000D03*
X121235000Y-56295000D03*
X121235000Y-58835000D03*
X121235000Y-61375000D03*
X121235000Y-63915000D03*
X121235000Y-66455000D03*
X121235000Y-68995000D03*
X121235000Y-71535000D03*
X136475000Y-71535000D03*
X136475000Y-68995000D03*
X136475000Y-66455000D03*
X136475000Y-63915000D03*
X136475000Y-61375000D03*
X136475000Y-58835000D03*
X136475000Y-56295000D03*
X136475000Y-53755000D03*
X136475000Y-51215000D03*
X136475000Y-48675000D03*
X136475000Y-46135000D03*
X136475000Y-43595000D03*
X136475000Y-41055000D03*
X136475000Y-38515000D03*
D13*
X114515000Y-38660000D03*
D14*
X117055000Y-38660000D03*
D13*
X155865000Y-57070000D03*
D14*
X153325000Y-57070000D03*
D12*
X166920000Y-62150000D03*
X166920000Y-57150000D03*
D10*
X172620000Y-54190000D03*
D12*
X172620000Y-51690000D03*
D13*
X70930000Y-28880000D03*
D14*
X73470000Y-28880000D03*
D12*
X98000000Y-48650000D03*
D11*
X98000000Y-41030000D03*
D12*
X94650000Y-48625000D03*
D11*
X94650000Y-41005000D03*
D12*
X68000000Y-80120000D03*
D11*
X68000000Y-72500000D03*
D12*
X95940000Y-78860000D03*
D11*
X88320000Y-78860000D03*
D13*
X82530000Y-28880000D03*
D14*
X79990000Y-28880000D03*
D12*
X112070000Y-80410000D03*
D11*
X112070000Y-72790000D03*
D12*
X108860000Y-80430000D03*
D11*
X108860000Y-72810000D03*
D12*
X88075000Y-48635000D03*
D11*
X88075000Y-41015000D03*
D12*
X71225000Y-80120000D03*
D11*
X71225000Y-72500000D03*
D12*
X104625000Y-48700000D03*
D11*
X104625000Y-41080000D03*
D12*
X99500000Y-72670000D03*
D11*
X99500000Y-80290000D03*
D12*
X58410000Y-45730000D03*
D11*
X66030000Y-45730000D03*
D12*
X60770000Y-81330000D03*
X55770000Y-81330000D03*
X105770000Y-80430000D03*
D11*
X105770000Y-72810000D03*
D12*
X62080000Y-49150000D03*
D11*
X69700000Y-49150000D03*
D12*
X81670000Y-79600000D03*
D11*
X74050000Y-79600000D03*
D12*
X62170000Y-75110000D03*
D11*
X54550000Y-75110000D03*
D10*
X56085000Y-53325000D03*
D11*
X58625000Y-53325000D03*
X61165000Y-53325000D03*
X63705000Y-53325000D03*
X66245000Y-53325000D03*
X68785000Y-53325000D03*
X71325000Y-53325000D03*
X73865000Y-53325000D03*
X76405000Y-53325000D03*
X78945000Y-53325000D03*
X81485000Y-53325000D03*
X84025000Y-53325000D03*
X86565000Y-53325000D03*
X89105000Y-53325000D03*
X91645000Y-53325000D03*
X94185000Y-53325000D03*
X96725000Y-53325000D03*
X99265000Y-53325000D03*
X101805000Y-53325000D03*
X104345000Y-53325000D03*
X104345000Y-68565000D03*
X101805000Y-68565000D03*
X99265000Y-68565000D03*
X96725000Y-68565000D03*
X94185000Y-68565000D03*
X91645000Y-68565000D03*
X89105000Y-68565000D03*
X86565000Y-68565000D03*
X84025000Y-68565000D03*
X81485000Y-68565000D03*
X78945000Y-68565000D03*
X76405000Y-68565000D03*
X73865000Y-68565000D03*
X71325000Y-68565000D03*
X68785000Y-68565000D03*
X66245000Y-68565000D03*
X63705000Y-68565000D03*
X61165000Y-68565000D03*
X58625000Y-68565000D03*
X56085000Y-68565000D03*
D12*
X62110000Y-78270000D03*
D11*
X54490000Y-78270000D03*
D12*
X85180000Y-76130000D03*
D11*
X77560000Y-76130000D03*
D12*
X64830000Y-80050000D03*
D11*
X64830000Y-72430000D03*
D12*
X84260000Y-73000000D03*
D11*
X76640000Y-73000000D03*
D12*
X62160000Y-71990000D03*
D11*
X54540000Y-71990000D03*
D12*
X70610000Y-45810000D03*
D11*
X78230000Y-45810000D03*
D12*
X95900000Y-75510000D03*
D11*
X88280000Y-75510000D03*
D12*
X91375000Y-48635000D03*
D11*
X91375000Y-41015000D03*
D12*
X101225000Y-48725000D03*
D11*
X101225000Y-41105000D03*
D12*
X70570000Y-42810000D03*
D11*
X78190000Y-42810000D03*
D12*
X90010000Y-72310000D03*
X95010000Y-72310000D03*
X102680000Y-72810000D03*
D11*
X102680000Y-80430000D03*
M02*
