M48
; DRILL file {KiCad (6.0.2)} date Wed Jun 15 10:48:41 2022
; FORMAT={-:-/ absolute / inch / decimal}
; #@! TF.CreationDate,2022-06-15T10:48:41-05:00
; #@! TF.GenerationSoftware,Kicad,Pcbnew,(6.0.2)
; #@! TF.FileFunction,Plated,1,2,PTH
FMAT,2
INCH
; #@! TA.AperFunction,Plated,PTH,ViaDrill
T1C0.0157
; #@! TA.AperFunction,Plated,PTH,ComponentDrill
T2C0.0315
; #@! TA.AperFunction,Plated,PTH,ComponentDrill
T3C0.0394
%
G90
G05
T1
X2.7579Y-2.6374
X2.815Y-2.2957
X2.8197Y-2.6039
X2.8634Y-2.2972
X2.8697Y-2.5646
X2.9165Y-2.2965
X2.9303Y-2.5224
X2.9713Y-2.4846
X3.4594Y-2.5571
X3.548Y-2.5138
X3.6587Y-2.6268
X4.2646Y-1.7051
X4.3165Y-1.7071
X4.3276Y-1.9177
X4.3311Y-1.9791
X4.3362Y-1.7705
X4.4004Y-2.6098
X4.4685Y-2.6087
X4.5244Y-2.6098
X4.565Y-3.2236
X4.5752Y-2.6102
X4.5803Y-3.1705
X4.6016Y-3.1213
X4.6228Y-3.3303
X4.6295Y-2.6067
X4.6539Y-2.1614
X4.6752Y-2.5772
X4.6819Y-2.5059
X4.7862Y-2.8878
X4.8354Y-2.9244
X5.6299Y-3.3339
X5.64Y-2.87
X5.9453Y-3.3252
X6.1953Y-1.4465
X6.2461Y-3.1961
X6.2846Y-1.7882
X6.3579Y-1.8445
X6.3606Y-1.6713
X6.3807Y-1.3752
X6.6382Y-3.1461
X7.124Y-3.2291
T2
X2.0043Y-2.4469
X2.0043Y-2.7469
X2.01Y-2.04
X2.01Y-2.34
X2.0366Y-2.937
X2.0366Y-3.1339
X2.1409Y-2.8661
X2.1439Y-2.9941
X2.1445Y-3.1173
X2.2081Y-2.0994
X2.2081Y-2.6994
X2.3081Y-2.0994
X2.3081Y-2.6994
X2.4081Y-2.0994
X2.4081Y-2.6994
X2.4409Y-2.8661
X2.4439Y-2.9941
X2.4445Y-3.1173
X2.5081Y-2.0994
X2.5081Y-2.6994
X2.5524Y-2.8516
X2.5524Y-3.1516
X2.6081Y-2.0994
X2.6081Y-2.6994
X2.6772Y-2.8543
X2.6772Y-3.1543
X2.7081Y-2.0994
X2.7081Y-2.6994
X2.7783Y-1.6854
X2.7799Y-1.8035
X2.8041Y-2.8543
X2.8041Y-3.1543
X2.8081Y-2.0994
X2.8081Y-2.6994
X2.9081Y-2.0994
X2.9081Y-2.6994
X2.9154Y-3.1339
X3.0081Y-2.0994
X3.0081Y-2.6994
X3.0173Y-2.874
X3.0535Y-2.9972
X3.0783Y-1.6854
X3.0799Y-1.8035
X3.1081Y-2.0994
X3.1081Y-2.6994
X3.2081Y-2.0994
X3.2081Y-2.6994
X3.2154Y-3.1339
X3.3081Y-2.0994
X3.3081Y-2.6994
X3.3173Y-2.874
X3.3535Y-2.9972
X3.4081Y-2.0994
X3.4081Y-2.6994
X3.4675Y-1.6148
X3.4675Y-1.9148
X3.4756Y-2.9728
X3.4772Y-3.1047
X3.5081Y-2.0994
X3.5081Y-2.6994
X3.5437Y-2.8469
X3.5974Y-1.6148
X3.5974Y-1.9148
X3.6081Y-2.0994
X3.6081Y-2.6994
X3.7081Y-2.0994
X3.7081Y-2.6994
X3.7264Y-1.6144
X3.7264Y-1.9144
X3.7406Y-2.8469
X3.7756Y-2.9728
X3.7772Y-3.1047
X3.8081Y-2.0994
X3.8081Y-2.6994
X3.8583Y-1.6154
X3.8583Y-1.9154
X3.9081Y-2.0994
X3.9081Y-2.6994
X3.9173Y-2.861
X3.9173Y-3.161
X3.9852Y-1.6183
X3.9852Y-1.9183
X4.0081Y-2.0994
X4.0081Y-2.6994
X4.0425Y-2.8665
X4.0425Y-3.1665
X4.1081Y-2.0994
X4.1081Y-2.6994
X4.1191Y-1.6173
X4.1191Y-1.9173
X4.1642Y-2.8665
X4.1642Y-3.1665
X4.2858Y-2.8665
X4.2858Y-3.1665
X4.4122Y-2.8657
X4.4122Y-3.1657
X4.773Y-1.5163
X4.773Y-1.6163
X4.773Y-1.7163
X4.773Y-1.8163
X4.773Y-1.9163
X4.773Y-2.0163
X4.773Y-2.1163
X4.773Y-2.2163
X4.773Y-2.3163
X4.773Y-2.4163
X4.773Y-2.5163
X4.773Y-2.6163
X4.773Y-2.7163
X4.773Y-2.8163
X4.7756Y-1.3252
X5.0756Y-1.3252
X5.1772Y-1.324
X5.373Y-1.5163
X5.373Y-1.6163
X5.373Y-1.7163
X5.373Y-1.8163
X5.373Y-1.9163
X5.373Y-2.0163
X5.373Y-2.1163
X5.373Y-2.2163
X5.373Y-2.3163
X5.373Y-2.4163
X5.373Y-2.5163
X5.373Y-2.6163
X5.373Y-2.7163
X5.373Y-2.8163
X5.4772Y-1.324
X5.5122Y-1.5252
X5.5138Y-2.2169
X5.5142Y-1.8461
X5.5142Y-1.9705
X5.5142Y-2.0949
X5.5157Y-1.7016
X5.5945Y-1.3831
X5.6224Y-2.3201
X5.6224Y-2.5169
X5.79Y-2.43
X5.79Y-2.73
X5.7913Y-1.3831
X5.8122Y-1.5252
X5.8138Y-2.2169
X5.8142Y-1.8461
X5.8142Y-1.9705
X5.8142Y-2.0949
X5.8157Y-1.7016
X5.89Y-2.43
X5.89Y-2.73
X5.99Y-2.43
X5.99Y-2.73
X6.09Y-2.43
X6.09Y-2.73
X6.19Y-2.43
X6.19Y-2.73
X6.29Y-2.43
X6.29Y-2.73
X6.39Y-2.43
X6.39Y-2.73
X6.5717Y-2.25
X6.5717Y-2.4469
X6.7098Y-2.4396
X6.7098Y-2.7396
X6.7961Y-2.035
X6.7961Y-2.1335
X6.8098Y-2.4396
X6.8098Y-2.7396
X6.9098Y-2.4396
X6.9098Y-2.7396
X7.0098Y-2.4396
X7.0098Y-2.7396
X7.1098Y-2.4396
X7.1098Y-2.7396
X7.2098Y-2.4396
X7.2098Y-2.7396
X7.3098Y-2.4396
X7.3098Y-2.7396
X7.3181Y-1.9634
X7.3181Y-2.2634
T3
X2.1561Y-3.3484
X2.2642Y-3.3484
X2.4561Y-3.3484
X2.5561Y-3.3484
X2.6561Y-3.3484
X2.7561Y-3.3484
X2.7925Y-1.137
X2.8159Y-1.4484
X2.8561Y-3.3484
X2.8925Y-1.137
X2.9159Y-1.4484
X2.9561Y-3.3484
X3.0159Y-1.4484
X3.0561Y-3.3484
X3.1159Y-1.4484
X3.1492Y-1.137
X3.1561Y-3.3484
X3.2159Y-1.4484
X3.2492Y-1.137
X3.2561Y-3.3484
X3.3159Y-1.4484
X3.3561Y-3.3484
X3.4159Y-1.4484
X3.5159Y-1.4484
X3.5159Y-3.3484
X3.6159Y-3.3484
X3.7159Y-1.4484
X3.7159Y-3.3484
X3.8159Y-1.4484
X3.8159Y-3.3484
X3.9159Y-1.4484
X3.9159Y-3.3484
X4.0159Y-1.4484
X4.0159Y-3.3484
X4.1159Y-1.4484
X4.1159Y-3.3484
X4.2159Y-1.4484
X4.2159Y-3.3484
X4.5085Y-1.522
X4.51Y-1.3736
X4.6085Y-1.522
X4.61Y-1.3736
X4.6902Y-3.0909
X4.74Y-3.41
X4.7902Y-3.0909
X4.84Y-3.41
X4.8902Y-3.0909
X4.94Y-3.41
X4.9902Y-3.0909
X5.04Y-3.41
X5.0902Y-3.0909
X5.14Y-3.41
X5.1902Y-3.0909
X5.24Y-3.41
X5.2902Y-3.0909
X5.34Y-3.41
X5.3902Y-3.0909
X5.44Y-3.41
X5.4902Y-3.0909
X5.54Y-3.41
X5.5902Y-3.0909
X5.64Y-3.41
X5.6902Y-3.0909
X5.74Y-3.41
X5.7902Y-3.0909
X5.84Y-3.41
X5.8902Y-3.0909
X5.94Y-3.41
X5.9902Y-3.0909
X6.0364Y-2.2469
X6.0372Y-1.6524
X6.0378Y-2.0961
X6.0382Y-1.9484
X6.0386Y-1.8
X6.04Y-3.41
X6.0902Y-3.0909
X6.1364Y-2.2469
X6.1372Y-1.6524
X6.1378Y-2.0961
X6.1382Y-1.9484
X6.1386Y-1.8
X6.14Y-3.41
X6.1902Y-3.0909
X6.24Y-3.41
X6.2902Y-3.0909
X6.34Y-3.41
X6.3902Y-3.0909
X6.44Y-3.41
X6.4902Y-3.0909
X6.54Y-3.41
X6.5902Y-3.0909
X6.64Y-3.41
X6.6902Y-3.0909
X6.74Y-3.41
X6.7902Y-3.0909
X6.84Y-3.41
X6.8902Y-3.0909
X6.94Y-3.41
X6.9902Y-3.0909
X7.0083Y-2.0512
X7.0083Y-2.1512
X7.04Y-3.41
X7.0902Y-3.0909
X7.14Y-3.41
T0
M30
