G04 #@! TF.GenerationSoftware,KiCad,Pcbnew,(6.0.2)*
G04 #@! TF.CreationDate,2022-06-15T10:48:40-05:00*
G04 #@! TF.ProjectId,Apple2Card,4170706c-6532-4436-9172-642e6b696361,rev?*
G04 #@! TF.SameCoordinates,Original*
G04 #@! TF.FileFunction,Legend,Top*
G04 #@! TF.FilePolarity,Positive*
%FSLAX46Y46*%
G04 Gerber Fmt 4.6, Leading zero omitted, Abs format (unit mm)*
G04 Created by KiCad (PCBNEW (6.0.2)) date 2022-06-15 10:48:40*
%MOMM*%
%LPD*%
G01*
G04 APERTURE LIST*
%ADD10C,0.150000*%
%ADD11C,0.250000*%
%ADD12C,0.120000*%
G04 APERTURE END LIST*
D10*
X58142380Y-90588095D02*
X57142380Y-90588095D01*
X57142380Y-90207142D01*
X57190000Y-90111904D01*
X57237619Y-90064285D01*
X57332857Y-90016666D01*
X57475714Y-90016666D01*
X57570952Y-90064285D01*
X57618571Y-90111904D01*
X57666190Y-90207142D01*
X57666190Y-90588095D01*
X58047142Y-89016666D02*
X58094761Y-89064285D01*
X58142380Y-89207142D01*
X58142380Y-89302380D01*
X58094761Y-89445238D01*
X57999523Y-89540476D01*
X57904285Y-89588095D01*
X57713809Y-89635714D01*
X57570952Y-89635714D01*
X57380476Y-89588095D01*
X57285238Y-89540476D01*
X57190000Y-89445238D01*
X57142380Y-89302380D01*
X57142380Y-89207142D01*
X57190000Y-89064285D01*
X57237619Y-89016666D01*
X58142380Y-88064285D02*
X58142380Y-88635714D01*
X58142380Y-88350000D02*
X57142380Y-88350000D01*
X57285238Y-88445238D01*
X57380476Y-88540476D01*
X57428095Y-88635714D01*
X54992380Y-90618095D02*
X53992380Y-90618095D01*
X53992380Y-90237142D01*
X54040000Y-90141904D01*
X54087619Y-90094285D01*
X54182857Y-90046666D01*
X54325714Y-90046666D01*
X54420952Y-90094285D01*
X54468571Y-90141904D01*
X54516190Y-90237142D01*
X54516190Y-90618095D01*
X54897142Y-89046666D02*
X54944761Y-89094285D01*
X54992380Y-89237142D01*
X54992380Y-89332380D01*
X54944761Y-89475238D01*
X54849523Y-89570476D01*
X54754285Y-89618095D01*
X54563809Y-89665714D01*
X54420952Y-89665714D01*
X54230476Y-89618095D01*
X54135238Y-89570476D01*
X54040000Y-89475238D01*
X53992380Y-89332380D01*
X53992380Y-89237142D01*
X54040000Y-89094285D01*
X54087619Y-89046666D01*
X53992380Y-88427619D02*
X53992380Y-88332380D01*
X54040000Y-88237142D01*
X54087619Y-88189523D01*
X54182857Y-88141904D01*
X54373333Y-88094285D01*
X54611428Y-88094285D01*
X54801904Y-88141904D01*
X54897142Y-88189523D01*
X54944761Y-88237142D01*
X54992380Y-88332380D01*
X54992380Y-88427619D01*
X54944761Y-88522857D01*
X54897142Y-88570476D01*
X54801904Y-88618095D01*
X54611428Y-88665714D01*
X54373333Y-88665714D01*
X54182857Y-88618095D01*
X54087619Y-88570476D01*
X54040000Y-88522857D01*
X53992380Y-88427619D01*
X140766666Y-90214285D02*
X140766666Y-89738095D01*
X141052380Y-90309523D02*
X140052380Y-89976190D01*
X141052380Y-89642857D01*
X140052380Y-89404761D02*
X140052380Y-88738095D01*
X141052380Y-89166666D01*
X85772380Y-93638095D02*
X84772380Y-93638095D01*
X84772380Y-93257142D01*
X84820000Y-93161904D01*
X84867619Y-93114285D01*
X84962857Y-93066666D01*
X85105714Y-93066666D01*
X85200952Y-93114285D01*
X85248571Y-93161904D01*
X85296190Y-93257142D01*
X85296190Y-93638095D01*
X85677142Y-92066666D02*
X85724761Y-92114285D01*
X85772380Y-92257142D01*
X85772380Y-92352380D01*
X85724761Y-92495238D01*
X85629523Y-92590476D01*
X85534285Y-92638095D01*
X85343809Y-92685714D01*
X85200952Y-92685714D01*
X85010476Y-92638095D01*
X84915238Y-92590476D01*
X84820000Y-92495238D01*
X84772380Y-92352380D01*
X84772380Y-92257142D01*
X84820000Y-92114285D01*
X84867619Y-92066666D01*
X85772380Y-91114285D02*
X85772380Y-91685714D01*
X85772380Y-91400000D02*
X84772380Y-91400000D01*
X84915238Y-91495238D01*
X85010476Y-91590476D01*
X85058095Y-91685714D01*
X137432380Y-76398095D02*
X136432380Y-76398095D01*
X136432380Y-76160000D01*
X136480000Y-76017142D01*
X136575238Y-75921904D01*
X136670476Y-75874285D01*
X136860952Y-75826666D01*
X137003809Y-75826666D01*
X137194285Y-75874285D01*
X137289523Y-75921904D01*
X137384761Y-76017142D01*
X137432380Y-76160000D01*
X137432380Y-76398095D01*
X136432380Y-74969523D02*
X136432380Y-75160000D01*
X136480000Y-75255238D01*
X136527619Y-75302857D01*
X136670476Y-75398095D01*
X136860952Y-75445714D01*
X137241904Y-75445714D01*
X137337142Y-75398095D01*
X137384761Y-75350476D01*
X137432380Y-75255238D01*
X137432380Y-75064761D01*
X137384761Y-74969523D01*
X137337142Y-74921904D01*
X137241904Y-74874285D01*
X137003809Y-74874285D01*
X136908571Y-74921904D01*
X136860952Y-74969523D01*
X136813333Y-75064761D01*
X136813333Y-75255238D01*
X136860952Y-75350476D01*
X136908571Y-75398095D01*
X137003809Y-75445714D01*
X100082380Y-33748095D02*
X99082380Y-33748095D01*
X99082380Y-33367142D01*
X99130000Y-33271904D01*
X99177619Y-33224285D01*
X99272857Y-33176666D01*
X99415714Y-33176666D01*
X99510952Y-33224285D01*
X99558571Y-33271904D01*
X99606190Y-33367142D01*
X99606190Y-33748095D01*
X99987142Y-32176666D02*
X100034761Y-32224285D01*
X100082380Y-32367142D01*
X100082380Y-32462380D01*
X100034761Y-32605238D01*
X99939523Y-32700476D01*
X99844285Y-32748095D01*
X99653809Y-32795714D01*
X99510952Y-32795714D01*
X99320476Y-32748095D01*
X99225238Y-32700476D01*
X99130000Y-32605238D01*
X99082380Y-32462380D01*
X99082380Y-32367142D01*
X99130000Y-32224285D01*
X99177619Y-32176666D01*
X99082380Y-31319523D02*
X99082380Y-31510000D01*
X99130000Y-31605238D01*
X99177619Y-31652857D01*
X99320476Y-31748095D01*
X99510952Y-31795714D01*
X99891904Y-31795714D01*
X99987142Y-31748095D01*
X100034761Y-31700476D01*
X100082380Y-31605238D01*
X100082380Y-31414761D01*
X100034761Y-31319523D01*
X99987142Y-31271904D01*
X99891904Y-31224285D01*
X99653809Y-31224285D01*
X99558571Y-31271904D01*
X99510952Y-31319523D01*
X99463333Y-31414761D01*
X99463333Y-31605238D01*
X99510952Y-31700476D01*
X99558571Y-31748095D01*
X99653809Y-31795714D01*
X148556666Y-91150476D02*
X148556666Y-90674285D01*
X148842380Y-91245714D02*
X147842380Y-90912380D01*
X148842380Y-90579047D01*
X148842380Y-89721904D02*
X148842380Y-90293333D01*
X148842380Y-90007619D02*
X147842380Y-90007619D01*
X147985238Y-90102857D01*
X148080476Y-90198095D01*
X148128095Y-90293333D01*
X147842380Y-89102857D02*
X147842380Y-89007619D01*
X147890000Y-88912380D01*
X147937619Y-88864761D01*
X148032857Y-88817142D01*
X148223333Y-88769523D01*
X148461428Y-88769523D01*
X148651904Y-88817142D01*
X148747142Y-88864761D01*
X148794761Y-88912380D01*
X148842380Y-89007619D01*
X148842380Y-89102857D01*
X148794761Y-89198095D01*
X148747142Y-89245714D01*
X148651904Y-89293333D01*
X148461428Y-89340952D01*
X148223333Y-89340952D01*
X148032857Y-89293333D01*
X147937619Y-89245714D01*
X147890000Y-89198095D01*
X147842380Y-89102857D01*
X138356666Y-90214285D02*
X138356666Y-89738095D01*
X138642380Y-90309523D02*
X137642380Y-89976190D01*
X138642380Y-89642857D01*
X137642380Y-88880952D02*
X137642380Y-89071428D01*
X137690000Y-89166666D01*
X137737619Y-89214285D01*
X137880476Y-89309523D01*
X138070952Y-89357142D01*
X138451904Y-89357142D01*
X138547142Y-89309523D01*
X138594761Y-89261904D01*
X138642380Y-89166666D01*
X138642380Y-88976190D01*
X138594761Y-88880952D01*
X138547142Y-88833333D01*
X138451904Y-88785714D01*
X138213809Y-88785714D01*
X138118571Y-88833333D01*
X138070952Y-88880952D01*
X138023333Y-88976190D01*
X138023333Y-89166666D01*
X138070952Y-89261904D01*
X138118571Y-89309523D01*
X138213809Y-89357142D01*
X143506666Y-90184285D02*
X143506666Y-89708095D01*
X143792380Y-90279523D02*
X142792380Y-89946190D01*
X143792380Y-89612857D01*
X143220952Y-89136666D02*
X143173333Y-89231904D01*
X143125714Y-89279523D01*
X143030476Y-89327142D01*
X142982857Y-89327142D01*
X142887619Y-89279523D01*
X142840000Y-89231904D01*
X142792380Y-89136666D01*
X142792380Y-88946190D01*
X142840000Y-88850952D01*
X142887619Y-88803333D01*
X142982857Y-88755714D01*
X143030476Y-88755714D01*
X143125714Y-88803333D01*
X143173333Y-88850952D01*
X143220952Y-88946190D01*
X143220952Y-89136666D01*
X143268571Y-89231904D01*
X143316190Y-89279523D01*
X143411428Y-89327142D01*
X143601904Y-89327142D01*
X143697142Y-89279523D01*
X143744761Y-89231904D01*
X143792380Y-89136666D01*
X143792380Y-88946190D01*
X143744761Y-88850952D01*
X143697142Y-88803333D01*
X143601904Y-88755714D01*
X143411428Y-88755714D01*
X143316190Y-88803333D01*
X143268571Y-88850952D01*
X143220952Y-88946190D01*
X134772380Y-76328095D02*
X133772380Y-76328095D01*
X133772380Y-76090000D01*
X133820000Y-75947142D01*
X133915238Y-75851904D01*
X134010476Y-75804285D01*
X134200952Y-75756666D01*
X134343809Y-75756666D01*
X134534285Y-75804285D01*
X134629523Y-75851904D01*
X134724761Y-75947142D01*
X134772380Y-76090000D01*
X134772380Y-76328095D01*
X133772380Y-74851904D02*
X133772380Y-75328095D01*
X134248571Y-75375714D01*
X134200952Y-75328095D01*
X134153333Y-75232857D01*
X134153333Y-74994761D01*
X134200952Y-74899523D01*
X134248571Y-74851904D01*
X134343809Y-74804285D01*
X134581904Y-74804285D01*
X134677142Y-74851904D01*
X134724761Y-74899523D01*
X134772380Y-74994761D01*
X134772380Y-75232857D01*
X134724761Y-75328095D01*
X134677142Y-75375714D01*
X65482380Y-90528095D02*
X64482380Y-90528095D01*
X64482380Y-90147142D01*
X64530000Y-90051904D01*
X64577619Y-90004285D01*
X64672857Y-89956666D01*
X64815714Y-89956666D01*
X64910952Y-90004285D01*
X64958571Y-90051904D01*
X65006190Y-90147142D01*
X65006190Y-90528095D01*
X64958571Y-89194761D02*
X65006190Y-89051904D01*
X65053809Y-89004285D01*
X65149047Y-88956666D01*
X65291904Y-88956666D01*
X65387142Y-89004285D01*
X65434761Y-89051904D01*
X65482380Y-89147142D01*
X65482380Y-89528095D01*
X64482380Y-89528095D01*
X64482380Y-89194761D01*
X64530000Y-89099523D01*
X64577619Y-89051904D01*
X64672857Y-89004285D01*
X64768095Y-89004285D01*
X64863333Y-89051904D01*
X64910952Y-89099523D01*
X64958571Y-89194761D01*
X64958571Y-89528095D01*
X64482380Y-88099523D02*
X64482380Y-88290000D01*
X64530000Y-88385238D01*
X64577619Y-88432857D01*
X64720476Y-88528095D01*
X64910952Y-88575714D01*
X65291904Y-88575714D01*
X65387142Y-88528095D01*
X65434761Y-88480476D01*
X65482380Y-88385238D01*
X65482380Y-88194761D01*
X65434761Y-88099523D01*
X65387142Y-88051904D01*
X65291904Y-88004285D01*
X65053809Y-88004285D01*
X64958571Y-88051904D01*
X64910952Y-88099523D01*
X64863333Y-88194761D01*
X64863333Y-88385238D01*
X64910952Y-88480476D01*
X64958571Y-88528095D01*
X65053809Y-88575714D01*
X169232380Y-93420952D02*
X168232380Y-93420952D01*
X168232380Y-92754285D02*
X168232380Y-92563809D01*
X168280000Y-92468571D01*
X168375238Y-92373333D01*
X168565714Y-92325714D01*
X168899047Y-92325714D01*
X169089523Y-92373333D01*
X169184761Y-92468571D01*
X169232380Y-92563809D01*
X169232380Y-92754285D01*
X169184761Y-92849523D01*
X169089523Y-92944761D01*
X168899047Y-92992380D01*
X168565714Y-92992380D01*
X168375238Y-92944761D01*
X168280000Y-92849523D01*
X168232380Y-92754285D01*
X169184761Y-91944761D02*
X169232380Y-91801904D01*
X169232380Y-91563809D01*
X169184761Y-91468571D01*
X169137142Y-91420952D01*
X169041904Y-91373333D01*
X168946666Y-91373333D01*
X168851428Y-91420952D01*
X168803809Y-91468571D01*
X168756190Y-91563809D01*
X168708571Y-91754285D01*
X168660952Y-91849523D01*
X168613333Y-91897142D01*
X168518095Y-91944761D01*
X168422857Y-91944761D01*
X168327619Y-91897142D01*
X168280000Y-91849523D01*
X168232380Y-91754285D01*
X168232380Y-91516190D01*
X168280000Y-91373333D01*
X168232380Y-91087619D02*
X168232380Y-90516190D01*
X169232380Y-90801904D02*
X168232380Y-90801904D01*
X169232380Y-89611428D02*
X168756190Y-89944761D01*
X169232380Y-90182857D02*
X168232380Y-90182857D01*
X168232380Y-89801904D01*
X168280000Y-89706666D01*
X168327619Y-89659047D01*
X168422857Y-89611428D01*
X168565714Y-89611428D01*
X168660952Y-89659047D01*
X168708571Y-89706666D01*
X168756190Y-89801904D01*
X168756190Y-90182857D01*
X168708571Y-88849523D02*
X168756190Y-88706666D01*
X168803809Y-88659047D01*
X168899047Y-88611428D01*
X169041904Y-88611428D01*
X169137142Y-88659047D01*
X169184761Y-88706666D01*
X169232380Y-88801904D01*
X169232380Y-89182857D01*
X168232380Y-89182857D01*
X168232380Y-88849523D01*
X168280000Y-88754285D01*
X168327619Y-88706666D01*
X168422857Y-88659047D01*
X168518095Y-88659047D01*
X168613333Y-88706666D01*
X168660952Y-88754285D01*
X168708571Y-88849523D01*
X168708571Y-89182857D01*
X161266666Y-91160476D02*
X161266666Y-90684285D01*
X161552380Y-91255714D02*
X160552380Y-90922380D01*
X161552380Y-90589047D01*
X161552380Y-89731904D02*
X161552380Y-90303333D01*
X161552380Y-90017619D02*
X160552380Y-90017619D01*
X160695238Y-90112857D01*
X160790476Y-90208095D01*
X160838095Y-90303333D01*
X160552380Y-88827142D02*
X160552380Y-89303333D01*
X161028571Y-89350952D01*
X160980952Y-89303333D01*
X160933333Y-89208095D01*
X160933333Y-88970000D01*
X160980952Y-88874761D01*
X161028571Y-88827142D01*
X161123809Y-88779523D01*
X161361904Y-88779523D01*
X161457142Y-88827142D01*
X161504761Y-88874761D01*
X161552380Y-88970000D01*
X161552380Y-89208095D01*
X161504761Y-89303333D01*
X161457142Y-89350952D01*
X130736666Y-90124285D02*
X130736666Y-89648095D01*
X131022380Y-90219523D02*
X130022380Y-89886190D01*
X131022380Y-89552857D01*
X130022380Y-89314761D02*
X130022380Y-88695714D01*
X130403333Y-89029047D01*
X130403333Y-88886190D01*
X130450952Y-88790952D01*
X130498571Y-88743333D01*
X130593809Y-88695714D01*
X130831904Y-88695714D01*
X130927142Y-88743333D01*
X130974761Y-88790952D01*
X131022380Y-88886190D01*
X131022380Y-89171904D01*
X130974761Y-89267142D01*
X130927142Y-89314761D01*
X119041428Y-76521904D02*
X119041428Y-75760000D01*
X119422380Y-76140952D02*
X118660476Y-76140952D01*
X119422380Y-74760000D02*
X119422380Y-75331428D01*
X119422380Y-75045714D02*
X118422380Y-75045714D01*
X118565238Y-75140952D01*
X118660476Y-75236190D01*
X118708095Y-75331428D01*
X118517619Y-74379047D02*
X118470000Y-74331428D01*
X118422380Y-74236190D01*
X118422380Y-73998095D01*
X118470000Y-73902857D01*
X118517619Y-73855238D01*
X118612857Y-73807619D01*
X118708095Y-73807619D01*
X118850952Y-73855238D01*
X119422380Y-74426666D01*
X119422380Y-73807619D01*
X118422380Y-73521904D02*
X119422380Y-73188571D01*
X118422380Y-72855238D01*
X122794761Y-35697619D02*
X122842380Y-35650000D01*
X122937619Y-35602380D01*
X123175714Y-35602380D01*
X123270952Y-35650000D01*
X123318571Y-35697619D01*
X123366190Y-35792857D01*
X123366190Y-35888095D01*
X123318571Y-36030952D01*
X122747142Y-36602380D01*
X123366190Y-36602380D01*
X123699523Y-35602380D02*
X124366190Y-35602380D01*
X123937619Y-36602380D01*
X125318571Y-36507142D02*
X125270952Y-36554761D01*
X125128095Y-36602380D01*
X125032857Y-36602380D01*
X124890000Y-36554761D01*
X124794761Y-36459523D01*
X124747142Y-36364285D01*
X124699523Y-36173809D01*
X124699523Y-36030952D01*
X124747142Y-35840476D01*
X124794761Y-35745238D01*
X124890000Y-35650000D01*
X125032857Y-35602380D01*
X125128095Y-35602380D01*
X125270952Y-35650000D01*
X125318571Y-35697619D01*
X126270952Y-36602380D02*
X125699523Y-36602380D01*
X125985238Y-36602380D02*
X125985238Y-35602380D01*
X125890000Y-35745238D01*
X125794761Y-35840476D01*
X125699523Y-35888095D01*
X126651904Y-35697619D02*
X126699523Y-35650000D01*
X126794761Y-35602380D01*
X127032857Y-35602380D01*
X127128095Y-35650000D01*
X127175714Y-35697619D01*
X127223333Y-35792857D01*
X127223333Y-35888095D01*
X127175714Y-36030952D01*
X126604285Y-36602380D01*
X127223333Y-36602380D01*
X127794761Y-36030952D02*
X127699523Y-35983333D01*
X127651904Y-35935714D01*
X127604285Y-35840476D01*
X127604285Y-35792857D01*
X127651904Y-35697619D01*
X127699523Y-35650000D01*
X127794761Y-35602380D01*
X127985238Y-35602380D01*
X128080476Y-35650000D01*
X128128095Y-35697619D01*
X128175714Y-35792857D01*
X128175714Y-35840476D01*
X128128095Y-35935714D01*
X128080476Y-35983333D01*
X127985238Y-36030952D01*
X127794761Y-36030952D01*
X127699523Y-36078571D01*
X127651904Y-36126190D01*
X127604285Y-36221428D01*
X127604285Y-36411904D01*
X127651904Y-36507142D01*
X127699523Y-36554761D01*
X127794761Y-36602380D01*
X127985238Y-36602380D01*
X128080476Y-36554761D01*
X128128095Y-36507142D01*
X128175714Y-36411904D01*
X128175714Y-36221428D01*
X128128095Y-36126190D01*
X128080476Y-36078571D01*
X127985238Y-36030952D01*
X129318571Y-35554761D02*
X128461428Y-36840476D01*
X129604285Y-35697619D02*
X129651904Y-35650000D01*
X129747142Y-35602380D01*
X129985238Y-35602380D01*
X130080476Y-35650000D01*
X130128095Y-35697619D01*
X130175714Y-35792857D01*
X130175714Y-35888095D01*
X130128095Y-36030952D01*
X129556666Y-36602380D01*
X130175714Y-36602380D01*
X130747142Y-36030952D02*
X130651904Y-35983333D01*
X130604285Y-35935714D01*
X130556666Y-35840476D01*
X130556666Y-35792857D01*
X130604285Y-35697619D01*
X130651904Y-35650000D01*
X130747142Y-35602380D01*
X130937619Y-35602380D01*
X131032857Y-35650000D01*
X131080476Y-35697619D01*
X131128095Y-35792857D01*
X131128095Y-35840476D01*
X131080476Y-35935714D01*
X131032857Y-35983333D01*
X130937619Y-36030952D01*
X130747142Y-36030952D01*
X130651904Y-36078571D01*
X130604285Y-36126190D01*
X130556666Y-36221428D01*
X130556666Y-36411904D01*
X130604285Y-36507142D01*
X130651904Y-36554761D01*
X130747142Y-36602380D01*
X130937619Y-36602380D01*
X131032857Y-36554761D01*
X131080476Y-36507142D01*
X131128095Y-36411904D01*
X131128095Y-36221428D01*
X131080476Y-36126190D01*
X131032857Y-36078571D01*
X130937619Y-36030952D01*
X132128095Y-36507142D02*
X132080476Y-36554761D01*
X131937619Y-36602380D01*
X131842380Y-36602380D01*
X131699523Y-36554761D01*
X131604285Y-36459523D01*
X131556666Y-36364285D01*
X131509047Y-36173809D01*
X131509047Y-36030952D01*
X131556666Y-35840476D01*
X131604285Y-35745238D01*
X131699523Y-35650000D01*
X131842380Y-35602380D01*
X131937619Y-35602380D01*
X132080476Y-35650000D01*
X132128095Y-35697619D01*
X132509047Y-35697619D02*
X132556666Y-35650000D01*
X132651904Y-35602380D01*
X132890000Y-35602380D01*
X132985238Y-35650000D01*
X133032857Y-35697619D01*
X133080476Y-35792857D01*
X133080476Y-35888095D01*
X133032857Y-36030952D01*
X132461428Y-36602380D01*
X133080476Y-36602380D01*
X133985238Y-35602380D02*
X133509047Y-35602380D01*
X133461428Y-36078571D01*
X133509047Y-36030952D01*
X133604285Y-35983333D01*
X133842380Y-35983333D01*
X133937619Y-36030952D01*
X133985238Y-36078571D01*
X134032857Y-36173809D01*
X134032857Y-36411904D01*
X133985238Y-36507142D01*
X133937619Y-36554761D01*
X133842380Y-36602380D01*
X133604285Y-36602380D01*
X133509047Y-36554761D01*
X133461428Y-36507142D01*
X134890000Y-35602380D02*
X134699523Y-35602380D01*
X134604285Y-35650000D01*
X134556666Y-35697619D01*
X134461428Y-35840476D01*
X134413809Y-36030952D01*
X134413809Y-36411904D01*
X134461428Y-36507142D01*
X134509047Y-36554761D01*
X134604285Y-36602380D01*
X134794761Y-36602380D01*
X134890000Y-36554761D01*
X134937619Y-36507142D01*
X134985238Y-36411904D01*
X134985238Y-36173809D01*
X134937619Y-36078571D01*
X134890000Y-36030952D01*
X134794761Y-35983333D01*
X134604285Y-35983333D01*
X134509047Y-36030952D01*
X134461428Y-36078571D01*
X134413809Y-36173809D01*
X124702380Y-76448095D02*
X123702380Y-76448095D01*
X123702380Y-76210000D01*
X123750000Y-76067142D01*
X123845238Y-75971904D01*
X123940476Y-75924285D01*
X124130952Y-75876666D01*
X124273809Y-75876666D01*
X124464285Y-75924285D01*
X124559523Y-75971904D01*
X124654761Y-76067142D01*
X124702380Y-76210000D01*
X124702380Y-76448095D01*
X124702380Y-74924285D02*
X124702380Y-75495714D01*
X124702380Y-75210000D02*
X123702380Y-75210000D01*
X123845238Y-75305238D01*
X123940476Y-75400476D01*
X123988095Y-75495714D01*
X78092380Y-90418095D02*
X77092380Y-90418095D01*
X77092380Y-90037142D01*
X77140000Y-89941904D01*
X77187619Y-89894285D01*
X77282857Y-89846666D01*
X77425714Y-89846666D01*
X77520952Y-89894285D01*
X77568571Y-89941904D01*
X77616190Y-90037142D01*
X77616190Y-90418095D01*
X77568571Y-89084761D02*
X77616190Y-88941904D01*
X77663809Y-88894285D01*
X77759047Y-88846666D01*
X77901904Y-88846666D01*
X77997142Y-88894285D01*
X78044761Y-88941904D01*
X78092380Y-89037142D01*
X78092380Y-89418095D01*
X77092380Y-89418095D01*
X77092380Y-89084761D01*
X77140000Y-88989523D01*
X77187619Y-88941904D01*
X77282857Y-88894285D01*
X77378095Y-88894285D01*
X77473333Y-88941904D01*
X77520952Y-88989523D01*
X77568571Y-89084761D01*
X77568571Y-89418095D01*
X77092380Y-88513333D02*
X77092380Y-87894285D01*
X77473333Y-88227619D01*
X77473333Y-88084761D01*
X77520952Y-87989523D01*
X77568571Y-87941904D01*
X77663809Y-87894285D01*
X77901904Y-87894285D01*
X77997142Y-87941904D01*
X78044761Y-87989523D01*
X78092380Y-88084761D01*
X78092380Y-88370476D01*
X78044761Y-88465714D01*
X77997142Y-88513333D01*
X102592380Y-90476666D02*
X101592380Y-90476666D01*
X101592380Y-90095714D01*
X101640000Y-90000476D01*
X101687619Y-89952857D01*
X101782857Y-89905238D01*
X101925714Y-89905238D01*
X102020952Y-89952857D01*
X102068571Y-90000476D01*
X102116190Y-90095714D01*
X102116190Y-90476666D01*
X102306666Y-89524285D02*
X102306666Y-89048095D01*
X102592380Y-89619523D02*
X101592380Y-89286190D01*
X102592380Y-88952857D01*
X101687619Y-88667142D02*
X101640000Y-88619523D01*
X101592380Y-88524285D01*
X101592380Y-88286190D01*
X101640000Y-88190952D01*
X101687619Y-88143333D01*
X101782857Y-88095714D01*
X101878095Y-88095714D01*
X102020952Y-88143333D01*
X102592380Y-88714761D01*
X102592380Y-88095714D01*
X69550000Y-90091904D02*
X69502380Y-90187142D01*
X69502380Y-90330000D01*
X69550000Y-90472857D01*
X69645238Y-90568095D01*
X69740476Y-90615714D01*
X69930952Y-90663333D01*
X70073809Y-90663333D01*
X70264285Y-90615714D01*
X70359523Y-90568095D01*
X70454761Y-90472857D01*
X70502380Y-90330000D01*
X70502380Y-90234761D01*
X70454761Y-90091904D01*
X70407142Y-90044285D01*
X70073809Y-90044285D01*
X70073809Y-90234761D01*
X70502380Y-89615714D02*
X69502380Y-89615714D01*
X70502380Y-89044285D01*
X69502380Y-89044285D01*
X70502380Y-88568095D02*
X69502380Y-88568095D01*
X69502380Y-88330000D01*
X69550000Y-88187142D01*
X69645238Y-88091904D01*
X69740476Y-88044285D01*
X69930952Y-87996666D01*
X70073809Y-87996666D01*
X70264285Y-88044285D01*
X70359523Y-88091904D01*
X70454761Y-88187142D01*
X70502380Y-88330000D01*
X70502380Y-88568095D01*
X159531428Y-76445714D02*
X159531428Y-75683809D01*
X158912380Y-74731428D02*
X158912380Y-75207619D01*
X159388571Y-75255238D01*
X159340952Y-75207619D01*
X159293333Y-75112380D01*
X159293333Y-74874285D01*
X159340952Y-74779047D01*
X159388571Y-74731428D01*
X159483809Y-74683809D01*
X159721904Y-74683809D01*
X159817142Y-74731428D01*
X159864761Y-74779047D01*
X159912380Y-74874285D01*
X159912380Y-75112380D01*
X159864761Y-75207619D01*
X159817142Y-75255238D01*
X158912380Y-74398095D02*
X159912380Y-74064761D01*
X158912380Y-73731428D01*
X178441904Y-43746666D02*
X178918095Y-43746666D01*
X178346666Y-44032380D02*
X178680000Y-43032380D01*
X179013333Y-44032380D01*
X179346666Y-43365714D02*
X179346666Y-44365714D01*
X179346666Y-43413333D02*
X179441904Y-43365714D01*
X179632380Y-43365714D01*
X179727619Y-43413333D01*
X179775238Y-43460952D01*
X179822857Y-43556190D01*
X179822857Y-43841904D01*
X179775238Y-43937142D01*
X179727619Y-43984761D01*
X179632380Y-44032380D01*
X179441904Y-44032380D01*
X179346666Y-43984761D01*
X180251428Y-43365714D02*
X180251428Y-44365714D01*
X180251428Y-43413333D02*
X180346666Y-43365714D01*
X180537142Y-43365714D01*
X180632380Y-43413333D01*
X180680000Y-43460952D01*
X180727619Y-43556190D01*
X180727619Y-43841904D01*
X180680000Y-43937142D01*
X180632380Y-43984761D01*
X180537142Y-44032380D01*
X180346666Y-44032380D01*
X180251428Y-43984761D01*
X181299047Y-44032380D02*
X181203809Y-43984761D01*
X181156190Y-43889523D01*
X181156190Y-43032380D01*
X182060952Y-43984761D02*
X181965714Y-44032380D01*
X181775238Y-44032380D01*
X181680000Y-43984761D01*
X181632380Y-43889523D01*
X181632380Y-43508571D01*
X181680000Y-43413333D01*
X181775238Y-43365714D01*
X181965714Y-43365714D01*
X182060952Y-43413333D01*
X182108571Y-43508571D01*
X182108571Y-43603809D01*
X181632380Y-43699047D01*
X183203809Y-44365714D02*
X183441904Y-44365714D01*
X183441904Y-42937142D01*
X183203809Y-42937142D01*
X184251428Y-44365714D02*
X184013333Y-44365714D01*
X184013333Y-42937142D01*
X184251428Y-42937142D01*
X185727619Y-43508571D02*
X185394285Y-43508571D01*
X185394285Y-44032380D02*
X185394285Y-43032380D01*
X185870476Y-43032380D01*
X186394285Y-44032380D02*
X186299047Y-43984761D01*
X186251428Y-43937142D01*
X186203809Y-43841904D01*
X186203809Y-43556190D01*
X186251428Y-43460952D01*
X186299047Y-43413333D01*
X186394285Y-43365714D01*
X186537142Y-43365714D01*
X186632380Y-43413333D01*
X186680000Y-43460952D01*
X186727619Y-43556190D01*
X186727619Y-43841904D01*
X186680000Y-43937142D01*
X186632380Y-43984761D01*
X186537142Y-44032380D01*
X186394285Y-44032380D01*
X187156190Y-44032380D02*
X187156190Y-43365714D01*
X187156190Y-43556190D02*
X187203809Y-43460952D01*
X187251428Y-43413333D01*
X187346666Y-43365714D01*
X187441904Y-43365714D01*
X188156190Y-43984761D02*
X188060952Y-44032380D01*
X187870476Y-44032380D01*
X187775238Y-43984761D01*
X187727619Y-43889523D01*
X187727619Y-43508571D01*
X187775238Y-43413333D01*
X187870476Y-43365714D01*
X188060952Y-43365714D01*
X188156190Y-43413333D01*
X188203809Y-43508571D01*
X188203809Y-43603809D01*
X187727619Y-43699047D01*
X188537142Y-43365714D02*
X188775238Y-44032380D01*
X189013333Y-43365714D01*
X189775238Y-43984761D02*
X189680000Y-44032380D01*
X189489523Y-44032380D01*
X189394285Y-43984761D01*
X189346666Y-43889523D01*
X189346666Y-43508571D01*
X189394285Y-43413333D01*
X189489523Y-43365714D01*
X189680000Y-43365714D01*
X189775238Y-43413333D01*
X189822857Y-43508571D01*
X189822857Y-43603809D01*
X189346666Y-43699047D01*
X190251428Y-44032380D02*
X190251428Y-43365714D01*
X190251428Y-43556190D02*
X190299047Y-43460952D01*
X190346666Y-43413333D01*
X190441904Y-43365714D01*
X190537142Y-43365714D01*
X190870476Y-43937142D02*
X190918095Y-43984761D01*
X190870476Y-44032380D01*
X190822857Y-43984761D01*
X190870476Y-43937142D01*
X190870476Y-44032380D01*
X190870476Y-43651428D02*
X190822857Y-43080000D01*
X190870476Y-43032380D01*
X190918095Y-43080000D01*
X190870476Y-43651428D01*
X190870476Y-43032380D01*
X176772380Y-93343333D02*
X175772380Y-93343333D01*
X176772380Y-92867142D02*
X175772380Y-92867142D01*
X176772380Y-92295714D01*
X175772380Y-92295714D01*
X175772380Y-91962380D02*
X175772380Y-91390952D01*
X176772380Y-91676666D02*
X175772380Y-91676666D01*
X175772380Y-90867142D02*
X175772380Y-90676666D01*
X175820000Y-90581428D01*
X175915238Y-90486190D01*
X176105714Y-90438571D01*
X176439047Y-90438571D01*
X176629523Y-90486190D01*
X176724761Y-90581428D01*
X176772380Y-90676666D01*
X176772380Y-90867142D01*
X176724761Y-90962380D01*
X176629523Y-91057619D01*
X176439047Y-91105238D01*
X176105714Y-91105238D01*
X175915238Y-91057619D01*
X175820000Y-90962380D01*
X175772380Y-90867142D01*
X175772380Y-90010000D02*
X176581904Y-90010000D01*
X176677142Y-89962380D01*
X176724761Y-89914761D01*
X176772380Y-89819523D01*
X176772380Y-89629047D01*
X176724761Y-89533809D01*
X176677142Y-89486190D01*
X176581904Y-89438571D01*
X175772380Y-89438571D01*
X175772380Y-89105238D02*
X175772380Y-88533809D01*
X176772380Y-88819523D02*
X175772380Y-88819523D01*
X104992380Y-33698095D02*
X103992380Y-33698095D01*
X103992380Y-33317142D01*
X104040000Y-33221904D01*
X104087619Y-33174285D01*
X104182857Y-33126666D01*
X104325714Y-33126666D01*
X104420952Y-33174285D01*
X104468571Y-33221904D01*
X104516190Y-33317142D01*
X104516190Y-33698095D01*
X104897142Y-32126666D02*
X104944761Y-32174285D01*
X104992380Y-32317142D01*
X104992380Y-32412380D01*
X104944761Y-32555238D01*
X104849523Y-32650476D01*
X104754285Y-32698095D01*
X104563809Y-32745714D01*
X104420952Y-32745714D01*
X104230476Y-32698095D01*
X104135238Y-32650476D01*
X104040000Y-32555238D01*
X103992380Y-32412380D01*
X103992380Y-32317142D01*
X104040000Y-32174285D01*
X104087619Y-32126666D01*
X104087619Y-31745714D02*
X104040000Y-31698095D01*
X103992380Y-31602857D01*
X103992380Y-31364761D01*
X104040000Y-31269523D01*
X104087619Y-31221904D01*
X104182857Y-31174285D01*
X104278095Y-31174285D01*
X104420952Y-31221904D01*
X104992380Y-31793333D01*
X104992380Y-31174285D01*
X146066666Y-90314285D02*
X146066666Y-89838095D01*
X146352380Y-90409523D02*
X145352380Y-90076190D01*
X146352380Y-89742857D01*
X146352380Y-89361904D02*
X146352380Y-89171428D01*
X146304761Y-89076190D01*
X146257142Y-89028571D01*
X146114285Y-88933333D01*
X145923809Y-88885714D01*
X145542857Y-88885714D01*
X145447619Y-88933333D01*
X145400000Y-88980952D01*
X145352380Y-89076190D01*
X145352380Y-89266666D01*
X145400000Y-89361904D01*
X145447619Y-89409523D01*
X145542857Y-89457142D01*
X145780952Y-89457142D01*
X145876190Y-89409523D01*
X145923809Y-89361904D01*
X145971428Y-89266666D01*
X145971428Y-89076190D01*
X145923809Y-88980952D01*
X145876190Y-88933333D01*
X145780952Y-88885714D01*
X100042380Y-90446666D02*
X99042380Y-90446666D01*
X99042380Y-90065714D01*
X99090000Y-89970476D01*
X99137619Y-89922857D01*
X99232857Y-89875238D01*
X99375714Y-89875238D01*
X99470952Y-89922857D01*
X99518571Y-89970476D01*
X99566190Y-90065714D01*
X99566190Y-90446666D01*
X99756666Y-89494285D02*
X99756666Y-89018095D01*
X100042380Y-89589523D02*
X99042380Y-89256190D01*
X100042380Y-88922857D01*
X99042380Y-88684761D02*
X99042380Y-88065714D01*
X99423333Y-88399047D01*
X99423333Y-88256190D01*
X99470952Y-88160952D01*
X99518571Y-88113333D01*
X99613809Y-88065714D01*
X99851904Y-88065714D01*
X99947142Y-88113333D01*
X99994761Y-88160952D01*
X100042380Y-88256190D01*
X100042380Y-88541904D01*
X99994761Y-88637142D01*
X99947142Y-88684761D01*
X145012380Y-76468095D02*
X144012380Y-76468095D01*
X144012380Y-76087142D01*
X144060000Y-75991904D01*
X144107619Y-75944285D01*
X144202857Y-75896666D01*
X144345714Y-75896666D01*
X144440952Y-75944285D01*
X144488571Y-75991904D01*
X144536190Y-76087142D01*
X144536190Y-76468095D01*
X145012380Y-75468095D02*
X144012380Y-75468095D01*
X144488571Y-75468095D02*
X144488571Y-74896666D01*
X145012380Y-74896666D02*
X144012380Y-74896666D01*
X144964761Y-74468095D02*
X145012380Y-74325238D01*
X145012380Y-74087142D01*
X144964761Y-73991904D01*
X144917142Y-73944285D01*
X144821904Y-73896666D01*
X144726666Y-73896666D01*
X144631428Y-73944285D01*
X144583809Y-73991904D01*
X144536190Y-74087142D01*
X144488571Y-74277619D01*
X144440952Y-74372857D01*
X144393333Y-74420476D01*
X144298095Y-74468095D01*
X144202857Y-74468095D01*
X144107619Y-74420476D01*
X144060000Y-74372857D01*
X144012380Y-74277619D01*
X144012380Y-74039523D01*
X144060000Y-73896666D01*
X144012380Y-73277619D02*
X144012380Y-73182380D01*
X144060000Y-73087142D01*
X144107619Y-73039523D01*
X144202857Y-72991904D01*
X144393333Y-72944285D01*
X144631428Y-72944285D01*
X144821904Y-72991904D01*
X144917142Y-73039523D01*
X144964761Y-73087142D01*
X145012380Y-73182380D01*
X145012380Y-73277619D01*
X144964761Y-73372857D01*
X144917142Y-73420476D01*
X144821904Y-73468095D01*
X144631428Y-73515714D01*
X144393333Y-73515714D01*
X144202857Y-73468095D01*
X144107619Y-73420476D01*
X144060000Y-73372857D01*
X144012380Y-73277619D01*
X157642380Y-76225714D02*
X156642380Y-76225714D01*
X157642380Y-75654285D01*
X156642380Y-75654285D01*
X157547142Y-74606666D02*
X157594761Y-74654285D01*
X157642380Y-74797142D01*
X157642380Y-74892380D01*
X157594761Y-75035238D01*
X157499523Y-75130476D01*
X157404285Y-75178095D01*
X157213809Y-75225714D01*
X157070952Y-75225714D01*
X156880476Y-75178095D01*
X156785238Y-75130476D01*
X156690000Y-75035238D01*
X156642380Y-74892380D01*
X156642380Y-74797142D01*
X156690000Y-74654285D01*
X156737619Y-74606666D01*
X97432380Y-90526666D02*
X96432380Y-90526666D01*
X96432380Y-90145714D01*
X96480000Y-90050476D01*
X96527619Y-90002857D01*
X96622857Y-89955238D01*
X96765714Y-89955238D01*
X96860952Y-90002857D01*
X96908571Y-90050476D01*
X96956190Y-90145714D01*
X96956190Y-90526666D01*
X97146666Y-89574285D02*
X97146666Y-89098095D01*
X97432380Y-89669523D02*
X96432380Y-89336190D01*
X97432380Y-89002857D01*
X96765714Y-88240952D02*
X97432380Y-88240952D01*
X96384761Y-88479047D02*
X97099047Y-88717142D01*
X97099047Y-88098095D01*
X73052380Y-90548095D02*
X72052380Y-90548095D01*
X72052380Y-90167142D01*
X72100000Y-90071904D01*
X72147619Y-90024285D01*
X72242857Y-89976666D01*
X72385714Y-89976666D01*
X72480952Y-90024285D01*
X72528571Y-90071904D01*
X72576190Y-90167142D01*
X72576190Y-90548095D01*
X72528571Y-89214761D02*
X72576190Y-89071904D01*
X72623809Y-89024285D01*
X72719047Y-88976666D01*
X72861904Y-88976666D01*
X72957142Y-89024285D01*
X73004761Y-89071904D01*
X73052380Y-89167142D01*
X73052380Y-89548095D01*
X72052380Y-89548095D01*
X72052380Y-89214761D01*
X72100000Y-89119523D01*
X72147619Y-89071904D01*
X72242857Y-89024285D01*
X72338095Y-89024285D01*
X72433333Y-89071904D01*
X72480952Y-89119523D01*
X72528571Y-89214761D01*
X72528571Y-89548095D01*
X72052380Y-88071904D02*
X72052380Y-88548095D01*
X72528571Y-88595714D01*
X72480952Y-88548095D01*
X72433333Y-88452857D01*
X72433333Y-88214761D01*
X72480952Y-88119523D01*
X72528571Y-88071904D01*
X72623809Y-88024285D01*
X72861904Y-88024285D01*
X72957142Y-88071904D01*
X73004761Y-88119523D01*
X73052380Y-88214761D01*
X73052380Y-88452857D01*
X73004761Y-88548095D01*
X72957142Y-88595714D01*
X94782380Y-90466666D02*
X93782380Y-90466666D01*
X93782380Y-90085714D01*
X93830000Y-89990476D01*
X93877619Y-89942857D01*
X93972857Y-89895238D01*
X94115714Y-89895238D01*
X94210952Y-89942857D01*
X94258571Y-89990476D01*
X94306190Y-90085714D01*
X94306190Y-90466666D01*
X94496666Y-89514285D02*
X94496666Y-89038095D01*
X94782380Y-89609523D02*
X93782380Y-89276190D01*
X94782380Y-88942857D01*
X93782380Y-88133333D02*
X93782380Y-88609523D01*
X94258571Y-88657142D01*
X94210952Y-88609523D01*
X94163333Y-88514285D01*
X94163333Y-88276190D01*
X94210952Y-88180952D01*
X94258571Y-88133333D01*
X94353809Y-88085714D01*
X94591904Y-88085714D01*
X94687142Y-88133333D01*
X94734761Y-88180952D01*
X94782380Y-88276190D01*
X94782380Y-88514285D01*
X94734761Y-88609523D01*
X94687142Y-88657142D01*
D11*
X178745119Y-30623333D02*
X179697500Y-30623333D01*
X178554642Y-31194761D02*
X179221309Y-29194761D01*
X179887976Y-31194761D01*
X180554642Y-31194761D02*
X180554642Y-29194761D01*
X181316547Y-29194761D01*
X181507023Y-29290000D01*
X181602261Y-29385238D01*
X181697500Y-29575714D01*
X181697500Y-29861428D01*
X181602261Y-30051904D01*
X181507023Y-30147142D01*
X181316547Y-30242380D01*
X180554642Y-30242380D01*
X182554642Y-31194761D02*
X182554642Y-29194761D01*
X183316547Y-29194761D01*
X183507023Y-29290000D01*
X183602261Y-29385238D01*
X183697500Y-29575714D01*
X183697500Y-29861428D01*
X183602261Y-30051904D01*
X183507023Y-30147142D01*
X183316547Y-30242380D01*
X182554642Y-30242380D01*
X185507023Y-31194761D02*
X184554642Y-31194761D01*
X184554642Y-29194761D01*
X186173690Y-30147142D02*
X186840357Y-30147142D01*
X187126071Y-31194761D02*
X186173690Y-31194761D01*
X186173690Y-29194761D01*
X187126071Y-29194761D01*
X189316547Y-31861428D02*
X189792738Y-31861428D01*
X189792738Y-29004285D01*
X189316547Y-29004285D01*
X191411785Y-31861428D02*
X190935595Y-31861428D01*
X190935595Y-29004285D01*
X191411785Y-29004285D01*
X181697500Y-34319523D02*
X181983214Y-34414761D01*
X182459404Y-34414761D01*
X182649880Y-34319523D01*
X182745119Y-34224285D01*
X182840357Y-34033809D01*
X182840357Y-33843333D01*
X182745119Y-33652857D01*
X182649880Y-33557619D01*
X182459404Y-33462380D01*
X182078452Y-33367142D01*
X181887976Y-33271904D01*
X181792738Y-33176666D01*
X181697500Y-32986190D01*
X181697500Y-32795714D01*
X181792738Y-32605238D01*
X181887976Y-32510000D01*
X182078452Y-32414761D01*
X182554642Y-32414761D01*
X182840357Y-32510000D01*
X183697500Y-34414761D02*
X183697500Y-32414761D01*
X183697500Y-33367142D02*
X184840357Y-33367142D01*
X184840357Y-34414761D02*
X184840357Y-32414761D01*
X185792738Y-34414761D02*
X185792738Y-32414761D01*
X186745119Y-33367142D02*
X187411785Y-33367142D01*
X187697500Y-34414761D02*
X186745119Y-34414761D01*
X186745119Y-32414761D01*
X187697500Y-32414761D01*
X189507023Y-34414761D02*
X188554642Y-34414761D01*
X188554642Y-32414761D01*
X190173690Y-34414761D02*
X190173690Y-32414761D01*
X190649880Y-32414761D01*
X190935595Y-32510000D01*
X191126071Y-32700476D01*
X191221309Y-32890952D01*
X191316547Y-33271904D01*
X191316547Y-33557619D01*
X191221309Y-33938571D01*
X191126071Y-34129047D01*
X190935595Y-34319523D01*
X190649880Y-34414761D01*
X190173690Y-34414761D01*
X175887976Y-35634761D02*
X176554642Y-37634761D01*
X177221309Y-35634761D01*
X177887976Y-36587142D02*
X178554642Y-36587142D01*
X178840357Y-37634761D02*
X177887976Y-37634761D01*
X177887976Y-35634761D01*
X178840357Y-35634761D01*
X180840357Y-37634761D02*
X180173690Y-36682380D01*
X179697500Y-37634761D02*
X179697500Y-35634761D01*
X180459404Y-35634761D01*
X180649880Y-35730000D01*
X180745119Y-35825238D01*
X180840357Y-36015714D01*
X180840357Y-36301428D01*
X180745119Y-36491904D01*
X180649880Y-36587142D01*
X180459404Y-36682380D01*
X179697500Y-36682380D01*
X181602261Y-37539523D02*
X181887976Y-37634761D01*
X182364166Y-37634761D01*
X182554642Y-37539523D01*
X182649880Y-37444285D01*
X182745119Y-37253809D01*
X182745119Y-37063333D01*
X182649880Y-36872857D01*
X182554642Y-36777619D01*
X182364166Y-36682380D01*
X181983214Y-36587142D01*
X181792738Y-36491904D01*
X181697500Y-36396666D01*
X181602261Y-36206190D01*
X181602261Y-36015714D01*
X181697500Y-35825238D01*
X181792738Y-35730000D01*
X181983214Y-35634761D01*
X182459404Y-35634761D01*
X182745119Y-35730000D01*
X183602261Y-37634761D02*
X183602261Y-35634761D01*
X184935595Y-35634761D02*
X185316547Y-35634761D01*
X185507023Y-35730000D01*
X185697500Y-35920476D01*
X185792738Y-36301428D01*
X185792738Y-36968095D01*
X185697500Y-37349047D01*
X185507023Y-37539523D01*
X185316547Y-37634761D01*
X184935595Y-37634761D01*
X184745119Y-37539523D01*
X184554642Y-37349047D01*
X184459404Y-36968095D01*
X184459404Y-36301428D01*
X184554642Y-35920476D01*
X184745119Y-35730000D01*
X184935595Y-35634761D01*
X186649880Y-37634761D02*
X186649880Y-35634761D01*
X187792738Y-37634761D01*
X187792738Y-35634761D01*
X191316547Y-37634761D02*
X190173690Y-37634761D01*
X190745119Y-37634761D02*
X190745119Y-35634761D01*
X190554642Y-35920476D01*
X190364166Y-36110952D01*
X190173690Y-36206190D01*
X170745119Y-40664285D02*
X170649880Y-40759523D01*
X170364166Y-40854761D01*
X170173690Y-40854761D01*
X169887976Y-40759523D01*
X169697500Y-40569047D01*
X169602261Y-40378571D01*
X169507023Y-39997619D01*
X169507023Y-39711904D01*
X169602261Y-39330952D01*
X169697500Y-39140476D01*
X169887976Y-38950000D01*
X170173690Y-38854761D01*
X170364166Y-38854761D01*
X170649880Y-38950000D01*
X170745119Y-39045238D01*
X172745119Y-40664285D02*
X172649880Y-40759523D01*
X172364166Y-40854761D01*
X172173690Y-40854761D01*
X171887976Y-40759523D01*
X171697500Y-40569047D01*
X171602261Y-40378571D01*
X171507023Y-39997619D01*
X171507023Y-39711904D01*
X171602261Y-39330952D01*
X171697500Y-39140476D01*
X171887976Y-38950000D01*
X172173690Y-38854761D01*
X172364166Y-38854761D01*
X172649880Y-38950000D01*
X172745119Y-39045238D01*
X173602261Y-40092857D02*
X175126071Y-40092857D01*
X176745119Y-39807142D02*
X177030833Y-39902380D01*
X177126071Y-39997619D01*
X177221309Y-40188095D01*
X177221309Y-40473809D01*
X177126071Y-40664285D01*
X177030833Y-40759523D01*
X176840357Y-40854761D01*
X176078452Y-40854761D01*
X176078452Y-38854761D01*
X176745119Y-38854761D01*
X176935595Y-38950000D01*
X177030833Y-39045238D01*
X177126071Y-39235714D01*
X177126071Y-39426190D01*
X177030833Y-39616666D01*
X176935595Y-39711904D01*
X176745119Y-39807142D01*
X176078452Y-39807142D01*
X178459404Y-39902380D02*
X178459404Y-40854761D01*
X177792738Y-38854761D02*
X178459404Y-39902380D01*
X179126071Y-38854761D01*
X179792738Y-40092857D02*
X181316547Y-40092857D01*
X182173690Y-40759523D02*
X182459404Y-40854761D01*
X182935595Y-40854761D01*
X183126071Y-40759523D01*
X183221309Y-40664285D01*
X183316547Y-40473809D01*
X183316547Y-40283333D01*
X183221309Y-40092857D01*
X183126071Y-39997619D01*
X182935595Y-39902380D01*
X182554642Y-39807142D01*
X182364166Y-39711904D01*
X182268928Y-39616666D01*
X182173690Y-39426190D01*
X182173690Y-39235714D01*
X182268928Y-39045238D01*
X182364166Y-38950000D01*
X182554642Y-38854761D01*
X183030833Y-38854761D01*
X183316547Y-38950000D01*
X184078452Y-40283333D02*
X185030833Y-40283333D01*
X183887976Y-40854761D02*
X184554642Y-38854761D01*
X185221309Y-40854761D01*
X188268928Y-39521428D02*
X188268928Y-40854761D01*
X187792738Y-38759523D02*
X187316547Y-40188095D01*
X188554642Y-40188095D01*
X189316547Y-40664285D02*
X189411785Y-40759523D01*
X189316547Y-40854761D01*
X189221309Y-40759523D01*
X189316547Y-40664285D01*
X189316547Y-40854761D01*
X190649880Y-38854761D02*
X190840357Y-38854761D01*
X191030833Y-38950000D01*
X191126071Y-39045238D01*
X191221309Y-39235714D01*
X191316547Y-39616666D01*
X191316547Y-40092857D01*
X191221309Y-40473809D01*
X191126071Y-40664285D01*
X191030833Y-40759523D01*
X190840357Y-40854761D01*
X190649880Y-40854761D01*
X190459404Y-40759523D01*
X190364166Y-40664285D01*
X190268928Y-40473809D01*
X190173690Y-40092857D01*
X190173690Y-39616666D01*
X190268928Y-39235714D01*
X190364166Y-39045238D01*
X190459404Y-38950000D01*
X190649880Y-38854761D01*
D10*
X179620000Y-75921904D02*
X179572380Y-76017142D01*
X179572380Y-76160000D01*
X179620000Y-76302857D01*
X179715238Y-76398095D01*
X179810476Y-76445714D01*
X180000952Y-76493333D01*
X180143809Y-76493333D01*
X180334285Y-76445714D01*
X180429523Y-76398095D01*
X180524761Y-76302857D01*
X180572380Y-76160000D01*
X180572380Y-76064761D01*
X180524761Y-75921904D01*
X180477142Y-75874285D01*
X180143809Y-75874285D01*
X180143809Y-76064761D01*
X180572380Y-75445714D02*
X179572380Y-75445714D01*
X180572380Y-74874285D01*
X179572380Y-74874285D01*
X180572380Y-74398095D02*
X179572380Y-74398095D01*
X179572380Y-74160000D01*
X179620000Y-74017142D01*
X179715238Y-73921904D01*
X179810476Y-73874285D01*
X180000952Y-73826666D01*
X180143809Y-73826666D01*
X180334285Y-73874285D01*
X180429523Y-73921904D01*
X180524761Y-74017142D01*
X180572380Y-74160000D01*
X180572380Y-74398095D01*
X67686666Y-91249047D02*
X67686666Y-90772857D01*
X67972380Y-91344285D02*
X66972380Y-91010952D01*
X67972380Y-90677619D01*
X67972380Y-89772857D02*
X67496190Y-90106190D01*
X67972380Y-90344285D02*
X66972380Y-90344285D01*
X66972380Y-89963333D01*
X67020000Y-89868095D01*
X67067619Y-89820476D01*
X67162857Y-89772857D01*
X67305714Y-89772857D01*
X67400952Y-89820476D01*
X67448571Y-89868095D01*
X67496190Y-89963333D01*
X67496190Y-90344285D01*
X67448571Y-89344285D02*
X67448571Y-89010952D01*
X67972380Y-88868095D02*
X67972380Y-89344285D01*
X66972380Y-89344285D01*
X66972380Y-88868095D01*
X67448571Y-88106190D02*
X67448571Y-88439523D01*
X67972380Y-88439523D02*
X66972380Y-88439523D01*
X66972380Y-87963333D01*
X154202380Y-76344761D02*
X154202380Y-75678095D01*
X155202380Y-76106666D01*
X155202380Y-75297142D02*
X154202380Y-75297142D01*
X154916666Y-74963809D01*
X154202380Y-74630476D01*
X155202380Y-74630476D01*
X166632380Y-90525714D02*
X165632380Y-90525714D01*
X166632380Y-89954285D01*
X165632380Y-89954285D01*
X166537142Y-88906666D02*
X166584761Y-88954285D01*
X166632380Y-89097142D01*
X166632380Y-89192380D01*
X166584761Y-89335238D01*
X166489523Y-89430476D01*
X166394285Y-89478095D01*
X166203809Y-89525714D01*
X166060952Y-89525714D01*
X165870476Y-89478095D01*
X165775238Y-89430476D01*
X165680000Y-89335238D01*
X165632380Y-89192380D01*
X165632380Y-89097142D01*
X165680000Y-88954285D01*
X165727619Y-88906666D01*
X85662380Y-90468095D02*
X84662380Y-90468095D01*
X84662380Y-90087142D01*
X84710000Y-89991904D01*
X84757619Y-89944285D01*
X84852857Y-89896666D01*
X84995714Y-89896666D01*
X85090952Y-89944285D01*
X85138571Y-89991904D01*
X85186190Y-90087142D01*
X85186190Y-90468095D01*
X85138571Y-89134761D02*
X85186190Y-88991904D01*
X85233809Y-88944285D01*
X85329047Y-88896666D01*
X85471904Y-88896666D01*
X85567142Y-88944285D01*
X85614761Y-88991904D01*
X85662380Y-89087142D01*
X85662380Y-89468095D01*
X84662380Y-89468095D01*
X84662380Y-89134761D01*
X84710000Y-89039523D01*
X84757619Y-88991904D01*
X84852857Y-88944285D01*
X84948095Y-88944285D01*
X85043333Y-88991904D01*
X85090952Y-89039523D01*
X85138571Y-89134761D01*
X85138571Y-89468095D01*
X84662380Y-88277619D02*
X84662380Y-88182380D01*
X84710000Y-88087142D01*
X84757619Y-88039523D01*
X84852857Y-87991904D01*
X85043333Y-87944285D01*
X85281428Y-87944285D01*
X85471904Y-87991904D01*
X85567142Y-88039523D01*
X85614761Y-88087142D01*
X85662380Y-88182380D01*
X85662380Y-88277619D01*
X85614761Y-88372857D01*
X85567142Y-88420476D01*
X85471904Y-88468095D01*
X85281428Y-88515714D01*
X85043333Y-88515714D01*
X84852857Y-88468095D01*
X84757619Y-88420476D01*
X84710000Y-88372857D01*
X84662380Y-88277619D01*
X123136666Y-90084285D02*
X123136666Y-89608095D01*
X123422380Y-90179523D02*
X122422380Y-89846190D01*
X123422380Y-89512857D01*
X122422380Y-88989047D02*
X122422380Y-88893809D01*
X122470000Y-88798571D01*
X122517619Y-88750952D01*
X122612857Y-88703333D01*
X122803333Y-88655714D01*
X123041428Y-88655714D01*
X123231904Y-88703333D01*
X123327142Y-88750952D01*
X123374761Y-88798571D01*
X123422380Y-88893809D01*
X123422380Y-88989047D01*
X123374761Y-89084285D01*
X123327142Y-89131904D01*
X123231904Y-89179523D01*
X123041428Y-89227142D01*
X122803333Y-89227142D01*
X122612857Y-89179523D01*
X122517619Y-89131904D01*
X122470000Y-89084285D01*
X122422380Y-88989047D01*
X129642380Y-76448095D02*
X128642380Y-76448095D01*
X128642380Y-76210000D01*
X128690000Y-76067142D01*
X128785238Y-75971904D01*
X128880476Y-75924285D01*
X129070952Y-75876666D01*
X129213809Y-75876666D01*
X129404285Y-75924285D01*
X129499523Y-75971904D01*
X129594761Y-76067142D01*
X129642380Y-76210000D01*
X129642380Y-76448095D01*
X128642380Y-75543333D02*
X128642380Y-74924285D01*
X129023333Y-75257619D01*
X129023333Y-75114761D01*
X129070952Y-75019523D01*
X129118571Y-74971904D01*
X129213809Y-74924285D01*
X129451904Y-74924285D01*
X129547142Y-74971904D01*
X129594761Y-75019523D01*
X129642380Y-75114761D01*
X129642380Y-75400476D01*
X129594761Y-75495714D01*
X129547142Y-75543333D01*
X125556666Y-90084285D02*
X125556666Y-89608095D01*
X125842380Y-90179523D02*
X124842380Y-89846190D01*
X125842380Y-89512857D01*
X125842380Y-88655714D02*
X125842380Y-89227142D01*
X125842380Y-88941428D02*
X124842380Y-88941428D01*
X124985238Y-89036666D01*
X125080476Y-89131904D01*
X125128095Y-89227142D01*
X139782380Y-76408095D02*
X138782380Y-76408095D01*
X138782380Y-76170000D01*
X138830000Y-76027142D01*
X138925238Y-75931904D01*
X139020476Y-75884285D01*
X139210952Y-75836666D01*
X139353809Y-75836666D01*
X139544285Y-75884285D01*
X139639523Y-75931904D01*
X139734761Y-76027142D01*
X139782380Y-76170000D01*
X139782380Y-76408095D01*
X138782380Y-75503333D02*
X138782380Y-74836666D01*
X139782380Y-75265238D01*
X105212380Y-90476666D02*
X104212380Y-90476666D01*
X104212380Y-90095714D01*
X104260000Y-90000476D01*
X104307619Y-89952857D01*
X104402857Y-89905238D01*
X104545714Y-89905238D01*
X104640952Y-89952857D01*
X104688571Y-90000476D01*
X104736190Y-90095714D01*
X104736190Y-90476666D01*
X104926666Y-89524285D02*
X104926666Y-89048095D01*
X105212380Y-89619523D02*
X104212380Y-89286190D01*
X105212380Y-88952857D01*
X105212380Y-88095714D02*
X105212380Y-88667142D01*
X105212380Y-88381428D02*
X104212380Y-88381428D01*
X104355238Y-88476666D01*
X104450476Y-88571904D01*
X104498095Y-88667142D01*
X179392380Y-94120476D02*
X178392380Y-94120476D01*
X178392380Y-93882380D01*
X178440000Y-93739523D01*
X178535238Y-93644285D01*
X178630476Y-93596666D01*
X178820952Y-93549047D01*
X178963809Y-93549047D01*
X179154285Y-93596666D01*
X179249523Y-93644285D01*
X179344761Y-93739523D01*
X179392380Y-93882380D01*
X179392380Y-94120476D01*
X179392380Y-93120476D02*
X178392380Y-93120476D01*
X179106666Y-92787142D01*
X178392380Y-92453809D01*
X179392380Y-92453809D01*
X179106666Y-92025238D02*
X179106666Y-91549047D01*
X179392380Y-92120476D02*
X178392380Y-91787142D01*
X179392380Y-91453809D01*
X178392380Y-90930000D02*
X178392380Y-90739523D01*
X178440000Y-90644285D01*
X178535238Y-90549047D01*
X178725714Y-90501428D01*
X179059047Y-90501428D01*
X179249523Y-90549047D01*
X179344761Y-90644285D01*
X179392380Y-90739523D01*
X179392380Y-90930000D01*
X179344761Y-91025238D01*
X179249523Y-91120476D01*
X179059047Y-91168095D01*
X178725714Y-91168095D01*
X178535238Y-91120476D01*
X178440000Y-91025238D01*
X178392380Y-90930000D01*
X178392380Y-90072857D02*
X179201904Y-90072857D01*
X179297142Y-90025238D01*
X179344761Y-89977619D01*
X179392380Y-89882380D01*
X179392380Y-89691904D01*
X179344761Y-89596666D01*
X179297142Y-89549047D01*
X179201904Y-89501428D01*
X178392380Y-89501428D01*
X178392380Y-89168095D02*
X178392380Y-88596666D01*
X179392380Y-88882380D02*
X178392380Y-88882380D01*
X156196666Y-91160476D02*
X156196666Y-90684285D01*
X156482380Y-91255714D02*
X155482380Y-90922380D01*
X156482380Y-90589047D01*
X156482380Y-89731904D02*
X156482380Y-90303333D01*
X156482380Y-90017619D02*
X155482380Y-90017619D01*
X155625238Y-90112857D01*
X155720476Y-90208095D01*
X155768095Y-90303333D01*
X155482380Y-89398571D02*
X155482380Y-88779523D01*
X155863333Y-89112857D01*
X155863333Y-88970000D01*
X155910952Y-88874761D01*
X155958571Y-88827142D01*
X156053809Y-88779523D01*
X156291904Y-88779523D01*
X156387142Y-88827142D01*
X156434761Y-88874761D01*
X156482380Y-88970000D01*
X156482380Y-89255714D01*
X156434761Y-89350952D01*
X156387142Y-89398571D01*
X83590000Y-33081904D02*
X83542380Y-33177142D01*
X83542380Y-33320000D01*
X83590000Y-33462857D01*
X83685238Y-33558095D01*
X83780476Y-33605714D01*
X83970952Y-33653333D01*
X84113809Y-33653333D01*
X84304285Y-33605714D01*
X84399523Y-33558095D01*
X84494761Y-33462857D01*
X84542380Y-33320000D01*
X84542380Y-33224761D01*
X84494761Y-33081904D01*
X84447142Y-33034285D01*
X84113809Y-33034285D01*
X84113809Y-33224761D01*
X84542380Y-32605714D02*
X83542380Y-32605714D01*
X84542380Y-32034285D01*
X83542380Y-32034285D01*
X84542380Y-31558095D02*
X83542380Y-31558095D01*
X83542380Y-31320000D01*
X83590000Y-31177142D01*
X83685238Y-31081904D01*
X83780476Y-31034285D01*
X83970952Y-30986666D01*
X84113809Y-30986666D01*
X84304285Y-31034285D01*
X84399523Y-31081904D01*
X84494761Y-31177142D01*
X84542380Y-31320000D01*
X84542380Y-31558095D01*
X162321428Y-76431904D02*
X162321428Y-75670000D01*
X162702380Y-74670000D02*
X162702380Y-75241428D01*
X162702380Y-74955714D02*
X161702380Y-74955714D01*
X161845238Y-75050952D01*
X161940476Y-75146190D01*
X161988095Y-75241428D01*
X161797619Y-74289047D02*
X161750000Y-74241428D01*
X161702380Y-74146190D01*
X161702380Y-73908095D01*
X161750000Y-73812857D01*
X161797619Y-73765238D01*
X161892857Y-73717619D01*
X161988095Y-73717619D01*
X162130952Y-73765238D01*
X162702380Y-74336666D01*
X162702380Y-73717619D01*
X161702380Y-73431904D02*
X162702380Y-73098571D01*
X161702380Y-72765238D01*
X107692380Y-90476666D02*
X106692380Y-90476666D01*
X106692380Y-90095714D01*
X106740000Y-90000476D01*
X106787619Y-89952857D01*
X106882857Y-89905238D01*
X107025714Y-89905238D01*
X107120952Y-89952857D01*
X107168571Y-90000476D01*
X107216190Y-90095714D01*
X107216190Y-90476666D01*
X107406666Y-89524285D02*
X107406666Y-89048095D01*
X107692380Y-89619523D02*
X106692380Y-89286190D01*
X107692380Y-88952857D01*
X106692380Y-88429047D02*
X106692380Y-88333809D01*
X106740000Y-88238571D01*
X106787619Y-88190952D01*
X106882857Y-88143333D01*
X107073333Y-88095714D01*
X107311428Y-88095714D01*
X107501904Y-88143333D01*
X107597142Y-88190952D01*
X107644761Y-88238571D01*
X107692380Y-88333809D01*
X107692380Y-88429047D01*
X107644761Y-88524285D01*
X107597142Y-88571904D01*
X107501904Y-88619523D01*
X107311428Y-88667142D01*
X107073333Y-88667142D01*
X106882857Y-88619523D01*
X106787619Y-88571904D01*
X106740000Y-88524285D01*
X106692380Y-88429047D01*
X159478571Y-46492380D02*
X159526190Y-46349523D01*
X159573809Y-46301904D01*
X159669047Y-46254285D01*
X159811904Y-46254285D01*
X159907142Y-46301904D01*
X159954761Y-46349523D01*
X160002380Y-46444761D01*
X160002380Y-46825714D01*
X159002380Y-46825714D01*
X159002380Y-46492380D01*
X159050000Y-46397142D01*
X159097619Y-46349523D01*
X159192857Y-46301904D01*
X159288095Y-46301904D01*
X159383333Y-46349523D01*
X159430952Y-46397142D01*
X159478571Y-46492380D01*
X159478571Y-46825714D01*
X160002380Y-45825714D02*
X159002380Y-45825714D01*
X160002380Y-45254285D01*
X159002380Y-45254285D01*
X160002380Y-44778095D02*
X159002380Y-44778095D01*
X160002380Y-44206666D02*
X159430952Y-44635238D01*
X159002380Y-44206666D02*
X159573809Y-44778095D01*
X164072380Y-90031904D02*
X163596190Y-90365238D01*
X164072380Y-90603333D02*
X163072380Y-90603333D01*
X163072380Y-90222380D01*
X163120000Y-90127142D01*
X163167619Y-90079523D01*
X163262857Y-90031904D01*
X163405714Y-90031904D01*
X163500952Y-90079523D01*
X163548571Y-90127142D01*
X163596190Y-90222380D01*
X163596190Y-90603333D01*
X163072380Y-89698571D02*
X164072380Y-89460476D01*
X163358095Y-89270000D01*
X164072380Y-89079523D01*
X163072380Y-88841428D01*
X135716666Y-90174285D02*
X135716666Y-89698095D01*
X136002380Y-90269523D02*
X135002380Y-89936190D01*
X136002380Y-89602857D01*
X135002380Y-88793333D02*
X135002380Y-89269523D01*
X135478571Y-89317142D01*
X135430952Y-89269523D01*
X135383333Y-89174285D01*
X135383333Y-88936190D01*
X135430952Y-88840952D01*
X135478571Y-88793333D01*
X135573809Y-88745714D01*
X135811904Y-88745714D01*
X135907142Y-88793333D01*
X135954761Y-88840952D01*
X136002380Y-88936190D01*
X136002380Y-89174285D01*
X135954761Y-89269523D01*
X135907142Y-89317142D01*
X174232380Y-91391904D02*
X173232380Y-91391904D01*
X173232380Y-91153809D01*
X173280000Y-91010952D01*
X173375238Y-90915714D01*
X173470476Y-90868095D01*
X173660952Y-90820476D01*
X173803809Y-90820476D01*
X173994285Y-90868095D01*
X174089523Y-90915714D01*
X174184761Y-91010952D01*
X174232380Y-91153809D01*
X174232380Y-91391904D01*
X174232380Y-90391904D02*
X173232380Y-90391904D01*
X173946666Y-90058571D01*
X173232380Y-89725238D01*
X174232380Y-89725238D01*
X173946666Y-89296666D02*
X173946666Y-88820476D01*
X174232380Y-89391904D02*
X173232380Y-89058571D01*
X174232380Y-88725238D01*
X75682380Y-93808095D02*
X74682380Y-93808095D01*
X74682380Y-93427142D01*
X74730000Y-93331904D01*
X74777619Y-93284285D01*
X74872857Y-93236666D01*
X75015714Y-93236666D01*
X75110952Y-93284285D01*
X75158571Y-93331904D01*
X75206190Y-93427142D01*
X75206190Y-93808095D01*
X75587142Y-92236666D02*
X75634761Y-92284285D01*
X75682380Y-92427142D01*
X75682380Y-92522380D01*
X75634761Y-92665238D01*
X75539523Y-92760476D01*
X75444285Y-92808095D01*
X75253809Y-92855714D01*
X75110952Y-92855714D01*
X74920476Y-92808095D01*
X74825238Y-92760476D01*
X74730000Y-92665238D01*
X74682380Y-92522380D01*
X74682380Y-92427142D01*
X74730000Y-92284285D01*
X74777619Y-92236666D01*
X74682380Y-91617619D02*
X74682380Y-91522380D01*
X74730000Y-91427142D01*
X74777619Y-91379523D01*
X74872857Y-91331904D01*
X75063333Y-91284285D01*
X75301428Y-91284285D01*
X75491904Y-91331904D01*
X75587142Y-91379523D01*
X75634761Y-91427142D01*
X75682380Y-91522380D01*
X75682380Y-91617619D01*
X75634761Y-91712857D01*
X75587142Y-91760476D01*
X75491904Y-91808095D01*
X75301428Y-91855714D01*
X75063333Y-91855714D01*
X74872857Y-91808095D01*
X74777619Y-91760476D01*
X74730000Y-91712857D01*
X74682380Y-91617619D01*
X86270000Y-33101904D02*
X86222380Y-33197142D01*
X86222380Y-33340000D01*
X86270000Y-33482857D01*
X86365238Y-33578095D01*
X86460476Y-33625714D01*
X86650952Y-33673333D01*
X86793809Y-33673333D01*
X86984285Y-33625714D01*
X87079523Y-33578095D01*
X87174761Y-33482857D01*
X87222380Y-33340000D01*
X87222380Y-33244761D01*
X87174761Y-33101904D01*
X87127142Y-33054285D01*
X86793809Y-33054285D01*
X86793809Y-33244761D01*
X87222380Y-32625714D02*
X86222380Y-32625714D01*
X87222380Y-32054285D01*
X86222380Y-32054285D01*
X87222380Y-31578095D02*
X86222380Y-31578095D01*
X86222380Y-31340000D01*
X86270000Y-31197142D01*
X86365238Y-31101904D01*
X86460476Y-31054285D01*
X86650952Y-31006666D01*
X86793809Y-31006666D01*
X86984285Y-31054285D01*
X87079523Y-31101904D01*
X87174761Y-31197142D01*
X87222380Y-31340000D01*
X87222380Y-31578095D01*
X122162380Y-76478095D02*
X121162380Y-76478095D01*
X121162380Y-76240000D01*
X121210000Y-76097142D01*
X121305238Y-76001904D01*
X121400476Y-75954285D01*
X121590952Y-75906666D01*
X121733809Y-75906666D01*
X121924285Y-75954285D01*
X122019523Y-76001904D01*
X122114761Y-76097142D01*
X122162380Y-76240000D01*
X122162380Y-76478095D01*
X121162380Y-75287619D02*
X121162380Y-75192380D01*
X121210000Y-75097142D01*
X121257619Y-75049523D01*
X121352857Y-75001904D01*
X121543333Y-74954285D01*
X121781428Y-74954285D01*
X121971904Y-75001904D01*
X122067142Y-75049523D01*
X122114761Y-75097142D01*
X122162380Y-75192380D01*
X122162380Y-75287619D01*
X122114761Y-75382857D01*
X122067142Y-75430476D01*
X121971904Y-75478095D01*
X121781428Y-75525714D01*
X121543333Y-75525714D01*
X121352857Y-75478095D01*
X121257619Y-75430476D01*
X121210000Y-75382857D01*
X121162380Y-75287619D01*
X145055714Y-69772380D02*
X144484285Y-69772380D01*
X144770000Y-69772380D02*
X144770000Y-68772380D01*
X144674761Y-68915238D01*
X144579523Y-69010476D01*
X144484285Y-69058095D01*
X89672380Y-90456666D02*
X88672380Y-90456666D01*
X88672380Y-90075714D01*
X88720000Y-89980476D01*
X88767619Y-89932857D01*
X88862857Y-89885238D01*
X89005714Y-89885238D01*
X89100952Y-89932857D01*
X89148571Y-89980476D01*
X89196190Y-90075714D01*
X89196190Y-90456666D01*
X89386666Y-89504285D02*
X89386666Y-89028095D01*
X89672380Y-89599523D02*
X88672380Y-89266190D01*
X89672380Y-88932857D01*
X88672380Y-88694761D02*
X88672380Y-88028095D01*
X89672380Y-88456666D01*
X181611428Y-91475714D02*
X181611428Y-90713809D01*
X181992380Y-91094761D02*
X181230476Y-91094761D01*
X180992380Y-89761428D02*
X180992380Y-90237619D01*
X181468571Y-90285238D01*
X181420952Y-90237619D01*
X181373333Y-90142380D01*
X181373333Y-89904285D01*
X181420952Y-89809047D01*
X181468571Y-89761428D01*
X181563809Y-89713809D01*
X181801904Y-89713809D01*
X181897142Y-89761428D01*
X181944761Y-89809047D01*
X181992380Y-89904285D01*
X181992380Y-90142380D01*
X181944761Y-90237619D01*
X181897142Y-90285238D01*
X180992380Y-89428095D02*
X181992380Y-89094761D01*
X180992380Y-88761428D01*
X150072380Y-76408095D02*
X149072380Y-76408095D01*
X149072380Y-76027142D01*
X149120000Y-75931904D01*
X149167619Y-75884285D01*
X149262857Y-75836666D01*
X149405714Y-75836666D01*
X149500952Y-75884285D01*
X149548571Y-75931904D01*
X149596190Y-76027142D01*
X149596190Y-76408095D01*
X150072380Y-75408095D02*
X149072380Y-75408095D01*
X149548571Y-75408095D02*
X149548571Y-74836666D01*
X150072380Y-74836666D02*
X149072380Y-74836666D01*
X150024761Y-74408095D02*
X150072380Y-74265238D01*
X150072380Y-74027142D01*
X150024761Y-73931904D01*
X149977142Y-73884285D01*
X149881904Y-73836666D01*
X149786666Y-73836666D01*
X149691428Y-73884285D01*
X149643809Y-73931904D01*
X149596190Y-74027142D01*
X149548571Y-74217619D01*
X149500952Y-74312857D01*
X149453333Y-74360476D01*
X149358095Y-74408095D01*
X149262857Y-74408095D01*
X149167619Y-74360476D01*
X149120000Y-74312857D01*
X149072380Y-74217619D01*
X149072380Y-73979523D01*
X149120000Y-73836666D01*
X150072380Y-72884285D02*
X150072380Y-73455714D01*
X150072380Y-73170000D02*
X149072380Y-73170000D01*
X149215238Y-73265238D01*
X149310476Y-73360476D01*
X149358095Y-73455714D01*
X167762380Y-75859047D02*
X167286190Y-76192380D01*
X167762380Y-76430476D02*
X166762380Y-76430476D01*
X166762380Y-76049523D01*
X166810000Y-75954285D01*
X166857619Y-75906666D01*
X166952857Y-75859047D01*
X167095714Y-75859047D01*
X167190952Y-75906666D01*
X167238571Y-75954285D01*
X167286190Y-76049523D01*
X167286190Y-76430476D01*
X167238571Y-75430476D02*
X167238571Y-75097142D01*
X167762380Y-74954285D02*
X167762380Y-75430476D01*
X166762380Y-75430476D01*
X166762380Y-74954285D01*
X167714761Y-74573333D02*
X167762380Y-74430476D01*
X167762380Y-74192380D01*
X167714761Y-74097142D01*
X167667142Y-74049523D01*
X167571904Y-74001904D01*
X167476666Y-74001904D01*
X167381428Y-74049523D01*
X167333809Y-74097142D01*
X167286190Y-74192380D01*
X167238571Y-74382857D01*
X167190952Y-74478095D01*
X167143333Y-74525714D01*
X167048095Y-74573333D01*
X166952857Y-74573333D01*
X166857619Y-74525714D01*
X166810000Y-74478095D01*
X166762380Y-74382857D01*
X166762380Y-74144761D01*
X166810000Y-74001904D01*
X75622380Y-90538095D02*
X74622380Y-90538095D01*
X74622380Y-90157142D01*
X74670000Y-90061904D01*
X74717619Y-90014285D01*
X74812857Y-89966666D01*
X74955714Y-89966666D01*
X75050952Y-90014285D01*
X75098571Y-90061904D01*
X75146190Y-90157142D01*
X75146190Y-90538095D01*
X75098571Y-89204761D02*
X75146190Y-89061904D01*
X75193809Y-89014285D01*
X75289047Y-88966666D01*
X75431904Y-88966666D01*
X75527142Y-89014285D01*
X75574761Y-89061904D01*
X75622380Y-89157142D01*
X75622380Y-89538095D01*
X74622380Y-89538095D01*
X74622380Y-89204761D01*
X74670000Y-89109523D01*
X74717619Y-89061904D01*
X74812857Y-89014285D01*
X74908095Y-89014285D01*
X75003333Y-89061904D01*
X75050952Y-89109523D01*
X75098571Y-89204761D01*
X75098571Y-89538095D01*
X74955714Y-88109523D02*
X75622380Y-88109523D01*
X74574761Y-88347619D02*
X75289047Y-88585714D01*
X75289047Y-87966666D01*
X171712380Y-90559047D02*
X171236190Y-90892380D01*
X171712380Y-91130476D02*
X170712380Y-91130476D01*
X170712380Y-90749523D01*
X170760000Y-90654285D01*
X170807619Y-90606666D01*
X170902857Y-90559047D01*
X171045714Y-90559047D01*
X171140952Y-90606666D01*
X171188571Y-90654285D01*
X171236190Y-90749523D01*
X171236190Y-91130476D01*
X171712380Y-90130476D02*
X170712380Y-90130476D01*
X170712380Y-89892380D01*
X170760000Y-89749523D01*
X170855238Y-89654285D01*
X170950476Y-89606666D01*
X171140952Y-89559047D01*
X171283809Y-89559047D01*
X171474285Y-89606666D01*
X171569523Y-89654285D01*
X171664761Y-89749523D01*
X171712380Y-89892380D01*
X171712380Y-90130476D01*
X171236190Y-88940000D02*
X171712380Y-88940000D01*
X170712380Y-89273333D02*
X171236190Y-88940000D01*
X170712380Y-88606666D01*
X107392380Y-33698095D02*
X106392380Y-33698095D01*
X106392380Y-33317142D01*
X106440000Y-33221904D01*
X106487619Y-33174285D01*
X106582857Y-33126666D01*
X106725714Y-33126666D01*
X106820952Y-33174285D01*
X106868571Y-33221904D01*
X106916190Y-33317142D01*
X106916190Y-33698095D01*
X107297142Y-32126666D02*
X107344761Y-32174285D01*
X107392380Y-32317142D01*
X107392380Y-32412380D01*
X107344761Y-32555238D01*
X107249523Y-32650476D01*
X107154285Y-32698095D01*
X106963809Y-32745714D01*
X106820952Y-32745714D01*
X106630476Y-32698095D01*
X106535238Y-32650476D01*
X106440000Y-32555238D01*
X106392380Y-32412380D01*
X106392380Y-32317142D01*
X106440000Y-32174285D01*
X106487619Y-32126666D01*
X106392380Y-31793333D02*
X106392380Y-31174285D01*
X106773333Y-31507619D01*
X106773333Y-31364761D01*
X106820952Y-31269523D01*
X106868571Y-31221904D01*
X106963809Y-31174285D01*
X107201904Y-31174285D01*
X107297142Y-31221904D01*
X107344761Y-31269523D01*
X107392380Y-31364761D01*
X107392380Y-31650476D01*
X107344761Y-31745714D01*
X107297142Y-31793333D01*
X151156666Y-91170476D02*
X151156666Y-90694285D01*
X151442380Y-91265714D02*
X150442380Y-90932380D01*
X151442380Y-90599047D01*
X151442380Y-89741904D02*
X151442380Y-90313333D01*
X151442380Y-90027619D02*
X150442380Y-90027619D01*
X150585238Y-90122857D01*
X150680476Y-90218095D01*
X150728095Y-90313333D01*
X151442380Y-88789523D02*
X151442380Y-89360952D01*
X151442380Y-89075238D02*
X150442380Y-89075238D01*
X150585238Y-89170476D01*
X150680476Y-89265714D01*
X150728095Y-89360952D01*
X83082380Y-90518095D02*
X82082380Y-90518095D01*
X82082380Y-90137142D01*
X82130000Y-90041904D01*
X82177619Y-89994285D01*
X82272857Y-89946666D01*
X82415714Y-89946666D01*
X82510952Y-89994285D01*
X82558571Y-90041904D01*
X82606190Y-90137142D01*
X82606190Y-90518095D01*
X82558571Y-89184761D02*
X82606190Y-89041904D01*
X82653809Y-88994285D01*
X82749047Y-88946666D01*
X82891904Y-88946666D01*
X82987142Y-88994285D01*
X83034761Y-89041904D01*
X83082380Y-89137142D01*
X83082380Y-89518095D01*
X82082380Y-89518095D01*
X82082380Y-89184761D01*
X82130000Y-89089523D01*
X82177619Y-89041904D01*
X82272857Y-88994285D01*
X82368095Y-88994285D01*
X82463333Y-89041904D01*
X82510952Y-89089523D01*
X82558571Y-89184761D01*
X82558571Y-89518095D01*
X83082380Y-87994285D02*
X83082380Y-88565714D01*
X83082380Y-88280000D02*
X82082380Y-88280000D01*
X82225238Y-88375238D01*
X82320476Y-88470476D01*
X82368095Y-88565714D01*
X81711428Y-33685714D02*
X81711428Y-32923809D01*
X82092380Y-33304761D02*
X81330476Y-33304761D01*
X81092380Y-31971428D02*
X81092380Y-32447619D01*
X81568571Y-32495238D01*
X81520952Y-32447619D01*
X81473333Y-32352380D01*
X81473333Y-32114285D01*
X81520952Y-32019047D01*
X81568571Y-31971428D01*
X81663809Y-31923809D01*
X81901904Y-31923809D01*
X81997142Y-31971428D01*
X82044761Y-32019047D01*
X82092380Y-32114285D01*
X82092380Y-32352380D01*
X82044761Y-32447619D01*
X81997142Y-32495238D01*
X81092380Y-31638095D02*
X82092380Y-31304761D01*
X81092380Y-30971428D01*
X120902380Y-92557142D02*
X119902380Y-92557142D01*
X119902380Y-91890476D02*
X119902380Y-91700000D01*
X119950000Y-91604761D01*
X120045238Y-91509523D01*
X120235714Y-91461904D01*
X120569047Y-91461904D01*
X120759523Y-91509523D01*
X120854761Y-91604761D01*
X120902380Y-91700000D01*
X120902380Y-91890476D01*
X120854761Y-91985714D01*
X120759523Y-92080952D01*
X120569047Y-92128571D01*
X120235714Y-92128571D01*
X120045238Y-92080952D01*
X119950000Y-91985714D01*
X119902380Y-91890476D01*
X120854761Y-91080952D02*
X120902380Y-90938095D01*
X120902380Y-90700000D01*
X120854761Y-90604761D01*
X120807142Y-90557142D01*
X120711904Y-90509523D01*
X120616666Y-90509523D01*
X120521428Y-90557142D01*
X120473809Y-90604761D01*
X120426190Y-90700000D01*
X120378571Y-90890476D01*
X120330952Y-90985714D01*
X120283333Y-91033333D01*
X120188095Y-91080952D01*
X120092857Y-91080952D01*
X119997619Y-91033333D01*
X119950000Y-90985714D01*
X119902380Y-90890476D01*
X119902380Y-90652380D01*
X119950000Y-90509523D01*
X120378571Y-90080952D02*
X120378571Y-89747619D01*
X120902380Y-89604761D02*
X120902380Y-90080952D01*
X119902380Y-90080952D01*
X119902380Y-89604761D01*
X120902380Y-88700000D02*
X120902380Y-89176190D01*
X119902380Y-89176190D01*
X97372380Y-33698095D02*
X96372380Y-33698095D01*
X96372380Y-33317142D01*
X96420000Y-33221904D01*
X96467619Y-33174285D01*
X96562857Y-33126666D01*
X96705714Y-33126666D01*
X96800952Y-33174285D01*
X96848571Y-33221904D01*
X96896190Y-33317142D01*
X96896190Y-33698095D01*
X97277142Y-32126666D02*
X97324761Y-32174285D01*
X97372380Y-32317142D01*
X97372380Y-32412380D01*
X97324761Y-32555238D01*
X97229523Y-32650476D01*
X97134285Y-32698095D01*
X96943809Y-32745714D01*
X96800952Y-32745714D01*
X96610476Y-32698095D01*
X96515238Y-32650476D01*
X96420000Y-32555238D01*
X96372380Y-32412380D01*
X96372380Y-32317142D01*
X96420000Y-32174285D01*
X96467619Y-32126666D01*
X96372380Y-31221904D02*
X96372380Y-31698095D01*
X96848571Y-31745714D01*
X96800952Y-31698095D01*
X96753333Y-31602857D01*
X96753333Y-31364761D01*
X96800952Y-31269523D01*
X96848571Y-31221904D01*
X96943809Y-31174285D01*
X97181904Y-31174285D01*
X97277142Y-31221904D01*
X97324761Y-31269523D01*
X97372380Y-31364761D01*
X97372380Y-31602857D01*
X97324761Y-31698095D01*
X97277142Y-31745714D01*
X80512380Y-90558095D02*
X79512380Y-90558095D01*
X79512380Y-90177142D01*
X79560000Y-90081904D01*
X79607619Y-90034285D01*
X79702857Y-89986666D01*
X79845714Y-89986666D01*
X79940952Y-90034285D01*
X79988571Y-90081904D01*
X80036190Y-90177142D01*
X80036190Y-90558095D01*
X79988571Y-89224761D02*
X80036190Y-89081904D01*
X80083809Y-89034285D01*
X80179047Y-88986666D01*
X80321904Y-88986666D01*
X80417142Y-89034285D01*
X80464761Y-89081904D01*
X80512380Y-89177142D01*
X80512380Y-89558095D01*
X79512380Y-89558095D01*
X79512380Y-89224761D01*
X79560000Y-89129523D01*
X79607619Y-89081904D01*
X79702857Y-89034285D01*
X79798095Y-89034285D01*
X79893333Y-89081904D01*
X79940952Y-89129523D01*
X79988571Y-89224761D01*
X79988571Y-89558095D01*
X79607619Y-88605714D02*
X79560000Y-88558095D01*
X79512380Y-88462857D01*
X79512380Y-88224761D01*
X79560000Y-88129523D01*
X79607619Y-88081904D01*
X79702857Y-88034285D01*
X79798095Y-88034285D01*
X79940952Y-88081904D01*
X80512380Y-88653333D01*
X80512380Y-88034285D01*
X175482380Y-76456666D02*
X174482380Y-76456666D01*
X175482380Y-75980476D02*
X174482380Y-75980476D01*
X175482380Y-75409047D01*
X174482380Y-75409047D01*
X174482380Y-75075714D02*
X174482380Y-74504285D01*
X175482380Y-74790000D02*
X174482380Y-74790000D01*
X175482380Y-74170952D02*
X174482380Y-74170952D01*
X175482380Y-73694761D02*
X174482380Y-73694761D01*
X175482380Y-73123333D01*
X174482380Y-73123333D01*
X153616666Y-91140476D02*
X153616666Y-90664285D01*
X153902380Y-91235714D02*
X152902380Y-90902380D01*
X153902380Y-90569047D01*
X153902380Y-89711904D02*
X153902380Y-90283333D01*
X153902380Y-89997619D02*
X152902380Y-89997619D01*
X153045238Y-90092857D01*
X153140476Y-90188095D01*
X153188095Y-90283333D01*
X152997619Y-89330952D02*
X152950000Y-89283333D01*
X152902380Y-89188095D01*
X152902380Y-88950000D01*
X152950000Y-88854761D01*
X152997619Y-88807142D01*
X153092857Y-88759523D01*
X153188095Y-88759523D01*
X153330952Y-88807142D01*
X153902380Y-89378571D01*
X153902380Y-88759523D01*
X62822380Y-90438095D02*
X61822380Y-90438095D01*
X61822380Y-90057142D01*
X61870000Y-89961904D01*
X61917619Y-89914285D01*
X62012857Y-89866666D01*
X62155714Y-89866666D01*
X62250952Y-89914285D01*
X62298571Y-89961904D01*
X62346190Y-90057142D01*
X62346190Y-90438095D01*
X62298571Y-89104761D02*
X62346190Y-88961904D01*
X62393809Y-88914285D01*
X62489047Y-88866666D01*
X62631904Y-88866666D01*
X62727142Y-88914285D01*
X62774761Y-88961904D01*
X62822380Y-89057142D01*
X62822380Y-89438095D01*
X61822380Y-89438095D01*
X61822380Y-89104761D01*
X61870000Y-89009523D01*
X61917619Y-88961904D01*
X62012857Y-88914285D01*
X62108095Y-88914285D01*
X62203333Y-88961904D01*
X62250952Y-89009523D01*
X62298571Y-89104761D01*
X62298571Y-89438095D01*
X61822380Y-88533333D02*
X61822380Y-87866666D01*
X62822380Y-88295238D01*
X175253333Y-59032380D02*
X175920000Y-59032380D01*
X175491428Y-60032380D01*
X176729523Y-59365714D02*
X176729523Y-60032380D01*
X176491428Y-58984761D02*
X176253333Y-59699047D01*
X176872380Y-59699047D01*
X177253333Y-60032380D02*
X177253333Y-59032380D01*
X177253333Y-59508571D02*
X177824761Y-59508571D01*
X177824761Y-60032380D02*
X177824761Y-59032380D01*
X178872380Y-59937142D02*
X178824761Y-59984761D01*
X178681904Y-60032380D01*
X178586666Y-60032380D01*
X178443809Y-59984761D01*
X178348571Y-59889523D01*
X178300952Y-59794285D01*
X178253333Y-59603809D01*
X178253333Y-59460952D01*
X178300952Y-59270476D01*
X178348571Y-59175238D01*
X178443809Y-59080000D01*
X178586666Y-59032380D01*
X178681904Y-59032380D01*
X178824761Y-59080000D01*
X178872380Y-59127619D01*
X179158095Y-59032380D02*
X179729523Y-59032380D01*
X179443809Y-60032380D02*
X179443809Y-59032380D01*
X180253333Y-59032380D02*
X180348571Y-59032380D01*
X180443809Y-59080000D01*
X180491428Y-59127619D01*
X180539047Y-59222857D01*
X180586666Y-59413333D01*
X180586666Y-59651428D01*
X180539047Y-59841904D01*
X180491428Y-59937142D01*
X180443809Y-59984761D01*
X180348571Y-60032380D01*
X180253333Y-60032380D01*
X180158095Y-59984761D01*
X180110476Y-59937142D01*
X180062857Y-59841904D01*
X180015238Y-59651428D01*
X180015238Y-59413333D01*
X180062857Y-59222857D01*
X180110476Y-59127619D01*
X180158095Y-59080000D01*
X180253333Y-59032380D01*
X181205714Y-59032380D02*
X181300952Y-59032380D01*
X181396190Y-59080000D01*
X181443809Y-59127619D01*
X181491428Y-59222857D01*
X181539047Y-59413333D01*
X181539047Y-59651428D01*
X181491428Y-59841904D01*
X181443809Y-59937142D01*
X181396190Y-59984761D01*
X181300952Y-60032380D01*
X181205714Y-60032380D01*
X181110476Y-59984761D01*
X181062857Y-59937142D01*
X181015238Y-59841904D01*
X180967619Y-59651428D01*
X180967619Y-59413333D01*
X181015238Y-59222857D01*
X181062857Y-59127619D01*
X181110476Y-59080000D01*
X181205714Y-59032380D01*
X142352380Y-76448095D02*
X141352380Y-76448095D01*
X141352380Y-76210000D01*
X141400000Y-76067142D01*
X141495238Y-75971904D01*
X141590476Y-75924285D01*
X141780952Y-75876666D01*
X141923809Y-75876666D01*
X142114285Y-75924285D01*
X142209523Y-75971904D01*
X142304761Y-76067142D01*
X142352380Y-76210000D01*
X142352380Y-76448095D01*
X142304761Y-75495714D02*
X142352380Y-75352857D01*
X142352380Y-75114761D01*
X142304761Y-75019523D01*
X142257142Y-74971904D01*
X142161904Y-74924285D01*
X142066666Y-74924285D01*
X141971428Y-74971904D01*
X141923809Y-75019523D01*
X141876190Y-75114761D01*
X141828571Y-75305238D01*
X141780952Y-75400476D01*
X141733333Y-75448095D01*
X141638095Y-75495714D01*
X141542857Y-75495714D01*
X141447619Y-75448095D01*
X141400000Y-75400476D01*
X141352380Y-75305238D01*
X141352380Y-75067142D01*
X141400000Y-74924285D01*
X177952380Y-76383809D02*
X176952380Y-76383809D01*
X176952380Y-76145714D01*
X177000000Y-76002857D01*
X177095238Y-75907619D01*
X177190476Y-75860000D01*
X177380952Y-75812380D01*
X177523809Y-75812380D01*
X177714285Y-75860000D01*
X177809523Y-75907619D01*
X177904761Y-76002857D01*
X177952380Y-76145714D01*
X177952380Y-76383809D01*
X177952380Y-75383809D02*
X176952380Y-75383809D01*
X177666666Y-75050476D01*
X176952380Y-74717142D01*
X177952380Y-74717142D01*
X177666666Y-74288571D02*
X177666666Y-73812380D01*
X177952380Y-74383809D02*
X176952380Y-74050476D01*
X177952380Y-73717142D01*
X177952380Y-73383809D02*
X176952380Y-73383809D01*
X177952380Y-72907619D02*
X176952380Y-72907619D01*
X177952380Y-72336190D01*
X176952380Y-72336190D01*
X121443714Y-36520380D02*
X120872285Y-36520380D01*
X121158000Y-36520380D02*
X121158000Y-35520380D01*
X121062761Y-35663238D01*
X120967523Y-35758476D01*
X120872285Y-35806095D01*
X94862380Y-33698095D02*
X93862380Y-33698095D01*
X93862380Y-33317142D01*
X93910000Y-33221904D01*
X93957619Y-33174285D01*
X94052857Y-33126666D01*
X94195714Y-33126666D01*
X94290952Y-33174285D01*
X94338571Y-33221904D01*
X94386190Y-33317142D01*
X94386190Y-33698095D01*
X94767142Y-32126666D02*
X94814761Y-32174285D01*
X94862380Y-32317142D01*
X94862380Y-32412380D01*
X94814761Y-32555238D01*
X94719523Y-32650476D01*
X94624285Y-32698095D01*
X94433809Y-32745714D01*
X94290952Y-32745714D01*
X94100476Y-32698095D01*
X94005238Y-32650476D01*
X93910000Y-32555238D01*
X93862380Y-32412380D01*
X93862380Y-32317142D01*
X93910000Y-32174285D01*
X93957619Y-32126666D01*
X94195714Y-31269523D02*
X94862380Y-31269523D01*
X93814761Y-31507619D02*
X94529047Y-31745714D01*
X94529047Y-31126666D01*
X128196666Y-90064285D02*
X128196666Y-89588095D01*
X128482380Y-90159523D02*
X127482380Y-89826190D01*
X128482380Y-89492857D01*
X127577619Y-89207142D02*
X127530000Y-89159523D01*
X127482380Y-89064285D01*
X127482380Y-88826190D01*
X127530000Y-88730952D01*
X127577619Y-88683333D01*
X127672857Y-88635714D01*
X127768095Y-88635714D01*
X127910952Y-88683333D01*
X128482380Y-89254761D01*
X128482380Y-88635714D01*
X133226666Y-90174285D02*
X133226666Y-89698095D01*
X133512380Y-90269523D02*
X132512380Y-89936190D01*
X133512380Y-89602857D01*
X132845714Y-88840952D02*
X133512380Y-88840952D01*
X132464761Y-89079047D02*
X133179047Y-89317142D01*
X133179047Y-88698095D01*
X172962380Y-76465238D02*
X171962380Y-76465238D01*
X172962380Y-75893809D01*
X171962380Y-75893809D01*
X172962380Y-75417619D02*
X171962380Y-75417619D01*
X172676666Y-75084285D01*
X171962380Y-74750952D01*
X172962380Y-74750952D01*
X172962380Y-74274761D02*
X171962380Y-74274761D01*
X152647619Y-75745238D02*
X152600000Y-75840476D01*
X152504761Y-75935714D01*
X152361904Y-76078571D01*
X152314285Y-76173809D01*
X152314285Y-76269047D01*
X152552380Y-76221428D02*
X152504761Y-76316666D01*
X152409523Y-76411904D01*
X152219047Y-76459523D01*
X151885714Y-76459523D01*
X151695238Y-76411904D01*
X151600000Y-76316666D01*
X151552380Y-76221428D01*
X151552380Y-76030952D01*
X151600000Y-75935714D01*
X151695238Y-75840476D01*
X151885714Y-75792857D01*
X152219047Y-75792857D01*
X152409523Y-75840476D01*
X152504761Y-75935714D01*
X152552380Y-76030952D01*
X152552380Y-76221428D01*
X151552380Y-75459523D02*
X151552380Y-74840476D01*
X151933333Y-75173809D01*
X151933333Y-75030952D01*
X151980952Y-74935714D01*
X152028571Y-74888095D01*
X152123809Y-74840476D01*
X152361904Y-74840476D01*
X152457142Y-74888095D01*
X152504761Y-74935714D01*
X152552380Y-75030952D01*
X152552380Y-75316666D01*
X152504761Y-75411904D01*
X152457142Y-75459523D01*
X102512380Y-33648095D02*
X101512380Y-33648095D01*
X101512380Y-33267142D01*
X101560000Y-33171904D01*
X101607619Y-33124285D01*
X101702857Y-33076666D01*
X101845714Y-33076666D01*
X101940952Y-33124285D01*
X101988571Y-33171904D01*
X102036190Y-33267142D01*
X102036190Y-33648095D01*
X102417142Y-32076666D02*
X102464761Y-32124285D01*
X102512380Y-32267142D01*
X102512380Y-32362380D01*
X102464761Y-32505238D01*
X102369523Y-32600476D01*
X102274285Y-32648095D01*
X102083809Y-32695714D01*
X101940952Y-32695714D01*
X101750476Y-32648095D01*
X101655238Y-32600476D01*
X101560000Y-32505238D01*
X101512380Y-32362380D01*
X101512380Y-32267142D01*
X101560000Y-32124285D01*
X101607619Y-32076666D01*
X101512380Y-31743333D02*
X101512380Y-31076666D01*
X102512380Y-31505238D01*
X146732380Y-76478095D02*
X147541904Y-76478095D01*
X147637142Y-76430476D01*
X147684761Y-76382857D01*
X147732380Y-76287619D01*
X147732380Y-76097142D01*
X147684761Y-76001904D01*
X147637142Y-75954285D01*
X147541904Y-75906666D01*
X146732380Y-75906666D01*
X147684761Y-75478095D02*
X147732380Y-75335238D01*
X147732380Y-75097142D01*
X147684761Y-75001904D01*
X147637142Y-74954285D01*
X147541904Y-74906666D01*
X147446666Y-74906666D01*
X147351428Y-74954285D01*
X147303809Y-75001904D01*
X147256190Y-75097142D01*
X147208571Y-75287619D01*
X147160952Y-75382857D01*
X147113333Y-75430476D01*
X147018095Y-75478095D01*
X146922857Y-75478095D01*
X146827619Y-75430476D01*
X146780000Y-75382857D01*
X146732380Y-75287619D01*
X146732380Y-75049523D01*
X146780000Y-74906666D01*
X147732380Y-73906666D02*
X147256190Y-74240000D01*
X147732380Y-74478095D02*
X146732380Y-74478095D01*
X146732380Y-74097142D01*
X146780000Y-74001904D01*
X146827619Y-73954285D01*
X146922857Y-73906666D01*
X147065714Y-73906666D01*
X147160952Y-73954285D01*
X147208571Y-74001904D01*
X147256190Y-74097142D01*
X147256190Y-74478095D01*
X147732380Y-72954285D02*
X147732380Y-73525714D01*
X147732380Y-73240000D02*
X146732380Y-73240000D01*
X146875238Y-73335238D01*
X146970476Y-73430476D01*
X147018095Y-73525714D01*
X168535714Y-70052380D02*
X167964285Y-70052380D01*
X168250000Y-70052380D02*
X168250000Y-69052380D01*
X168154761Y-69195238D01*
X168059523Y-69290476D01*
X167964285Y-69338095D01*
X127142380Y-76448095D02*
X126142380Y-76448095D01*
X126142380Y-76210000D01*
X126190000Y-76067142D01*
X126285238Y-75971904D01*
X126380476Y-75924285D01*
X126570952Y-75876666D01*
X126713809Y-75876666D01*
X126904285Y-75924285D01*
X126999523Y-75971904D01*
X127094761Y-76067142D01*
X127142380Y-76210000D01*
X127142380Y-76448095D01*
X126237619Y-75495714D02*
X126190000Y-75448095D01*
X126142380Y-75352857D01*
X126142380Y-75114761D01*
X126190000Y-75019523D01*
X126237619Y-74971904D01*
X126332857Y-74924285D01*
X126428095Y-74924285D01*
X126570952Y-74971904D01*
X127142380Y-75543333D01*
X127142380Y-74924285D01*
X92252380Y-90416666D02*
X91252380Y-90416666D01*
X91252380Y-90035714D01*
X91300000Y-89940476D01*
X91347619Y-89892857D01*
X91442857Y-89845238D01*
X91585714Y-89845238D01*
X91680952Y-89892857D01*
X91728571Y-89940476D01*
X91776190Y-90035714D01*
X91776190Y-90416666D01*
X91966666Y-89464285D02*
X91966666Y-88988095D01*
X92252380Y-89559523D02*
X91252380Y-89226190D01*
X92252380Y-88892857D01*
X91252380Y-88130952D02*
X91252380Y-88321428D01*
X91300000Y-88416666D01*
X91347619Y-88464285D01*
X91490476Y-88559523D01*
X91680952Y-88607142D01*
X92061904Y-88607142D01*
X92157142Y-88559523D01*
X92204761Y-88511904D01*
X92252380Y-88416666D01*
X92252380Y-88226190D01*
X92204761Y-88130952D01*
X92157142Y-88083333D01*
X92061904Y-88035714D01*
X91823809Y-88035714D01*
X91728571Y-88083333D01*
X91680952Y-88130952D01*
X91633333Y-88226190D01*
X91633333Y-88416666D01*
X91680952Y-88511904D01*
X91728571Y-88559523D01*
X91823809Y-88607142D01*
X165212380Y-76317619D02*
X164212380Y-76317619D01*
X165212380Y-75841428D02*
X164212380Y-75841428D01*
X165212380Y-75270000D01*
X164212380Y-75270000D01*
X165212380Y-74793809D02*
X164212380Y-74793809D01*
X164688571Y-74793809D02*
X164688571Y-74222380D01*
X165212380Y-74222380D02*
X164212380Y-74222380D01*
X170382380Y-76413809D02*
X169382380Y-76413809D01*
X170382380Y-75366190D02*
X169906190Y-75699523D01*
X170382380Y-75937619D02*
X169382380Y-75937619D01*
X169382380Y-75556666D01*
X169430000Y-75461428D01*
X169477619Y-75413809D01*
X169572857Y-75366190D01*
X169715714Y-75366190D01*
X169810952Y-75413809D01*
X169858571Y-75461428D01*
X169906190Y-75556666D01*
X169906190Y-75937619D01*
X170477619Y-74270952D02*
X170430000Y-74366190D01*
X170334761Y-74461428D01*
X170191904Y-74604285D01*
X170144285Y-74699523D01*
X170144285Y-74794761D01*
X170382380Y-74747142D02*
X170334761Y-74842380D01*
X170239523Y-74937619D01*
X170049047Y-74985238D01*
X169715714Y-74985238D01*
X169525238Y-74937619D01*
X169430000Y-74842380D01*
X169382380Y-74747142D01*
X169382380Y-74556666D01*
X169430000Y-74461428D01*
X169525238Y-74366190D01*
X169715714Y-74318571D01*
X170049047Y-74318571D01*
X170239523Y-74366190D01*
X170334761Y-74461428D01*
X170382380Y-74556666D01*
X170382380Y-74747142D01*
X158686666Y-91140476D02*
X158686666Y-90664285D01*
X158972380Y-91235714D02*
X157972380Y-90902380D01*
X158972380Y-90569047D01*
X158972380Y-89711904D02*
X158972380Y-90283333D01*
X158972380Y-89997619D02*
X157972380Y-89997619D01*
X158115238Y-90092857D01*
X158210476Y-90188095D01*
X158258095Y-90283333D01*
X158305714Y-88854761D02*
X158972380Y-88854761D01*
X157924761Y-89092857D02*
X158639047Y-89330952D01*
X158639047Y-88711904D01*
X132312380Y-76398095D02*
X131312380Y-76398095D01*
X131312380Y-76160000D01*
X131360000Y-76017142D01*
X131455238Y-75921904D01*
X131550476Y-75874285D01*
X131740952Y-75826666D01*
X131883809Y-75826666D01*
X132074285Y-75874285D01*
X132169523Y-75921904D01*
X132264761Y-76017142D01*
X132312380Y-76160000D01*
X132312380Y-76398095D01*
X131645714Y-74969523D02*
X132312380Y-74969523D01*
X131264761Y-75207619D02*
X131979047Y-75445714D01*
X131979047Y-74826666D01*
X151153333Y-58892380D02*
X151820000Y-58892380D01*
X151391428Y-59892380D01*
X152629523Y-59225714D02*
X152629523Y-59892380D01*
X152391428Y-58844761D02*
X152153333Y-59559047D01*
X152772380Y-59559047D01*
X153153333Y-59892380D02*
X153153333Y-58892380D01*
X153153333Y-59368571D02*
X153724761Y-59368571D01*
X153724761Y-59892380D02*
X153724761Y-58892380D01*
X154772380Y-59797142D02*
X154724761Y-59844761D01*
X154581904Y-59892380D01*
X154486666Y-59892380D01*
X154343809Y-59844761D01*
X154248571Y-59749523D01*
X154200952Y-59654285D01*
X154153333Y-59463809D01*
X154153333Y-59320952D01*
X154200952Y-59130476D01*
X154248571Y-59035238D01*
X154343809Y-58940000D01*
X154486666Y-58892380D01*
X154581904Y-58892380D01*
X154724761Y-58940000D01*
X154772380Y-58987619D01*
X155058095Y-58892380D02*
X155629523Y-58892380D01*
X155343809Y-59892380D02*
X155343809Y-58892380D01*
X155867619Y-58892380D02*
X156486666Y-58892380D01*
X156153333Y-59273333D01*
X156296190Y-59273333D01*
X156391428Y-59320952D01*
X156439047Y-59368571D01*
X156486666Y-59463809D01*
X156486666Y-59701904D01*
X156439047Y-59797142D01*
X156391428Y-59844761D01*
X156296190Y-59892380D01*
X156010476Y-59892380D01*
X155915238Y-59844761D01*
X155867619Y-59797142D01*
X156867619Y-58987619D02*
X156915238Y-58940000D01*
X157010476Y-58892380D01*
X157248571Y-58892380D01*
X157343809Y-58940000D01*
X157391428Y-58987619D01*
X157439047Y-59082857D01*
X157439047Y-59178095D01*
X157391428Y-59320952D01*
X156820000Y-59892380D01*
X157439047Y-59892380D01*
X51652380Y-85383333D02*
X52366666Y-85383333D01*
X52509523Y-85430952D01*
X52604761Y-85526190D01*
X52652380Y-85669047D01*
X52652380Y-85764285D01*
X52652380Y-84383333D02*
X52652380Y-84954761D01*
X52652380Y-84669047D02*
X51652380Y-84669047D01*
X51795238Y-84764285D01*
X51890476Y-84859523D01*
X51938095Y-84954761D01*
X186312380Y-54028095D02*
X185312380Y-54028095D01*
X185312380Y-53790000D01*
X185360000Y-53647142D01*
X185455238Y-53551904D01*
X185550476Y-53504285D01*
X185740952Y-53456666D01*
X185883809Y-53456666D01*
X186074285Y-53504285D01*
X186169523Y-53551904D01*
X186264761Y-53647142D01*
X186312380Y-53790000D01*
X186312380Y-54028095D01*
X186312380Y-52504285D02*
X186312380Y-53075714D01*
X186312380Y-52790000D02*
X185312380Y-52790000D01*
X185455238Y-52885238D01*
X185550476Y-52980476D01*
X185598095Y-53075714D01*
X134707142Y-34122380D02*
X134373809Y-33646190D01*
X134135714Y-34122380D02*
X134135714Y-33122380D01*
X134516666Y-33122380D01*
X134611904Y-33170000D01*
X134659523Y-33217619D01*
X134707142Y-33312857D01*
X134707142Y-33455714D01*
X134659523Y-33550952D01*
X134611904Y-33598571D01*
X134516666Y-33646190D01*
X134135714Y-33646190D01*
X135088095Y-33217619D02*
X135135714Y-33170000D01*
X135230952Y-33122380D01*
X135469047Y-33122380D01*
X135564285Y-33170000D01*
X135611904Y-33217619D01*
X135659523Y-33312857D01*
X135659523Y-33408095D01*
X135611904Y-33550952D01*
X135040476Y-34122380D01*
X135659523Y-34122380D01*
X136611904Y-34122380D02*
X136040476Y-34122380D01*
X136326190Y-34122380D02*
X136326190Y-33122380D01*
X136230952Y-33265238D01*
X136135714Y-33360476D01*
X136040476Y-33408095D01*
X177176666Y-56422380D02*
X177176666Y-57136666D01*
X177129047Y-57279523D01*
X177033809Y-57374761D01*
X176890952Y-57422380D01*
X176795714Y-57422380D01*
X177652857Y-57422380D02*
X177652857Y-56422380D01*
X178033809Y-56422380D01*
X178129047Y-56470000D01*
X178176666Y-56517619D01*
X178224285Y-56612857D01*
X178224285Y-56755714D01*
X178176666Y-56850952D01*
X178129047Y-56898571D01*
X178033809Y-56946190D01*
X177652857Y-56946190D01*
X179081428Y-56422380D02*
X178890952Y-56422380D01*
X178795714Y-56470000D01*
X178748095Y-56517619D01*
X178652857Y-56660476D01*
X178605238Y-56850952D01*
X178605238Y-57231904D01*
X178652857Y-57327142D01*
X178700476Y-57374761D01*
X178795714Y-57422380D01*
X178986190Y-57422380D01*
X179081428Y-57374761D01*
X179129047Y-57327142D01*
X179176666Y-57231904D01*
X179176666Y-56993809D01*
X179129047Y-56898571D01*
X179081428Y-56850952D01*
X178986190Y-56803333D01*
X178795714Y-56803333D01*
X178700476Y-56850952D01*
X178652857Y-56898571D01*
X178605238Y-56993809D01*
X144493333Y-35487142D02*
X144445714Y-35534761D01*
X144302857Y-35582380D01*
X144207619Y-35582380D01*
X144064761Y-35534761D01*
X143969523Y-35439523D01*
X143921904Y-35344285D01*
X143874285Y-35153809D01*
X143874285Y-35010952D01*
X143921904Y-34820476D01*
X143969523Y-34725238D01*
X144064761Y-34630000D01*
X144207619Y-34582380D01*
X144302857Y-34582380D01*
X144445714Y-34630000D01*
X144493333Y-34677619D01*
X145064761Y-35010952D02*
X144969523Y-34963333D01*
X144921904Y-34915714D01*
X144874285Y-34820476D01*
X144874285Y-34772857D01*
X144921904Y-34677619D01*
X144969523Y-34630000D01*
X145064761Y-34582380D01*
X145255238Y-34582380D01*
X145350476Y-34630000D01*
X145398095Y-34677619D01*
X145445714Y-34772857D01*
X145445714Y-34820476D01*
X145398095Y-34915714D01*
X145350476Y-34963333D01*
X145255238Y-35010952D01*
X145064761Y-35010952D01*
X144969523Y-35058571D01*
X144921904Y-35106190D01*
X144874285Y-35201428D01*
X144874285Y-35391904D01*
X144921904Y-35487142D01*
X144969523Y-35534761D01*
X145064761Y-35582380D01*
X145255238Y-35582380D01*
X145350476Y-35534761D01*
X145398095Y-35487142D01*
X145445714Y-35391904D01*
X145445714Y-35201428D01*
X145398095Y-35106190D01*
X145350476Y-35058571D01*
X145255238Y-35010952D01*
X143137142Y-62032857D02*
X143184761Y-62080476D01*
X143232380Y-62223333D01*
X143232380Y-62318571D01*
X143184761Y-62461428D01*
X143089523Y-62556666D01*
X142994285Y-62604285D01*
X142803809Y-62651904D01*
X142660952Y-62651904D01*
X142470476Y-62604285D01*
X142375238Y-62556666D01*
X142280000Y-62461428D01*
X142232380Y-62318571D01*
X142232380Y-62223333D01*
X142280000Y-62080476D01*
X142327619Y-62032857D01*
X143232380Y-61080476D02*
X143232380Y-61651904D01*
X143232380Y-61366190D02*
X142232380Y-61366190D01*
X142375238Y-61461428D01*
X142470476Y-61556666D01*
X142518095Y-61651904D01*
X142232380Y-60461428D02*
X142232380Y-60366190D01*
X142280000Y-60270952D01*
X142327619Y-60223333D01*
X142422857Y-60175714D01*
X142613333Y-60128095D01*
X142851428Y-60128095D01*
X143041904Y-60175714D01*
X143137142Y-60223333D01*
X143184761Y-60270952D01*
X143232380Y-60366190D01*
X143232380Y-60461428D01*
X143184761Y-60556666D01*
X143137142Y-60604285D01*
X143041904Y-60651904D01*
X142851428Y-60699523D01*
X142613333Y-60699523D01*
X142422857Y-60651904D01*
X142327619Y-60604285D01*
X142280000Y-60556666D01*
X142232380Y-60461428D01*
X114640476Y-31832380D02*
X114640476Y-32546666D01*
X114592857Y-32689523D01*
X114497619Y-32784761D01*
X114354761Y-32832380D01*
X114259523Y-32832380D01*
X115116666Y-32832380D02*
X115116666Y-31832380D01*
X115497619Y-31832380D01*
X115592857Y-31880000D01*
X115640476Y-31927619D01*
X115688095Y-32022857D01*
X115688095Y-32165714D01*
X115640476Y-32260952D01*
X115592857Y-32308571D01*
X115497619Y-32356190D01*
X115116666Y-32356190D01*
X116640476Y-32832380D02*
X116069047Y-32832380D01*
X116354761Y-32832380D02*
X116354761Y-31832380D01*
X116259523Y-31975238D01*
X116164285Y-32070476D01*
X116069047Y-32118095D01*
X117259523Y-31832380D02*
X117354761Y-31832380D01*
X117450000Y-31880000D01*
X117497619Y-31927619D01*
X117545238Y-32022857D01*
X117592857Y-32213333D01*
X117592857Y-32451428D01*
X117545238Y-32641904D01*
X117497619Y-32737142D01*
X117450000Y-32784761D01*
X117354761Y-32832380D01*
X117259523Y-32832380D01*
X117164285Y-32784761D01*
X117116666Y-32737142D01*
X117069047Y-32641904D01*
X117021428Y-32451428D01*
X117021428Y-32213333D01*
X117069047Y-32022857D01*
X117116666Y-31927619D01*
X117164285Y-31880000D01*
X117259523Y-31832380D01*
X143327142Y-43702380D02*
X142993809Y-43226190D01*
X142755714Y-43702380D02*
X142755714Y-42702380D01*
X143136666Y-42702380D01*
X143231904Y-42750000D01*
X143279523Y-42797619D01*
X143327142Y-42892857D01*
X143327142Y-43035714D01*
X143279523Y-43130952D01*
X143231904Y-43178571D01*
X143136666Y-43226190D01*
X142755714Y-43226190D01*
X143708095Y-42797619D02*
X143755714Y-42750000D01*
X143850952Y-42702380D01*
X144089047Y-42702380D01*
X144184285Y-42750000D01*
X144231904Y-42797619D01*
X144279523Y-42892857D01*
X144279523Y-42988095D01*
X144231904Y-43130952D01*
X143660476Y-43702380D01*
X144279523Y-43702380D01*
X144660476Y-42797619D02*
X144708095Y-42750000D01*
X144803333Y-42702380D01*
X145041428Y-42702380D01*
X145136666Y-42750000D01*
X145184285Y-42797619D01*
X145231904Y-42892857D01*
X145231904Y-42988095D01*
X145184285Y-43130952D01*
X144612857Y-43702380D01*
X145231904Y-43702380D01*
X157702380Y-46553333D02*
X158416666Y-46553333D01*
X158559523Y-46600952D01*
X158654761Y-46696190D01*
X158702380Y-46839047D01*
X158702380Y-46934285D01*
X158702380Y-46077142D02*
X157702380Y-46077142D01*
X157702380Y-45696190D01*
X157750000Y-45600952D01*
X157797619Y-45553333D01*
X157892857Y-45505714D01*
X158035714Y-45505714D01*
X158130952Y-45553333D01*
X158178571Y-45600952D01*
X158226190Y-45696190D01*
X158226190Y-46077142D01*
X157797619Y-45124761D02*
X157750000Y-45077142D01*
X157702380Y-44981904D01*
X157702380Y-44743809D01*
X157750000Y-44648571D01*
X157797619Y-44600952D01*
X157892857Y-44553333D01*
X157988095Y-44553333D01*
X158130952Y-44600952D01*
X158702380Y-45172380D01*
X158702380Y-44553333D01*
X49106666Y-64674285D02*
X49106666Y-64198095D01*
X49392380Y-64769523D02*
X48392380Y-64436190D01*
X49392380Y-64102857D01*
X49392380Y-63245714D02*
X49392380Y-63817142D01*
X49392380Y-63531428D02*
X48392380Y-63531428D01*
X48535238Y-63626666D01*
X48630476Y-63721904D01*
X48678095Y-63817142D01*
X143177142Y-56762380D02*
X142843809Y-56286190D01*
X142605714Y-56762380D02*
X142605714Y-55762380D01*
X142986666Y-55762380D01*
X143081904Y-55810000D01*
X143129523Y-55857619D01*
X143177142Y-55952857D01*
X143177142Y-56095714D01*
X143129523Y-56190952D01*
X143081904Y-56238571D01*
X142986666Y-56286190D01*
X142605714Y-56286190D01*
X144129523Y-56762380D02*
X143558095Y-56762380D01*
X143843809Y-56762380D02*
X143843809Y-55762380D01*
X143748571Y-55905238D01*
X143653333Y-56000476D01*
X143558095Y-56048095D01*
X144700952Y-56190952D02*
X144605714Y-56143333D01*
X144558095Y-56095714D01*
X144510476Y-56000476D01*
X144510476Y-55952857D01*
X144558095Y-55857619D01*
X144605714Y-55810000D01*
X144700952Y-55762380D01*
X144891428Y-55762380D01*
X144986666Y-55810000D01*
X145034285Y-55857619D01*
X145081904Y-55952857D01*
X145081904Y-56000476D01*
X145034285Y-56095714D01*
X144986666Y-56143333D01*
X144891428Y-56190952D01*
X144700952Y-56190952D01*
X144605714Y-56238571D01*
X144558095Y-56286190D01*
X144510476Y-56381428D01*
X144510476Y-56571904D01*
X144558095Y-56667142D01*
X144605714Y-56714761D01*
X144700952Y-56762380D01*
X144891428Y-56762380D01*
X144986666Y-56714761D01*
X145034285Y-56667142D01*
X145081904Y-56571904D01*
X145081904Y-56381428D01*
X145034285Y-56286190D01*
X144986666Y-56238571D01*
X144891428Y-56190952D01*
X157667380Y-42803333D02*
X158381666Y-42803333D01*
X158524523Y-42850952D01*
X158619761Y-42946190D01*
X158667380Y-43089047D01*
X158667380Y-43184285D01*
X158667380Y-42327142D02*
X157667380Y-42327142D01*
X157667380Y-41946190D01*
X157715000Y-41850952D01*
X157762619Y-41803333D01*
X157857857Y-41755714D01*
X158000714Y-41755714D01*
X158095952Y-41803333D01*
X158143571Y-41850952D01*
X158191190Y-41946190D01*
X158191190Y-42327142D01*
X158667380Y-41279523D02*
X158667380Y-41089047D01*
X158619761Y-40993809D01*
X158572142Y-40946190D01*
X158429285Y-40850952D01*
X158238809Y-40803333D01*
X157857857Y-40803333D01*
X157762619Y-40850952D01*
X157715000Y-40898571D01*
X157667380Y-40993809D01*
X157667380Y-41184285D01*
X157715000Y-41279523D01*
X157762619Y-41327142D01*
X157857857Y-41374761D01*
X158095952Y-41374761D01*
X158191190Y-41327142D01*
X158238809Y-41279523D01*
X158286428Y-41184285D01*
X158286428Y-40993809D01*
X158238809Y-40898571D01*
X158191190Y-40850952D01*
X158095952Y-40803333D01*
X117518380Y-86947333D02*
X118232666Y-86947333D01*
X118375523Y-86994952D01*
X118470761Y-87090190D01*
X118518380Y-87233047D01*
X118518380Y-87328285D01*
X117518380Y-86566380D02*
X117518380Y-85947333D01*
X117899333Y-86280666D01*
X117899333Y-86137809D01*
X117946952Y-86042571D01*
X117994571Y-85994952D01*
X118089809Y-85947333D01*
X118327904Y-85947333D01*
X118423142Y-85994952D01*
X118470761Y-86042571D01*
X118518380Y-86137809D01*
X118518380Y-86423523D01*
X118470761Y-86518761D01*
X118423142Y-86566380D01*
X116252380Y-78843333D02*
X116966666Y-78843333D01*
X117109523Y-78890952D01*
X117204761Y-78986190D01*
X117252380Y-79129047D01*
X117252380Y-79224285D01*
X116347619Y-78414761D02*
X116300000Y-78367142D01*
X116252380Y-78271904D01*
X116252380Y-78033809D01*
X116300000Y-77938571D01*
X116347619Y-77890952D01*
X116442857Y-77843333D01*
X116538095Y-77843333D01*
X116680952Y-77890952D01*
X117252380Y-78462380D01*
X117252380Y-77843333D01*
X157682380Y-54073333D02*
X158396666Y-54073333D01*
X158539523Y-54120952D01*
X158634761Y-54216190D01*
X158682380Y-54359047D01*
X158682380Y-54454285D01*
X158682380Y-53597142D02*
X157682380Y-53597142D01*
X157682380Y-53216190D01*
X157730000Y-53120952D01*
X157777619Y-53073333D01*
X157872857Y-53025714D01*
X158015714Y-53025714D01*
X158110952Y-53073333D01*
X158158571Y-53120952D01*
X158206190Y-53216190D01*
X158206190Y-53597142D01*
X157682380Y-52692380D02*
X157682380Y-52025714D01*
X158682380Y-52454285D01*
X143723333Y-50432380D02*
X143390000Y-49956190D01*
X143151904Y-50432380D02*
X143151904Y-49432380D01*
X143532857Y-49432380D01*
X143628095Y-49480000D01*
X143675714Y-49527619D01*
X143723333Y-49622857D01*
X143723333Y-49765714D01*
X143675714Y-49860952D01*
X143628095Y-49908571D01*
X143532857Y-49956190D01*
X143151904Y-49956190D01*
X144056666Y-49432380D02*
X144675714Y-49432380D01*
X144342380Y-49813333D01*
X144485238Y-49813333D01*
X144580476Y-49860952D01*
X144628095Y-49908571D01*
X144675714Y-50003809D01*
X144675714Y-50241904D01*
X144628095Y-50337142D01*
X144580476Y-50384761D01*
X144485238Y-50432380D01*
X144199523Y-50432380D01*
X144104285Y-50384761D01*
X144056666Y-50337142D01*
X124497142Y-34112380D02*
X124163809Y-33636190D01*
X123925714Y-34112380D02*
X123925714Y-33112380D01*
X124306666Y-33112380D01*
X124401904Y-33160000D01*
X124449523Y-33207619D01*
X124497142Y-33302857D01*
X124497142Y-33445714D01*
X124449523Y-33540952D01*
X124401904Y-33588571D01*
X124306666Y-33636190D01*
X123925714Y-33636190D01*
X124878095Y-33207619D02*
X124925714Y-33160000D01*
X125020952Y-33112380D01*
X125259047Y-33112380D01*
X125354285Y-33160000D01*
X125401904Y-33207619D01*
X125449523Y-33302857D01*
X125449523Y-33398095D01*
X125401904Y-33540952D01*
X124830476Y-34112380D01*
X125449523Y-34112380D01*
X125782857Y-33112380D02*
X126401904Y-33112380D01*
X126068571Y-33493333D01*
X126211428Y-33493333D01*
X126306666Y-33540952D01*
X126354285Y-33588571D01*
X126401904Y-33683809D01*
X126401904Y-33921904D01*
X126354285Y-34017142D01*
X126306666Y-34064761D01*
X126211428Y-34112380D01*
X125925714Y-34112380D01*
X125830476Y-34064761D01*
X125782857Y-34017142D01*
X144188380Y-66293904D02*
X144997904Y-66293904D01*
X145093142Y-66246285D01*
X145140761Y-66198666D01*
X145188380Y-66103428D01*
X145188380Y-65912952D01*
X145140761Y-65817714D01*
X145093142Y-65770095D01*
X144997904Y-65722476D01*
X144188380Y-65722476D01*
X144283619Y-65293904D02*
X144236000Y-65246285D01*
X144188380Y-65151047D01*
X144188380Y-64912952D01*
X144236000Y-64817714D01*
X144283619Y-64770095D01*
X144378857Y-64722476D01*
X144474095Y-64722476D01*
X144616952Y-64770095D01*
X145188380Y-65341523D01*
X145188380Y-64722476D01*
X167551380Y-66537904D02*
X168360904Y-66537904D01*
X168456142Y-66490285D01*
X168503761Y-66442666D01*
X168551380Y-66347428D01*
X168551380Y-66156952D01*
X168503761Y-66061714D01*
X168456142Y-66014095D01*
X168360904Y-65966476D01*
X167551380Y-65966476D01*
X167551380Y-65585523D02*
X167551380Y-64966476D01*
X167932333Y-65299809D01*
X167932333Y-65156952D01*
X167979952Y-65061714D01*
X168027571Y-65014095D01*
X168122809Y-64966476D01*
X168360904Y-64966476D01*
X168456142Y-65014095D01*
X168503761Y-65061714D01*
X168551380Y-65156952D01*
X168551380Y-65442666D01*
X168503761Y-65537904D01*
X168456142Y-65585523D01*
X143663333Y-47272380D02*
X143330000Y-46796190D01*
X143091904Y-47272380D02*
X143091904Y-46272380D01*
X143472857Y-46272380D01*
X143568095Y-46320000D01*
X143615714Y-46367619D01*
X143663333Y-46462857D01*
X143663333Y-46605714D01*
X143615714Y-46700952D01*
X143568095Y-46748571D01*
X143472857Y-46796190D01*
X143091904Y-46796190D01*
X144044285Y-46367619D02*
X144091904Y-46320000D01*
X144187142Y-46272380D01*
X144425238Y-46272380D01*
X144520476Y-46320000D01*
X144568095Y-46367619D01*
X144615714Y-46462857D01*
X144615714Y-46558095D01*
X144568095Y-46700952D01*
X143996666Y-47272380D01*
X144615714Y-47272380D01*
X143723333Y-53662380D02*
X143390000Y-53186190D01*
X143151904Y-53662380D02*
X143151904Y-52662380D01*
X143532857Y-52662380D01*
X143628095Y-52710000D01*
X143675714Y-52757619D01*
X143723333Y-52852857D01*
X143723333Y-52995714D01*
X143675714Y-53090952D01*
X143628095Y-53138571D01*
X143532857Y-53186190D01*
X143151904Y-53186190D01*
X144056666Y-52662380D02*
X144723333Y-52662380D01*
X144294761Y-53662380D01*
X157692380Y-50323333D02*
X158406666Y-50323333D01*
X158549523Y-50370952D01*
X158644761Y-50466190D01*
X158692380Y-50609047D01*
X158692380Y-50704285D01*
X158692380Y-49847142D02*
X157692380Y-49847142D01*
X157692380Y-49466190D01*
X157740000Y-49370952D01*
X157787619Y-49323333D01*
X157882857Y-49275714D01*
X158025714Y-49275714D01*
X158120952Y-49323333D01*
X158168571Y-49370952D01*
X158216190Y-49466190D01*
X158216190Y-49847142D01*
X157692380Y-48942380D02*
X157692380Y-48323333D01*
X158073333Y-48656666D01*
X158073333Y-48513809D01*
X158120952Y-48418571D01*
X158168571Y-48370952D01*
X158263809Y-48323333D01*
X158501904Y-48323333D01*
X158597142Y-48370952D01*
X158644761Y-48418571D01*
X158692380Y-48513809D01*
X158692380Y-48799523D01*
X158644761Y-48894761D01*
X158597142Y-48942380D01*
X143683333Y-39152380D02*
X143350000Y-38676190D01*
X143111904Y-39152380D02*
X143111904Y-38152380D01*
X143492857Y-38152380D01*
X143588095Y-38200000D01*
X143635714Y-38247619D01*
X143683333Y-38342857D01*
X143683333Y-38485714D01*
X143635714Y-38580952D01*
X143588095Y-38628571D01*
X143492857Y-38676190D01*
X143111904Y-38676190D01*
X144635714Y-39152380D02*
X144064285Y-39152380D01*
X144350000Y-39152380D02*
X144350000Y-38152380D01*
X144254761Y-38295238D01*
X144159523Y-38390476D01*
X144064285Y-38438095D01*
X136158095Y-35632380D02*
X136158095Y-36441904D01*
X136205714Y-36537142D01*
X136253333Y-36584761D01*
X136348571Y-36632380D01*
X136539047Y-36632380D01*
X136634285Y-36584761D01*
X136681904Y-36537142D01*
X136729523Y-36441904D01*
X136729523Y-35632380D01*
X137253333Y-36632380D02*
X137443809Y-36632380D01*
X137539047Y-36584761D01*
X137586666Y-36537142D01*
X137681904Y-36394285D01*
X137729523Y-36203809D01*
X137729523Y-35822857D01*
X137681904Y-35727619D01*
X137634285Y-35680000D01*
X137539047Y-35632380D01*
X137348571Y-35632380D01*
X137253333Y-35680000D01*
X137205714Y-35727619D01*
X137158095Y-35822857D01*
X137158095Y-36060952D01*
X137205714Y-36156190D01*
X137253333Y-36203809D01*
X137348571Y-36251428D01*
X137539047Y-36251428D01*
X137634285Y-36203809D01*
X137681904Y-36156190D01*
X137729523Y-36060952D01*
X114846666Y-40742380D02*
X114846666Y-41456666D01*
X114799047Y-41599523D01*
X114703809Y-41694761D01*
X114560952Y-41742380D01*
X114465714Y-41742380D01*
X115322857Y-41742380D02*
X115322857Y-40742380D01*
X115703809Y-40742380D01*
X115799047Y-40790000D01*
X115846666Y-40837619D01*
X115894285Y-40932857D01*
X115894285Y-41075714D01*
X115846666Y-41170952D01*
X115799047Y-41218571D01*
X115703809Y-41266190D01*
X115322857Y-41266190D01*
X116465714Y-41170952D02*
X116370476Y-41123333D01*
X116322857Y-41075714D01*
X116275238Y-40980476D01*
X116275238Y-40932857D01*
X116322857Y-40837619D01*
X116370476Y-40790000D01*
X116465714Y-40742380D01*
X116656190Y-40742380D01*
X116751428Y-40790000D01*
X116799047Y-40837619D01*
X116846666Y-40932857D01*
X116846666Y-40980476D01*
X116799047Y-41075714D01*
X116751428Y-41123333D01*
X116656190Y-41170952D01*
X116465714Y-41170952D01*
X116370476Y-41218571D01*
X116322857Y-41266190D01*
X116275238Y-41361428D01*
X116275238Y-41551904D01*
X116322857Y-41647142D01*
X116370476Y-41694761D01*
X116465714Y-41742380D01*
X116656190Y-41742380D01*
X116751428Y-41694761D01*
X116799047Y-41647142D01*
X116846666Y-41551904D01*
X116846666Y-41361428D01*
X116799047Y-41266190D01*
X116751428Y-41218571D01*
X116656190Y-41170952D01*
X157647380Y-57903333D02*
X158361666Y-57903333D01*
X158504523Y-57950952D01*
X158599761Y-58046190D01*
X158647380Y-58189047D01*
X158647380Y-58284285D01*
X158647380Y-57427142D02*
X157647380Y-57427142D01*
X157647380Y-57046190D01*
X157695000Y-56950952D01*
X157742619Y-56903333D01*
X157837857Y-56855714D01*
X157980714Y-56855714D01*
X158075952Y-56903333D01*
X158123571Y-56950952D01*
X158171190Y-57046190D01*
X158171190Y-57427142D01*
X157980714Y-55998571D02*
X158647380Y-55998571D01*
X157599761Y-56236666D02*
X158314047Y-56474761D01*
X158314047Y-55855714D01*
X167207142Y-60292857D02*
X167254761Y-60340476D01*
X167302380Y-60483333D01*
X167302380Y-60578571D01*
X167254761Y-60721428D01*
X167159523Y-60816666D01*
X167064285Y-60864285D01*
X166873809Y-60911904D01*
X166730952Y-60911904D01*
X166540476Y-60864285D01*
X166445238Y-60816666D01*
X166350000Y-60721428D01*
X166302380Y-60578571D01*
X166302380Y-60483333D01*
X166350000Y-60340476D01*
X166397619Y-60292857D01*
X167302380Y-59340476D02*
X167302380Y-59911904D01*
X167302380Y-59626190D02*
X166302380Y-59626190D01*
X166445238Y-59721428D01*
X166540476Y-59816666D01*
X166588095Y-59911904D01*
X167302380Y-58388095D02*
X167302380Y-58959523D01*
X167302380Y-58673809D02*
X166302380Y-58673809D01*
X166445238Y-58769047D01*
X166540476Y-58864285D01*
X166588095Y-58959523D01*
X169397142Y-53392857D02*
X169444761Y-53440476D01*
X169492380Y-53583333D01*
X169492380Y-53678571D01*
X169444761Y-53821428D01*
X169349523Y-53916666D01*
X169254285Y-53964285D01*
X169063809Y-54011904D01*
X168920952Y-54011904D01*
X168730476Y-53964285D01*
X168635238Y-53916666D01*
X168540000Y-53821428D01*
X168492380Y-53678571D01*
X168492380Y-53583333D01*
X168540000Y-53440476D01*
X168587619Y-53392857D01*
X169492380Y-52440476D02*
X169492380Y-53011904D01*
X169492380Y-52726190D02*
X168492380Y-52726190D01*
X168635238Y-52821428D01*
X168730476Y-52916666D01*
X168778095Y-53011904D01*
X168825714Y-51583333D02*
X169492380Y-51583333D01*
X168444761Y-51821428D02*
X169159047Y-52059523D01*
X169159047Y-51440476D01*
D12*
X56240000Y-86380000D02*
X58840000Y-86380000D01*
X56240000Y-83720000D02*
X58840000Y-83720000D01*
X56240000Y-86380000D02*
X56240000Y-83720000D01*
X53640000Y-85050000D02*
X53640000Y-83720000D01*
X53640000Y-83720000D02*
X54970000Y-83720000D01*
X58840000Y-86380000D02*
X58840000Y-83720000D01*
X184760000Y-55800000D02*
X187000000Y-55800000D01*
X185880000Y-50910000D02*
X185880000Y-51560000D01*
X187000000Y-55800000D02*
X187000000Y-51560000D01*
X187000000Y-51560000D02*
X184760000Y-51560000D01*
X185880000Y-56450000D02*
X185880000Y-55800000D01*
X184760000Y-55080000D02*
X187000000Y-55080000D01*
X184760000Y-55200000D02*
X187000000Y-55200000D01*
X184760000Y-51560000D02*
X184760000Y-55800000D01*
X184760000Y-54960000D02*
X187000000Y-54960000D01*
X132040000Y-35000000D02*
X138580000Y-35000000D01*
X132040000Y-32260000D02*
X138580000Y-32260000D01*
X138580000Y-32260000D02*
X138580000Y-32590000D01*
X138580000Y-35000000D02*
X138580000Y-34670000D01*
X132040000Y-34670000D02*
X132040000Y-35000000D01*
X132040000Y-32590000D02*
X132040000Y-32260000D01*
X179340000Y-54640000D02*
X179340000Y-55970000D01*
X176680000Y-53370000D02*
X176680000Y-50770000D01*
X179340000Y-53370000D02*
X176680000Y-53370000D01*
X179340000Y-50770000D02*
X176680000Y-50770000D01*
X179340000Y-55970000D02*
X178010000Y-55970000D01*
X179340000Y-53370000D02*
X179340000Y-50770000D01*
X147220000Y-33760000D02*
X147220000Y-34075000D01*
X141980000Y-36500000D02*
X147220000Y-36500000D01*
X141980000Y-36185000D02*
X141980000Y-36500000D01*
X147220000Y-36185000D02*
X147220000Y-36500000D01*
X141980000Y-33760000D02*
X147220000Y-33760000D01*
X141980000Y-33760000D02*
X141980000Y-34075000D01*
X144180000Y-58810000D02*
X143865000Y-58810000D01*
X144180000Y-58810000D02*
X144180000Y-64050000D01*
X141440000Y-58810000D02*
X141440000Y-64050000D01*
X141755000Y-64050000D02*
X141440000Y-64050000D01*
X144180000Y-64050000D02*
X143865000Y-64050000D01*
X141755000Y-58810000D02*
X141440000Y-58810000D01*
X115825000Y-33560000D02*
X118425000Y-33560000D01*
X115825000Y-36220000D02*
X118425000Y-36220000D01*
X114555000Y-36220000D02*
X113225000Y-36220000D01*
X113225000Y-36220000D02*
X113225000Y-34890000D01*
X118425000Y-36220000D02*
X118425000Y-33560000D01*
X115825000Y-36220000D02*
X115825000Y-33560000D01*
X140640000Y-44590000D02*
X147180000Y-44590000D01*
X147180000Y-41850000D02*
X147180000Y-42180000D01*
X140640000Y-44260000D02*
X140640000Y-44590000D01*
X140640000Y-42180000D02*
X140640000Y-41850000D01*
X140640000Y-41850000D02*
X147180000Y-41850000D01*
X147180000Y-44590000D02*
X147180000Y-44260000D01*
X152050000Y-44390000D02*
X152050000Y-47050000D01*
X157250000Y-44390000D02*
X157250000Y-45720000D01*
X154650000Y-44390000D02*
X152050000Y-44390000D01*
X155920000Y-44390000D02*
X157250000Y-44390000D01*
X154650000Y-47050000D02*
X152050000Y-47050000D01*
X154650000Y-44390000D02*
X154650000Y-47050000D01*
X43455000Y-34120000D02*
X43455000Y-37300000D01*
X43455000Y-87720000D02*
X108105000Y-87720000D01*
X37105000Y-66510000D02*
X37105000Y-78190000D01*
X43455000Y-66510000D02*
X37105000Y-66510000D01*
X41555000Y-46440000D02*
X43455000Y-46440000D01*
X43455000Y-46440000D02*
X43455000Y-66510000D01*
X43455000Y-37300000D02*
X41555000Y-37300000D01*
X109755000Y-86070000D02*
X109755000Y-74640000D01*
X108105000Y-87720000D02*
X109755000Y-86070000D01*
X112295000Y-39330000D02*
X109755000Y-36790000D01*
X109755000Y-74640000D02*
X112295000Y-72100000D01*
X41555000Y-37300000D02*
X41555000Y-46440000D01*
X43455000Y-78190000D02*
X43455000Y-87720000D01*
X112295000Y-72100000D02*
X112295000Y-39330000D01*
X37105000Y-78190000D02*
X43455000Y-78190000D01*
X109755000Y-36790000D02*
X109755000Y-34120000D01*
X109755000Y-34120000D02*
X43455000Y-34120000D01*
X140590000Y-54940000D02*
X147130000Y-54940000D01*
X140590000Y-57680000D02*
X147130000Y-57680000D01*
X140590000Y-55270000D02*
X140590000Y-54940000D01*
X147130000Y-57680000D02*
X147130000Y-57350000D01*
X140590000Y-57350000D02*
X140590000Y-57680000D01*
X147130000Y-54940000D02*
X147130000Y-55270000D01*
X184150000Y-103378000D02*
X118110000Y-103378000D01*
X184150000Y-94488000D02*
X184150000Y-103378000D01*
X118110000Y-103378000D02*
X118110000Y-94488000D01*
X118110000Y-94488000D02*
X184150000Y-94488000D01*
X154615000Y-40640000D02*
X154615000Y-43300000D01*
X154615000Y-43300000D02*
X152015000Y-43300000D01*
X152015000Y-40640000D02*
X152015000Y-43300000D01*
X154615000Y-40640000D02*
X152015000Y-40640000D01*
X155885000Y-40640000D02*
X157215000Y-40640000D01*
X157215000Y-40640000D02*
X157215000Y-41970000D01*
X121666000Y-85284000D02*
X182686000Y-85284000D01*
X121666000Y-87944000D02*
X182686000Y-87944000D01*
X182686000Y-87944000D02*
X182686000Y-85284000D01*
X119066000Y-87944000D02*
X119066000Y-86614000D01*
X121666000Y-87944000D02*
X121666000Y-85284000D01*
X120396000Y-87944000D02*
X119066000Y-87944000D01*
X181420000Y-79840000D02*
X181420000Y-77180000D01*
X119130000Y-79840000D02*
X117800000Y-79840000D01*
X120400000Y-79840000D02*
X181420000Y-79840000D01*
X117800000Y-79840000D02*
X117800000Y-78510000D01*
X120400000Y-77180000D02*
X181420000Y-77180000D01*
X120400000Y-79840000D02*
X120400000Y-77180000D01*
X154630000Y-51910000D02*
X152030000Y-51910000D01*
X155900000Y-51910000D02*
X157230000Y-51910000D01*
X152030000Y-51910000D02*
X152030000Y-54570000D01*
X154630000Y-54570000D02*
X152030000Y-54570000D01*
X157230000Y-51910000D02*
X157230000Y-53240000D01*
X154630000Y-51910000D02*
X154630000Y-54570000D01*
X140600000Y-51420000D02*
X147140000Y-51420000D01*
X140600000Y-48680000D02*
X147140000Y-48680000D01*
X147140000Y-48680000D02*
X147140000Y-49010000D01*
X140600000Y-49010000D02*
X140600000Y-48680000D01*
X140600000Y-51090000D02*
X140600000Y-51420000D01*
X147140000Y-51420000D02*
X147140000Y-51090000D01*
X121840000Y-34700000D02*
X121840000Y-35030000D01*
X128380000Y-32290000D02*
X128380000Y-32620000D01*
X121840000Y-32290000D02*
X128380000Y-32290000D01*
X121840000Y-32620000D02*
X121840000Y-32290000D01*
X121840000Y-35030000D02*
X128380000Y-35030000D01*
X128380000Y-35030000D02*
X128380000Y-34700000D01*
X145676000Y-70672000D02*
X163696000Y-70672000D01*
X163696000Y-60392000D02*
X145676000Y-60392000D01*
X163636000Y-68182000D02*
X163636000Y-62882000D01*
X145676000Y-60392000D02*
X145676000Y-70672000D01*
X145736000Y-68182000D02*
X163636000Y-68182000D01*
X145736000Y-62882000D02*
X145736000Y-64532000D01*
X145736000Y-66532000D02*
X145736000Y-68182000D01*
X163636000Y-62882000D02*
X145736000Y-62882000D01*
X163696000Y-70672000D02*
X163696000Y-60392000D01*
X145736000Y-66532000D02*
G75*
G03*
X145736000Y-64532000I0J1000000D01*
G01*
X187059000Y-60636000D02*
X169039000Y-60636000D01*
X169039000Y-70916000D02*
X187059000Y-70916000D01*
X186999000Y-63126000D02*
X169099000Y-63126000D01*
X187059000Y-70916000D02*
X187059000Y-60636000D01*
X169039000Y-60636000D02*
X169039000Y-70916000D01*
X169099000Y-66776000D02*
X169099000Y-68426000D01*
X169099000Y-68426000D02*
X186999000Y-68426000D01*
X186999000Y-68426000D02*
X186999000Y-63126000D01*
X169099000Y-63126000D02*
X169099000Y-64776000D01*
X169099000Y-66776000D02*
G75*
G03*
X169099000Y-64776000I0J1000000D01*
G01*
X140600000Y-45850000D02*
X140600000Y-45520000D01*
X140600000Y-48260000D02*
X147140000Y-48260000D01*
X147140000Y-48260000D02*
X147140000Y-47930000D01*
X147140000Y-45520000D02*
X147140000Y-45850000D01*
X140600000Y-47930000D02*
X140600000Y-48260000D01*
X140600000Y-45520000D02*
X147140000Y-45520000D01*
X140600000Y-52170000D02*
X140600000Y-51840000D01*
X147140000Y-54580000D02*
X147140000Y-54250000D01*
X140600000Y-51840000D02*
X147140000Y-51840000D01*
X140600000Y-54580000D02*
X147140000Y-54580000D01*
X147140000Y-51840000D02*
X147140000Y-52170000D01*
X140600000Y-54250000D02*
X140600000Y-54580000D01*
X152040000Y-48160000D02*
X152040000Y-50820000D01*
X154640000Y-48160000D02*
X152040000Y-48160000D01*
X154640000Y-48160000D02*
X154640000Y-50820000D01*
X157240000Y-48160000D02*
X157240000Y-49490000D01*
X155910000Y-48160000D02*
X157240000Y-48160000D01*
X154640000Y-50820000D02*
X152040000Y-50820000D01*
X140550000Y-40110000D02*
X140550000Y-39780000D01*
X147090000Y-39780000D02*
X147090000Y-40110000D01*
X147090000Y-37700000D02*
X147090000Y-37370000D01*
X140550000Y-37370000D02*
X140550000Y-37700000D01*
X147090000Y-37370000D02*
X140550000Y-37370000D01*
X147090000Y-40110000D02*
X140550000Y-40110000D01*
X119905000Y-37125000D02*
X119905000Y-72925000D01*
X119905000Y-72925000D02*
X137805000Y-72925000D01*
X135315000Y-72865000D02*
X135315000Y-37185000D01*
X122395000Y-72865000D02*
X135315000Y-72865000D01*
X137805000Y-72925000D02*
X137805000Y-37125000D01*
X127855000Y-37185000D02*
X122395000Y-37185000D01*
X135315000Y-37185000D02*
X129855000Y-37185000D01*
X137805000Y-37125000D02*
X119905000Y-37125000D01*
X122395000Y-37185000D02*
X122395000Y-72865000D01*
X127855000Y-37185000D02*
G75*
G03*
X129855000Y-37185000I1000000J0D01*
G01*
X115785000Y-37330000D02*
X118385000Y-37330000D01*
X113185000Y-39990000D02*
X113185000Y-38660000D01*
X115785000Y-39990000D02*
X118385000Y-39990000D01*
X115785000Y-39990000D02*
X115785000Y-37330000D01*
X114515000Y-39990000D02*
X113185000Y-39990000D01*
X118385000Y-39990000D02*
X118385000Y-37330000D01*
X154595000Y-55740000D02*
X151995000Y-55740000D01*
X157195000Y-55740000D02*
X157195000Y-57070000D01*
X154595000Y-55740000D02*
X154595000Y-58400000D01*
X151995000Y-55740000D02*
X151995000Y-58400000D01*
X154595000Y-58400000D02*
X151995000Y-58400000D01*
X155865000Y-55740000D02*
X157195000Y-55740000D01*
X165550000Y-57030000D02*
X165865000Y-57030000D01*
X168290000Y-62270000D02*
X168290000Y-57030000D01*
X167975000Y-62270000D02*
X168290000Y-62270000D01*
X165550000Y-62270000D02*
X165865000Y-62270000D01*
X165550000Y-62270000D02*
X165550000Y-57030000D01*
X167975000Y-57030000D02*
X168290000Y-57030000D01*
X170129000Y-52260000D02*
X171580000Y-52260000D01*
X173660000Y-52620000D02*
X175181000Y-52620000D01*
X173660000Y-51099000D02*
X174446000Y-51099000D01*
X170445000Y-51539000D02*
X171580000Y-51539000D01*
X170420000Y-51579000D02*
X171580000Y-51579000D01*
X170330000Y-51739000D02*
X171580000Y-51739000D01*
X171369000Y-50659000D02*
X171580000Y-50659000D01*
X173660000Y-51859000D02*
X174968000Y-51859000D01*
X173660000Y-51419000D02*
X174715000Y-51419000D01*
X173660000Y-52260000D02*
X175111000Y-52260000D01*
X171442000Y-50619000D02*
X173798000Y-50619000D01*
X173660000Y-51739000D02*
X174910000Y-51739000D01*
X171066000Y-50859000D02*
X171580000Y-50859000D01*
X173660000Y-51899000D02*
X174985000Y-51899000D01*
X170238000Y-51939000D02*
X171580000Y-51939000D01*
X170352000Y-51699000D02*
X171580000Y-51699000D01*
X173660000Y-50899000D02*
X174225000Y-50899000D01*
X170921000Y-50979000D02*
X171580000Y-50979000D01*
X173660000Y-51139000D02*
X174484000Y-51139000D01*
X170373000Y-51659000D02*
X171580000Y-51659000D01*
X173660000Y-52300000D02*
X175121000Y-52300000D01*
X170165000Y-52139000D02*
X171580000Y-52139000D01*
X170616000Y-51299000D02*
X171580000Y-51299000D01*
X173660000Y-52580000D02*
X175176000Y-52580000D01*
X171015000Y-50899000D02*
X171580000Y-50899000D01*
X170291000Y-51819000D02*
X171580000Y-51819000D01*
X170070000Y-52540000D02*
X171580000Y-52540000D01*
X173660000Y-50739000D02*
X174003000Y-50739000D01*
X173660000Y-51219000D02*
X174557000Y-51219000D01*
X173660000Y-51579000D02*
X174820000Y-51579000D01*
X170055000Y-52660000D02*
X171580000Y-52660000D01*
X173660000Y-51059000D02*
X174405000Y-51059000D01*
X170396000Y-51619000D02*
X171580000Y-51619000D01*
X170895000Y-55494775D02*
X171395000Y-55494775D01*
X170059000Y-52620000D02*
X171580000Y-52620000D01*
X173660000Y-50699000D02*
X173939000Y-50699000D01*
X173660000Y-51259000D02*
X174591000Y-51259000D01*
X170719000Y-51179000D02*
X171580000Y-51179000D01*
X173660000Y-52099000D02*
X175062000Y-52099000D01*
X170092000Y-52420000D02*
X171580000Y-52420000D01*
X170649000Y-51259000D02*
X171580000Y-51259000D01*
X170525000Y-51419000D02*
X171580000Y-51419000D01*
X173660000Y-52660000D02*
X175185000Y-52660000D01*
X173660000Y-52700000D02*
X175189000Y-52700000D01*
X173660000Y-52380000D02*
X175140000Y-52380000D01*
X173660000Y-52019000D02*
X175034000Y-52019000D01*
X170152000Y-52179000D02*
X171580000Y-52179000D01*
X173660000Y-51779000D02*
X174930000Y-51779000D01*
X173660000Y-51699000D02*
X174888000Y-51699000D01*
X170192000Y-52059000D02*
X171580000Y-52059000D01*
X171301000Y-50699000D02*
X171580000Y-50699000D01*
X171120000Y-50819000D02*
X171580000Y-50819000D01*
X170255000Y-51899000D02*
X171580000Y-51899000D01*
X173660000Y-52340000D02*
X175131000Y-52340000D01*
X172336000Y-50339000D02*
X172904000Y-50339000D01*
X170040000Y-52900000D02*
X175200000Y-52900000D01*
X170967000Y-50939000D02*
X171580000Y-50939000D01*
X173660000Y-50819000D02*
X174120000Y-50819000D01*
X170310000Y-51779000D02*
X171580000Y-51779000D01*
X170140000Y-52219000D02*
X171580000Y-52219000D01*
X173660000Y-50979000D02*
X174319000Y-50979000D01*
X173660000Y-51619000D02*
X174844000Y-51619000D01*
X171522000Y-50579000D02*
X173718000Y-50579000D01*
X170109000Y-52340000D02*
X171580000Y-52340000D01*
X170683000Y-51219000D02*
X171580000Y-51219000D01*
X171943000Y-50419000D02*
X173297000Y-50419000D01*
X170794000Y-51099000D02*
X171580000Y-51099000D01*
X173660000Y-51819000D02*
X174949000Y-51819000D01*
X170044000Y-52780000D02*
X175196000Y-52780000D01*
X173660000Y-52139000D02*
X175075000Y-52139000D01*
X170041000Y-52860000D02*
X175199000Y-52860000D01*
X173660000Y-52420000D02*
X175148000Y-52420000D01*
X170206000Y-52019000D02*
X171580000Y-52019000D01*
X173660000Y-51299000D02*
X174624000Y-51299000D01*
X173660000Y-50859000D02*
X174174000Y-50859000D01*
X170756000Y-51139000D02*
X171580000Y-51139000D01*
X173660000Y-50779000D02*
X174063000Y-50779000D01*
X173660000Y-52059000D02*
X175048000Y-52059000D01*
X170178000Y-52099000D02*
X171580000Y-52099000D01*
X173660000Y-51499000D02*
X174769000Y-51499000D01*
X170100000Y-52380000D02*
X171580000Y-52380000D01*
X173660000Y-51179000D02*
X174521000Y-51179000D01*
X170077000Y-52500000D02*
X171580000Y-52500000D01*
X173660000Y-51459000D02*
X174742000Y-51459000D01*
X171815000Y-50459000D02*
X173425000Y-50459000D01*
X170119000Y-52300000D02*
X171580000Y-52300000D01*
X172102000Y-50379000D02*
X173138000Y-50379000D01*
X170272000Y-51859000D02*
X171580000Y-51859000D01*
X170084000Y-52460000D02*
X171580000Y-52460000D01*
X170555000Y-51379000D02*
X171580000Y-51379000D01*
X173660000Y-51939000D02*
X175002000Y-51939000D01*
X173660000Y-50659000D02*
X173871000Y-50659000D01*
X173660000Y-52460000D02*
X175156000Y-52460000D01*
X173660000Y-51979000D02*
X175018000Y-51979000D01*
X173660000Y-51379000D02*
X174685000Y-51379000D01*
X170498000Y-51459000D02*
X171580000Y-51459000D01*
X173660000Y-51659000D02*
X174867000Y-51659000D01*
X173660000Y-50939000D02*
X174273000Y-50939000D01*
X170051000Y-52700000D02*
X171580000Y-52700000D01*
X170835000Y-51059000D02*
X171580000Y-51059000D01*
X173660000Y-52179000D02*
X175088000Y-52179000D01*
X173660000Y-51539000D02*
X174795000Y-51539000D01*
X170040000Y-52940000D02*
X175200000Y-52940000D01*
X171609000Y-50539000D02*
X173631000Y-50539000D01*
X170047000Y-52740000D02*
X175193000Y-52740000D01*
X171145000Y-55744775D02*
X171145000Y-55244775D01*
X173660000Y-51339000D02*
X174655000Y-51339000D01*
X170042000Y-52820000D02*
X175198000Y-52820000D01*
X170877000Y-51019000D02*
X171580000Y-51019000D01*
X171237000Y-50739000D02*
X171580000Y-50739000D01*
X173660000Y-51019000D02*
X174363000Y-51019000D01*
X170585000Y-51339000D02*
X171580000Y-51339000D01*
X170222000Y-51979000D02*
X171580000Y-51979000D01*
X173660000Y-52219000D02*
X175100000Y-52219000D01*
X171705000Y-50499000D02*
X173535000Y-50499000D01*
X170064000Y-52580000D02*
X171580000Y-52580000D01*
X173660000Y-52500000D02*
X175163000Y-52500000D01*
X173660000Y-52540000D02*
X175170000Y-52540000D01*
X170471000Y-51499000D02*
X171580000Y-51499000D01*
X171177000Y-50779000D02*
X171580000Y-50779000D01*
X175240000Y-52940000D02*
G75*
G03*
X175240000Y-52940000I-2620000J0D01*
G01*
M02*
